<svg width="78.000000" height="78.000000" viewBox="0 0 78 78" fill="none" xmlns="http://www.w3.org/2000/svg" xmlns:xlink="http://www.w3.org/1999/xlink">
	<desc>
			Created with Pixso.
	</desc>
	<defs>
		<clipPath id="clip301_562">
			<rect id="Face 5" rx="-0.162500" width="77.675003" height="77.675003" transform="translate(0.162500 0.162500) rotate(0.000000)" fill="white" fill-opacity="0"/>
		</clipPath>
	</defs>
	<rect id="Face 5" rx="-0.162500" width="77.675003" height="77.675003" transform="translate(0.162500 0.162500) rotate(0.000000)" fill="#FFFFFF" fill-opacity="0"/>
	<g clip-path="url(#clip301_562)">
		<path id="Vector" d="M11.22 26.94C14.86 22.66 18.86 18.57 23.27 15.09C26.35 12.67 27.4 12.55 29.1 12.09C29.56 11.97 29.96 11.68 30.36 11.4C46.84 -0.24 67.84 8.01 71.9 28.54C74.6 42.16 67.65 55.69 55.71 61.22C55.52 61.31 55.23 61.34 55.14 61.49C52.77 65.2 47.95 66.63 45.01 67.36C44.41 67.58 43.95 68.2 43.41 68.61C42.99 68.92 42.57 69.26 42.1 69.48C26.56 76.68 9.87 67.04 6.21 51.09C5.7 48.84 3.43 35.27 11.22 26.94ZM43.57 60.35C49.11 60.32 52.73 59.42 55.96 57.64C71.54 49.1 73.86 25.89 60.16 14.55C52.31 8.07 42.26 6.97 33.43 13.18C22.93 20.56 19.13 35.69 25.01 47.12C29.23 55.34 35.93 59.88 43.57 60.35ZM48.87 63.86C49.54 63.61 49.64 63.44 49.53 63.36C49.53 63.36 49.25 63.36 48.77 63.37C36.58 64.29 27.42 59.44 21.99 48.51C16.68 37.84 17.96 27.36 24.23 17.33C23.73 17.57 23.33 17.87 22.96 18.21C14.51 25.86 12.02 38.82 16.9 49.9C21.39 60.12 30.83 66.19 41.45 65.43C43.94 65.25 46.39 64.4 48.87 63.86ZM13.08 28.73C13.09 28.34 12.72 28.83 12.67 28.89C12.48 29.15 12.29 29.42 12.13 29.69C9.89 33.46 8.5 37.53 8.31 41.91C7.86 51.87 11.36 60.13 19.79 65.77C25.4 69.52 31.63 70.29 38.14 68.26C28.62 67.3 21.2 62.88 16.19 54.73C11.18 46.61 10.38 37.88 13.08 28.73Z" fill="#000000" fill-opacity="1.000000" fill-rule="nonzero"/>
		<path id="Vector" d="M53.86 37.41C55.73 37.48 56.34 38.45 55.73 40.21C54.22 44.55 49.95 46.66 45.6 45.14C43.03 44.24 41.01 42.58 39.62 40.23C38.55 38.41 39.02 37.37 41.12 37.23C43.31 37.09 51.82 37.33 53.86 37.41ZM53.44 39.52C49.71 39.52 46.06 39.52 42.38 39.52C46.12 43.87 51.64 43.95 53.44 39.52Z" fill="#000000" fill-opacity="1.000000" fill-rule="nonzero"/>
		<path id="Vector" d="M38.63 29.73C38.64 31.85 36.61 33.77 34.39 33.75C32.45 33.74 31.1 31.99 31.09 30.14C31.06 28.28 32.96 26.46 35.04 26.4C37.04 26.33 38.63 27.8 38.63 29.73ZM34.57 28.39C33.56 28.55 33.25 29.5 33.33 30.22C33.44 31.26 34.23 31.52 34.72 31.53C35.18 31.55 36.08 31.09 36.27 30.19C36.52 29.29 36 28.05 34.57 28.39Z" fill="#CD4631" fill-opacity="1.000000" fill-rule="nonzero"/>
		<path id="Vector" d="M64.51 30.3C64.48 32.35 63.03 33.85 61.09 33.84C59.01 33.82 57.51 32.13 57.57 29.87C57.63 27.9 59.09 26.39 60.91 26.43C62.79 26.48 64.53 28.35 64.51 30.3ZM62.64 30.25C62.64 29.2 62.08 28.5 61.22 28.5C60.69 28.5 59.79 28.91 59.79 30.02C59.79 31.95 61.22 31.85 61.22 31.85C61.98 31.82 62.64 31.51 62.64 30.25Z" fill="#81ADC8" fill-opacity="1.000000" fill-rule="nonzero"/>
	</g>
</svg>
