<svg width="78.000000" height="78.000000" viewBox="0 0 78 78" fill="none" xmlns="http://www.w3.org/2000/svg" xmlns:xlink="http://www.w3.org/1999/xlink">
	<desc>
			Created with Pixso.
	</desc>
	<defs>
		<clipPath id="clip301_579">
			<rect id="Star" rx="-0.207292" width="77.585419" height="77.585419" transform="translate(0.207292 0.207292) rotate(0.000000)" fill="white" fill-opacity="0"/>
		</clipPath>
	</defs>
	<rect id="Star" rx="-0.207292" width="77.585419" height="77.585419" transform="translate(0.207292 0.207292) rotate(0.000000)" fill="#FFFFFF" fill-opacity="0"/>
	<g clip-path="url(#clip301_579)">
		<path id="Vector" d="M29.11 29.19C27.76 28.22 26.77 27.5 25.78 26.79C21.8 23.94 17.79 21.09 13.83 18.2C12.89 17.5 11.99 16.65 11.33 15.7C10.95 15.13 10.83 14.12 11.09 13.52C11.23 13.17 12.45 12.98 13.04 13.18C14.46 13.66 15.84 14.31 17.14 15.05C21.19 17.4 25.2 19.82 29.38 22.31C29.76 19.82 30.08 17.34 30.55 14.89C30.9 13 31.38 11.1 31.91 9.24C32.25 8.04 32.97 7 34.42 7.2C35.92 7.4 36.41 8.59 36.38 9.93C36.33 13.93 36.19 17.91 36.11 21.91C36.08 22.85 36.11 23.8 36.11 24.75C36.26 24.88 37.53 23.75 38.13 23.16C43.22 18.18 48.31 13.23 53.46 8.3C54.18 7.61 55.08 7.02 56 6.64C56.49 6.44 57.41 6.59 57.74 6.94C58.06 7.29 58.13 8.21 57.9 8.69C57.47 9.6 56.82 10.42 56.13 11.17C51.59 16.15 47.03 21.11 42.48 26.08C41.97 26.62 41.47 27.19 40.73 28.01C44.14 27.77 47.21 27.5 50.29 27.34C56.48 27.02 62.68 26.77 68.87 26.5C69.25 26.48 69.65 26.48 69.98 26.55C72.1 27 71.91 29.12 70.32 29.39C68.37 29.73 66.4 30.15 64.43 30.36C57.34 31.06 50.26 31.68 43.18 32.35C43.03 32.36 42.9 32.41 42.45 32.54C44.4 34.07 46.2 35.47 48 36.87C51.4 39.52 54.84 42.14 58.18 44.85C59.08 45.58 59.86 46.54 60.43 47.54C61.04 48.6 60.4 49.5 59.24 49.22C57.82 48.85 56.36 48.27 55.15 47.45C49.27 43.44 43.48 39.31 37.65 35.22C37 34.76 36.35 34.3 35.41 33.61C35.2 36.68 35.04 39.44 34.82 42.2C34.17 50.42 33.52 58.64 32.85 66.86C32.77 67.77 32.59 68.69 32.32 69.56C31.95 70.75 31.14 71.54 29.83 71.44C28.6 71.35 27.88 70.52 27.66 69.36C27.46 68.25 27.35 67.11 27.36 65.98C27.44 58.64 27.57 51.32 27.67 43.98C27.69 43.44 27.67 42.91 27.67 41.97C27.05 42.57 26.62 42.96 26.2 43.38C21.51 48.07 16.83 52.77 12.13 57.45C11.6 57.98 11 58.51 10.33 58.81C9.87 59.01 9.05 59 8.7 58.71C8.35 58.43 8.27 57.63 8.27 57.15C8.28 55.66 9.08 55 9.79 54.15C13.93 49.12 18.14 44.14 22.38 39.18C23.91 37.4 25.58 35.73 27.54 33.65C23.87 34.07 20.69 34.47 17.5 34.77C14.44 35.05 11.38 35.23 8.31 35.45C7.98 35.47 7.65 35.42 7.35 35.38C5.79 35.19 6.67 33.54 7.12 33.43C10.19 32.67 13.29 31.94 16.41 31.37C20.1 30.73 28.27 29.48 29.11 29.19Z" fill="#000000" fill-opacity="1.000000" fill-rule="nonzero"/>
	</g>
</svg>
