<svg width="78.000000" height="78.000000" viewBox="0 0 78 78" fill="none" xmlns="http://www.w3.org/2000/svg" xmlns:xlink="http://www.w3.org/1999/xlink">
	<desc>
			Created with Pixso.
	</desc>
	<defs>
		<clipPath id="clip301_572">
			<rect id="Fire" rx="-0.500000" width="77.000000" height="77.000000" transform="translate(0.500000 0.500000) rotate(0.000000)" fill="white" fill-opacity="0"/>
		</clipPath>
	</defs>
	<rect id="Fire" rx="-0.500000" width="77.000000" height="77.000000" transform="translate(0.500000 0.500000) rotate(0.000000)" fill="#FFFFFF" fill-opacity="0"/>
	<g clip-path="url(#clip301_572)">
		<path id="Vector" d="M53.67 22.81C53.34 26.16 53.09 28.95 52.75 31.72C52.56 33.24 51.94 34.55 50.23 34.92C48.81 35.22 47.34 34.43 46.48 32.68C45.66 31.01 45.06 29.2 44.44 27.43C42.64 22.34 39.86 17.82 36.42 13.69C35.35 12.4 34.3 11.11 33.06 9.62C32.79 10.53 32.58 11.26 32.36 11.99C30.06 19.94 29.27 28.04 29.62 36.29C29.73 38.95 29.42 41.68 29.04 44.33C28.8 46.04 28.16 47.77 26.1 48.15C24.63 48.42 23.16 47.2 22.27 44.98C21.68 43.49 21.28 41.91 20.74 40.39C20.44 39.54 20.01 38.74 19.62 37.84C14.65 43.88 18.44 63.8 25.06 66.71C25.09 61.38 27.54 56.96 30.44 52.79C34.54 46.89 36.77 40.36 37.52 33.27C37.57 32.74 37.68 32.2 37.78 31.68C38.24 29.27 39.23 28.88 41.03 30.67C42.19 31.82 43.22 33.24 43.9 34.72C47.26 41.95 48.65 49.45 46.38 57.33C46.12 58.2 45.54 59.42 45.97 60.04C46.73 60.99 47.92 59.36 48.18 58.7C48.85 56.95 49.27 55.12 49.81 53.32C50.15 52.2 50.36 50.97 50.97 49.99C51.44 49.23 52.47 48.3 53.17 48.37C53.9 48.43 54.92 49.48 55.16 50.29C56.95 56.34 56.11 61.88 50.53 66.58C47.66 69 44.13 69.79 40.51 70.26C36.44 70.79 32.41 70.95 28.32 70.02C26.37 69.57 24.34 69.27 23.16 68.84C21.99 68.41 20.98 67.53 20.51 66.8C14.48 57.49 13.5 47.69 17.73 37.41C18.61 35.28 20.31 34.84 21.8 36.6C22.89 37.9 23.52 39.64 24.21 41.27C24.68 42.41 24.94 43.64 25.26 44.83C25.67 46.32 26.27 46.55 26.67 46.29C27.17 46.14 27.47 44.34 27.42 42.54C27.32 39.58 27.38 36.6 27.06 33.66C26.16 25.05 28.26 16.98 31.32 9.07C32.08 7.09 32.94 6.85 34.57 8.23C41.23 13.88 46.04 20.75 48.22 29.31C48.56 30.61 48.66 32.08 50.32 33.1C50.48 31.84 50.61 30.8 50.76 29.77C51.14 27.23 51.39 24.65 51.95 22.16C52.31 20.66 53.35 20.35 54.45 21.43C55.88 22.85 57.29 24.42 58.22 26.2C61.7 32.83 62.9 40.04 62.87 47.46C62.84 53.29 61.76 58.96 59.08 64.17C58.17 65.94 56.64 67.41 55.34 68.96C54.76 69.67 53.43 69.44 54.04 67.87C54.09 67.73 54.16 67.57 54.26 67.43C59.29 60.68 59.8 52.77 59.86 44.8C59.92 38.45 59 32.22 56.03 26.48C55.41 25.3 54.61 24.25 53.67 22.81ZM52.94 50.59C52.14 53.24 51.52 55.43 50.8 57.61C50.23 59.33 49.37 60.89 47.66 61.75C45.68 62.75 43.76 61.64 43.65 59.42C43.61 58.51 43.65 57.57 43.83 56.69C45.21 49.63 44.56 42.77 41.8 36.12C41.32 34.99 40.63 33.94 39.94 32.7C39.7 33.1 39.52 34.58 39.5 35.22C39.32 40.04 38.78 44.8 36.25 49.06C34.73 51.59 33.02 54.01 31.37 56.48C29.54 59.23 27.92 62.07 27.32 65.37C26.92 67.64 27.09 67.74 29.26 68.3C33.85 69.46 38.34 68.72 42.83 67.83C47.93 66.81 51.11 63.45 53.01 58.82C54.05 56.29 53.76 53.66 52.94 50.59Z" fill="#CD4631" fill-opacity="1.000000" fill-rule="nonzero"/>
	</g>
</svg>
