<svg width="198.000000" height="36.000000" viewBox="0 0 198 36" fill="none" xmlns="http://www.w3.org/2000/svg" xmlns:xlink="http://www.w3.org/1999/xlink">
	<desc>
			Created with Pixso.
	</desc>
	<defs/>
	<path id="Vector" d="M16.08 11.45L16.08 16.91L16.08 19.09L16.08 24.54L20.68 24.54L20.68 19.09L20.68 16.91L20.68 11.45L16.08 11.45Z" fill="#FAB908" fill-opacity="1.000000" fill-rule="nonzero"/>
	<path id="Vector" d="M2.29 19.02C3.56 19.02 4.59 18.01 4.59 16.77C4.59 15.52 3.56 14.52 2.29 14.52C1.02 14.52 0 15.52 0 16.77C0 18.01 1.02 19.02 2.29 19.02Z" fill="#0066D9" fill-opacity="1.000000" fill-rule="nonzero"/>
	<path id="Vector" d="M2.29 21.47C3.56 21.47 4.59 20.47 4.59 19.22C4.59 17.98 3.56 16.97 2.29 16.97C1.02 16.97 0 17.98 0 19.22C0 20.47 1.02 21.47 2.29 21.47Z" fill="#0066D9" fill-opacity="1.000000" fill-rule="nonzero"/>
	<path id="Vector" d="M4.59 16.77L0 16.77L0 19.22L4.59 19.22L4.59 16.77Z" fill="#0066D9" fill-opacity="1.000000" fill-rule="nonzero"/>
	<path id="Vector" d="M34.47 21.47C35.74 21.47 36.76 20.47 36.76 19.22C36.76 17.98 35.74 16.97 34.47 16.97C33.2 16.97 32.17 17.98 32.17 19.22C32.17 20.47 33.2 21.47 34.47 21.47Z" fill="#4285F4" fill-opacity="1.000000" fill-rule="nonzero"/>
	<path id="Vector" d="M34.47 19.02C35.74 19.02 36.76 18.01 36.76 16.77C36.76 15.52 35.74 14.52 34.47 14.52C33.2 14.52 32.17 15.52 32.17 16.77C32.17 18.01 33.2 19.02 34.47 19.02Z" fill="#4285F4" fill-opacity="1.000000" fill-rule="nonzero"/>
	<path id="Vector" d="M32.17 19.22L36.76 19.22L36.76 16.77L32.17 16.77L32.17 19.22Z" fill="#4285F4" fill-opacity="1.000000" fill-rule="nonzero"/>
	<path id="Vector" d="M10.23 26.38C11.5 26.38 12.53 25.37 12.53 24.13C12.53 22.89 11.5 21.88 10.23 21.88C8.96 21.88 7.93 22.89 7.93 24.13C7.93 25.37 8.96 26.38 10.23 26.38Z" fill="#EA4335" fill-opacity="1.000000" fill-rule="nonzero"/>
	<path id="Vector" d="M10.23 28.84C11.5 28.84 12.53 27.83 12.53 26.59C12.53 25.34 11.5 24.34 10.23 24.34C8.96 24.34 7.93 25.34 7.93 26.59C7.93 27.83 8.96 28.84 10.23 28.84Z" fill="#EA4335" fill-opacity="1.000000" fill-rule="nonzero"/>
	<path id="Vector" d="M12.53 24.13L7.93 24.13L7.93 26.59L12.53 26.59L12.53 24.13Z" fill="#EA4335" fill-opacity="1.000000" fill-rule="nonzero"/>
	<path id="Vector" d="M10.23 11.65C11.5 11.65 12.53 10.65 12.53 9.4C12.53 8.16 11.5 7.15 10.23 7.15C8.96 7.15 7.93 8.16 7.93 9.4C7.93 10.65 8.96 11.65 10.23 11.65Z" fill="#EA4335" fill-opacity="1.000000" fill-rule="nonzero"/>
	<path id="Vector" d="M10.23 19.63C11.5 19.63 12.53 18.62 12.53 17.38C12.53 16.14 11.5 15.13 10.23 15.13C8.96 15.13 7.93 16.14 7.93 17.38C7.93 18.62 8.96 19.63 10.23 19.63Z" fill="#EA4335" fill-opacity="1.000000" fill-rule="nonzero"/>
	<path id="Vector" d="M12.53 9.4L7.93 9.4L7.93 17.43L12.53 17.43L12.53 9.4Z" fill="#EA4335" fill-opacity="1.000000" fill-rule="nonzero"/>
	<path id="Vector" d="M26.53 14.11C27.8 14.11 28.83 13.1 28.83 11.86C28.83 10.62 27.8 9.61 26.53 9.61C25.26 9.61 24.23 10.62 24.23 11.86C24.23 13.1 25.26 14.11 26.53 14.11Z" fill="#34A853" fill-opacity="1.000000" fill-rule="nonzero"/>
	<path id="Vector" d="M26.53 11.65C27.8 11.65 28.83 10.65 28.83 9.4C28.83 8.16 27.8 7.15 26.53 7.15C25.26 7.15 24.23 8.16 24.23 9.4C24.23 10.65 25.26 11.65 26.53 11.65Z" fill="#34A853" fill-opacity="1.000000" fill-rule="nonzero"/>
	<path id="Vector" d="M24.23 11.86L28.83 11.86L28.83 9.4L24.23 9.4L24.23 11.86Z" fill="#34A853" fill-opacity="1.000000" fill-rule="nonzero"/>
	<path id="Vector" d="M18.38 6.95C19.65 6.95 20.68 5.94 20.68 4.7C20.68 3.46 19.65 2.45 18.38 2.45C17.11 2.45 16.08 3.46 16.08 4.7C16.08 5.94 17.11 6.95 18.38 6.95Z" fill="#FAB908" fill-opacity="1.000000" fill-rule="nonzero"/>
	<path id="Vector" d="M18.38 4.5C19.65 4.5 20.68 3.49 20.68 2.25C20.68 1 19.65 0 18.38 0C17.11 0 16.08 1 16.08 2.25C16.08 3.49 17.11 4.5 18.38 4.5Z" fill="#FAB908" fill-opacity="1.000000" fill-rule="nonzero"/>
	<path id="Vector" d="M16.08 4.7L20.68 4.7L20.68 2.25L16.08 2.25L16.08 4.7Z" fill="#FAB908" fill-opacity="1.000000" fill-rule="nonzero"/>
	<path id="Vector" d="M18.38 36C19.65 36 20.68 34.99 20.68 33.75C20.68 32.5 19.65 31.5 18.38 31.5C17.11 31.5 16.08 32.5 16.08 33.75C16.08 34.99 17.11 36 18.38 36Z" fill="#FAB908" fill-opacity="1.000000" fill-rule="nonzero"/>
	<path id="Vector" d="M18.38 33.54C19.65 33.54 20.68 32.53 20.68 31.29C20.68 30.05 19.65 29.04 18.38 29.04C17.11 29.04 16.08 30.05 16.08 31.29C16.08 32.53 17.11 33.54 18.38 33.54Z" fill="#FAB908" fill-opacity="1.000000" fill-rule="nonzero"/>
	<path id="Vector" d="M16.08 33.75L20.68 33.75L20.68 31.29L16.08 31.29L16.08 33.75Z" fill="#FAB908" fill-opacity="1.000000" fill-rule="nonzero"/>
	<path id="Vector" d="M26.53 28.84C27.8 28.84 28.83 27.83 28.83 26.59C28.83 25.34 27.8 24.34 26.53 24.34C25.26 24.34 24.23 25.34 24.23 26.59C24.23 27.83 25.26 28.84 26.53 28.84Z" fill="#34A853" fill-opacity="1.000000" fill-rule="nonzero"/>
	<path id="Vector" d="M26.53 20.86C27.8 20.86 28.83 19.85 28.83 18.61C28.83 17.37 27.8 16.36 26.53 16.36C25.26 16.36 24.23 17.37 24.23 18.61C24.23 19.85 25.26 20.86 26.53 20.86Z" fill="#34A853" fill-opacity="1.000000" fill-rule="nonzero"/>
	<path id="Vector" d="M24.23 26.59L28.83 26.59L28.83 18.61L24.23 18.61L24.23 26.59Z" fill="#34A853" fill-opacity="1.000000" fill-rule="nonzero"/>
	<path id="Vector" d="M18.38 13.7C19.65 13.7 20.68 12.69 20.68 11.45C20.68 10.21 19.65 9.2 18.38 9.2C17.11 9.2 16.08 10.21 16.08 11.45C16.08 12.69 17.11 13.7 18.38 13.7Z" fill="#FAB908" fill-opacity="1.000000" fill-rule="nonzero"/>
	<path id="Vector" d="M18.38 26.79C19.65 26.79 20.68 25.78 20.68 24.54C20.68 23.3 19.65 22.29 18.38 22.29C17.11 22.29 16.08 23.3 16.08 24.54C16.08 25.78 17.11 26.79 18.38 26.79Z" fill="#FAB908" fill-opacity="1.000000" fill-rule="nonzero"/>
	<path id="Vector" d="M121.39 23.64L119.48 23.64L119.48 9.06L124.55 9.06C125.82 9.06 126.91 9.47 127.83 10.29C128.75 11.11 129.21 12.15 129.21 13.4C129.21 14.65 128.75 15.68 127.83 16.5C126.91 17.33 125.82 17.74 124.55 17.74L121.39 17.74L121.39 23.64ZM121.39 15.94L124.6 15.94C125.4 15.94 126.04 15.68 126.53 15.15C127.01 14.62 127.26 14.04 127.26 13.4C127.26 12.76 127.01 12.18 126.53 11.65C126.04 11.12 125.4 10.85 124.6 10.85L121.39 10.85L121.39 15.94ZM130.8 14.87C131.78 13.85 133.04 13.34 134.56 13.34C136.09 13.34 137.34 13.84 138.33 14.85C139.31 15.87 139.81 17.13 139.81 18.65C139.81 20.17 139.31 21.44 138.33 22.45C137.34 23.46 136.09 23.97 134.56 23.97C133.04 23.97 131.78 23.46 130.8 22.45C129.82 21.44 129.32 20.17 129.32 18.65C129.32 17.13 129.82 15.87 130.8 14.87ZM132.21 21.28C132.88 21.93 133.66 22.26 134.56 22.26C135.47 22.26 136.25 21.93 136.9 21.27C137.56 20.61 137.89 19.74 137.89 18.65C137.89 17.57 137.56 16.69 136.9 16.04C136.25 15.38 135.47 15.05 134.56 15.05C133.66 15.05 132.88 15.38 132.22 16.04C131.57 16.69 131.24 17.57 131.24 18.65C131.24 19.74 131.56 20.61 132.21 21.28ZM145.57 23.97C144.25 23.97 143.12 23.46 142.16 22.44C141.21 21.42 140.73 20.16 140.73 18.65C140.73 17.15 141.21 15.88 142.16 14.87C143.12 13.85 144.25 13.34 145.57 13.34C146.35 13.34 147.05 13.5 147.66 13.83C148.28 14.15 148.74 14.56 149.05 15.05L149.13 15.05L149.05 13.66L149.05 9.06L150.96 9.06L150.96 23.64L149.13 23.64L149.13 22.26L149.05 22.26C148.74 22.75 148.28 23.15 147.66 23.48C147.05 23.8 146.35 23.97 145.57 23.97ZM145.89 22.26C146.79 22.26 147.55 21.93 148.18 21.28C148.81 20.63 149.13 19.75 149.13 18.65C149.13 17.55 148.81 16.68 148.18 16.03C147.55 15.37 146.79 15.05 145.89 15.05C145 15.05 144.23 15.38 143.6 16.04C142.96 16.69 142.64 17.57 142.64 18.65C142.64 19.74 142.96 20.61 143.6 21.27C144.23 21.93 145 22.26 145.89 22.26ZM157.6 23.97C156.08 23.97 154.82 23.46 153.84 22.45C152.85 21.44 152.36 20.17 152.36 18.65C152.36 17.13 152.85 15.87 153.84 14.85C154.82 13.84 156.08 13.34 157.6 13.34C158.74 13.34 159.68 13.61 160.43 14.15C161.18 14.7 161.73 15.38 162.07 16.21L160.33 16.92C159.8 15.67 158.85 15.05 157.48 15.05C156.63 15.05 155.89 15.39 155.24 16.07C154.6 16.75 154.27 17.61 154.27 18.65C154.27 19.7 154.6 20.56 155.24 21.24C155.89 21.92 156.63 22.26 157.48 22.26C158.9 22.26 159.89 21.63 160.43 20.38L162.13 21.1C161.79 21.91 161.23 22.59 160.46 23.14C159.69 23.69 158.74 23.97 157.6 23.97ZM166.67 23.97C165.59 23.97 164.69 23.66 163.96 23.05C163.23 22.44 162.87 21.63 162.87 20.63C162.87 19.54 163.3 18.69 164.16 18.07C165.02 17.45 166.08 17.15 167.34 17.15C168.46 17.15 169.39 17.35 170.11 17.76L170.11 17.47C170.11 16.74 169.85 16.15 169.34 15.71C168.82 15.27 168.19 15.05 167.45 15.05C166.89 15.05 166.39 15.18 165.94 15.44C165.49 15.69 165.18 16.05 165.01 16.49L163.26 15.76C163.5 15.16 163.96 14.61 164.66 14.1C165.35 13.59 166.27 13.34 167.4 13.34C168.71 13.34 169.79 13.71 170.65 14.46C171.51 15.2 171.94 16.26 171.94 17.61L171.94 23.64L170.11 23.64L170.11 22.26L170.02 22.26C169.26 23.4 168.15 23.97 166.67 23.97ZM166.99 22.26C167.78 22.26 168.49 21.97 169.14 21.39C169.78 20.81 170.11 20.13 170.11 19.35C169.57 18.91 168.75 18.69 167.67 18.69C166.74 18.69 166.04 18.89 165.57 19.28C165.1 19.68 164.87 20.14 164.87 20.67C164.87 21.16 165.08 21.54 165.51 21.83C165.94 22.11 166.43 22.26 166.99 22.26ZM177.54 23.97C176.4 23.97 175.46 23.7 174.72 23.15C173.98 22.61 173.43 21.93 173.09 21.12L174.79 20.42C175.33 21.67 176.26 22.3 177.56 22.3C178.16 22.3 178.64 22.17 179.02 21.91C179.41 21.65 179.6 21.31 179.6 20.89C179.6 20.24 179.13 19.8 178.2 19.57L176.14 19.08C175.49 18.92 174.88 18.61 174.29 18.15C173.71 17.7 173.42 17.08 173.42 16.31C173.42 15.43 173.82 14.71 174.62 14.16C175.41 13.61 176.36 13.34 177.46 13.34C178.36 13.34 179.16 13.54 179.87 13.94C180.57 14.34 181.08 14.91 181.39 15.66L179.72 16.33C179.35 15.45 178.57 15.01 177.39 15.01C176.82 15.01 176.35 15.12 175.96 15.35C175.57 15.58 175.37 15.9 175.37 16.29C175.37 16.86 175.83 17.25 176.73 17.45L178.74 17.92C179.7 18.14 180.41 18.51 180.87 19.04C181.32 19.57 181.55 20.17 181.55 20.83C181.55 21.73 181.18 22.47 180.43 23.07C179.68 23.67 178.72 23.97 177.54 23.97ZM187.28 23.8C186.21 23.8 185.4 23.53 184.83 22.97C184.27 22.41 183.99 21.63 183.99 20.61L183.99 15.37L182.2 15.37L182.2 13.66L183.99 13.66L183.99 10.61L185.91 10.61L185.91 13.66L188.4 13.66L188.4 15.37L185.91 15.37L185.91 20.46C185.91 21.55 186.36 22.09 187.28 22.09C187.62 22.09 187.92 22.04 188.15 21.93L188.82 23.54C188.4 23.72 187.89 23.8 187.28 23.8ZM193.98 23.97C192.84 23.97 191.9 23.7 191.16 23.15C190.42 22.61 189.88 21.93 189.53 21.12L191.24 20.42C191.78 21.67 192.7 22.3 194 22.3C194.6 22.3 195.09 22.17 195.47 21.91C195.85 21.65 196.04 21.31 196.04 20.89C196.04 20.24 195.58 19.8 194.65 19.57L192.59 19.08C191.94 18.92 191.32 18.61 190.74 18.15C190.15 17.7 189.86 17.08 189.86 16.31C189.86 15.43 190.26 14.71 191.06 14.16C191.86 13.61 192.8 13.34 193.9 13.34C194.8 13.34 195.6 13.54 196.31 13.94C197.02 14.34 197.52 14.91 197.83 15.66L196.17 16.33C195.79 15.45 195.01 15.01 193.84 15.01C193.27 15.01 192.79 15.12 192.4 15.35C192.01 15.58 191.82 15.9 191.82 16.29C191.82 16.86 192.27 17.25 193.17 17.45L195.19 17.92C196.14 18.14 196.85 18.51 197.31 19.04C197.77 19.57 198 20.17 198 20.83C198 21.73 197.62 22.47 196.87 23.07C196.12 23.67 195.16 23.97 193.98 23.97Z" fill="#14142B" fill-opacity="1.000000" fill-rule="evenodd"/>
	<path id="Vector" d="M46.81 15.61C46.81 11 50.76 7.26 55.47 7.26C58.07 7.26 59.92 8.26 61.32 9.56L59.66 11.17C58.67 10.25 57.32 9.53 55.47 9.53C52.04 9.53 49.36 12.24 49.36 15.59C49.36 18.95 52.04 21.65 55.47 21.65C57.7 21.65 58.96 20.78 59.78 19.98C60.44 19.33 60.88 18.39 61.04 17.12L55.47 17.12L55.47 14.85L63.32 14.85C63.4 15.26 63.45 15.74 63.45 16.28C63.45 18 62.98 20.11 61.43 21.61C59.92 23.13 58.01 23.95 55.47 23.95C50.76 23.95 46.81 20.21 46.81 15.61ZM69.7 13.3C72.74 13.3 75.21 15.56 75.21 18.68C75.21 21.78 72.74 24.06 69.7 24.06C66.67 24.06 64.2 21.78 64.2 18.68C64.2 15.56 66.67 13.3 69.7 13.3ZM69.7 21.92C71.36 21.92 72.81 20.59 72.81 18.66C72.81 16.72 71.36 15.4 69.7 15.4C68.03 15.4 66.6 16.72 66.6 18.66C66.6 20.59 68.05 21.92 69.7 21.92ZM81.73 13.3C84.77 13.3 87.24 15.56 87.24 18.68C87.24 21.78 84.77 24.06 81.73 24.06C78.69 24.06 76.22 21.78 76.22 18.68C76.22 15.56 78.69 13.3 81.73 13.3ZM81.73 21.92C83.39 21.92 84.83 20.59 84.83 18.66C84.83 16.72 83.4 15.4 81.73 15.4C80.06 15.4 78.63 16.72 78.63 18.66C78.63 20.59 80.07 21.92 81.73 21.92ZM96.48 13.48L98.79 13.48L98.79 23.13C98.79 27.11 96.4 28.73 93.58 28.73C90.91 28.73 89.3 26.98 88.7 25.55L90.8 24.69C91.17 25.57 92.08 26.6 93.56 26.6C95.36 26.6 96.48 25.5 96.48 23.45L96.48 22.67L96.4 22.67C95.87 23.32 94.83 23.9 93.51 23.9C90.76 23.9 88.25 21.54 88.25 18.54C88.25 15.5 90.76 13.14 93.51 13.14C94.83 13.14 95.87 13.72 96.4 14.35L96.48 14.35L96.48 13.48ZM93.72 21.78C95.36 21.78 96.66 20.43 96.65 18.54C96.65 16.64 95.36 15.26 93.72 15.26C92.06 15.26 90.67 16.64 90.67 18.54C90.67 20.41 92.06 21.78 93.72 21.78ZM100.43 23.69L100.43 7.89L102.84 7.89L102.84 23.69L100.43 23.69ZM109.45 21.92C110.69 21.92 111.53 21.34 112.16 20.45L114.03 21.67C113.42 22.55 111.97 24.06 109.45 24.06C106.33 24.06 104.01 21.69 104.01 18.68C104.01 15.48 106.36 13.3 109.19 13.3C112.03 13.3 113.43 15.51 113.89 16.72L114.13 17.33L106.79 20.3C107.36 21.37 108.22 21.92 109.45 21.92ZM109.27 15.37C108.04 15.37 106.33 16.44 106.4 18.5L111.3 16.52C111.04 15.83 110.23 15.37 109.27 15.37Z" fill="#14142B" fill-opacity="1.000000" fill-rule="nonzero"/>
</svg>
