<svg width="24.000000" height="24.000000" viewBox="0 0 24 24" fill="none" xmlns="http://www.w3.org/2000/svg" xmlns:xlink="http://www.w3.org/1999/xlink">
	<desc>
			Created with Pixso.
	</desc>
	<defs/>
	<path id="spotify" d="M12 0C9.62 0 7.3 0.7 5.33 2.02C3.35 3.34 1.82 5.21 0.91 7.4C0 9.6 -0.24 12.01 0.23 14.34C0.69 16.66 1.83 18.8 3.51 20.48C5.19 22.16 7.33 23.3 9.65 23.76C11.98 24.23 14.39 23.99 16.59 23.08C18.78 22.17 20.65 20.64 21.97 18.66C23.29 16.69 24 14.37 24 12C24 8.81 22.73 5.76 20.48 3.51C18.23 1.26 15.18 0 12 0ZM17.5 17.3C17.45 17.39 17.38 17.46 17.3 17.52C17.22 17.58 17.13 17.62 17.04 17.64C16.94 17.66 16.84 17.67 16.74 17.65C16.65 17.64 16.55 17.6 16.47 17.55C13.65 15.83 10.11 15.44 5.93 16.39C5.84 16.41 5.74 16.42 5.64 16.4C5.55 16.39 5.45 16.35 5.37 16.3C5.29 16.25 5.22 16.18 5.16 16.1C5.1 16.02 5.06 15.93 5.04 15.84C5.02 15.74 5.02 15.64 5.03 15.54C5.05 15.45 5.08 15.35 5.13 15.27C5.18 15.19 5.25 15.11 5.33 15.06C5.41 15 5.5 14.96 5.6 14.93C10.17 13.89 14.09 14.34 17.25 16.28C17.42 16.38 17.54 16.54 17.59 16.74C17.64 16.93 17.6 17.13 17.5 17.3ZM18.97 14.04C18.83 14.24 18.63 14.39 18.39 14.44C18.15 14.5 17.9 14.46 17.68 14.34C14.04 12.31 9.74 11.81 5.73 12.94C5.61 13.01 5.47 13.05 5.33 13.06C5.18 13.07 5.04 13.05 4.91 13C4.77 12.94 4.66 12.86 4.56 12.75C4.46 12.65 4.39 12.52 4.35 12.39C4.31 12.25 4.3 12.1 4.32 11.96C4.34 11.82 4.39 11.69 4.47 11.57C4.55 11.45 4.66 11.35 4.78 11.28C4.91 11.21 5.04 11.16 5.19 11.15C7.43 10.51 9.77 10.32 12.08 10.59C14.4 10.87 16.63 11.6 18.66 12.75C18.87 12.89 19.01 13.09 19.07 13.33C19.13 13.57 19.09 13.82 18.97 14.04ZM19.09 10.64C15.26 8.34 8.85 8.13 5.16 9.25C4.87 9.33 4.57 9.3 4.3 9.16C4.04 9.02 3.85 8.78 3.76 8.5C3.67 8.21 3.7 7.91 3.84 7.65C3.98 7.38 4.22 7.19 4.51 7.1C8.75 5.82 15.79 6.07 20.24 8.7C20.47 8.86 20.63 9.11 20.69 9.38C20.74 9.66 20.69 9.95 20.55 10.19C20.4 10.43 20.17 10.61 19.9 10.69C19.63 10.77 19.34 10.74 19.09 10.62L19.09 10.64Z" fill="#000000" fill-opacity="1.000000" fill-rule="nonzero"/>
</svg>
