<svg width="21.000000" height="15.000000" viewBox="0 0 21 15" fill="none" xmlns="http://www.w3.org/2000/svg" xmlns:xlink="http://www.w3.org/1999/xlink">
	<desc>
			Created with Pixso.
	</desc>
	<defs/>
	<path id="Subtract" d="M0.18335 2.95605C0.279785 1.47168 1.47296 0.308594 2.95837 0.234863C5.10931 0.128418 8.18359 0 10.5 0C12.8164 0 15.8907 0.128418 18.0416 0.234863C19.527 0.308594 20.7202 1.47168 20.8167 2.95605C20.909 4.37793 21 6.12744 21 7.5C21 8.87256 20.909 10.6221 20.8167 12.0439C20.7202 13.5283 19.527 14.6914 18.0416 14.7651C15.8907 14.8716 12.8164 15 10.5 15C8.18359 15 5.10931 14.8716 2.95837 14.7651C1.47296 14.6914 0.279785 13.5283 0.18335 12.0439C0.0910034 10.6221 0 8.87256 0 7.5C0 6.12744 0.0910034 4.37793 0.18335 2.95605ZM14.25 7.5L8.25 4.5L8.25 10.5L14.25 7.5Z" clip-rule="evenodd" fill="#000000" fill-opacity="1.000000" fill-rule="evenodd"/>
</svg>
