<svg width="18.000427" height="18.000427" viewBox="0 0 18.0004 18.0004" fill="none" xmlns="http://www.w3.org/2000/svg" xmlns:xlink="http://www.w3.org/1999/xlink">
	<desc>
			Created with Pixso.
	</desc>
	<defs/>
	<path id="Vector" d="M9 1C7.41 1 5.87 1.46 4.55 2.34C3.24 3.22 2.21 4.47 1.6 5.93C1 7.4 0.84 9 1.15 10.56C1.46 12.11 2.22 13.53 3.34 14.65C4.46 15.77 5.88 16.53 7.43 16.84C8.99 17.15 10.6 16.99 12.06 16.39C13.52 15.78 14.77 14.76 15.65 13.44C16.53 12.12 17 10.58 17 9C17 6.87 16.15 4.84 14.65 3.34C13.15 1.84 11.12 1 9 1ZM12.67 12.53C12.63 12.59 12.59 12.64 12.53 12.68C12.48 12.72 12.42 12.74 12.36 12.76C12.29 12.77 12.23 12.78 12.16 12.77C12.1 12.76 12.03 12.73 11.98 12.7C10.1 11.55 7.74 11.29 4.95 11.93C4.89 11.94 4.82 11.94 4.76 11.93C4.7 11.92 4.63 11.9 4.58 11.86C4.52 11.83 4.48 11.79 4.44 11.73C4.4 11.68 4.37 11.62 4.36 11.56C4.34 11.49 4.34 11.43 4.35 11.36C4.36 11.3 4.39 11.23 4.42 11.18C4.46 11.12 4.5 11.07 4.55 11.04C4.61 11 4.67 10.97 4.73 10.96C7.78 10.26 10.39 10.56 12.5 11.85C12.61 11.92 12.69 12.03 12.72 12.16C12.76 12.28 12.74 12.42 12.67 12.53ZM13.64 10.35C13.55 10.49 13.42 10.59 13.26 10.63C13.1 10.67 12.93 10.64 12.79 10.56C10.36 9.21 7.49 8.87 4.82 9.63C4.74 9.67 4.64 9.7 4.55 9.71C4.45 9.71 4.36 9.7 4.27 9.66C4.18 9.63 4.1 9.57 4.04 9.5C3.97 9.43 3.93 9.35 3.9 9.26C3.87 9.16 3.86 9.07 3.88 8.97C3.89 8.88 3.93 8.79 3.98 8.71C4.03 8.63 4.1 8.57 4.19 8.52C4.27 8.47 4.36 8.44 4.46 8.43C5.95 8 7.51 7.88 9.06 8.06C10.6 8.24 12.09 8.73 13.44 9.5C13.58 9.59 13.67 9.73 13.71 9.89C13.75 10.05 13.73 10.21 13.64 10.35ZM13.73 8.09C11.17 6.56 6.9 6.42 4.44 7.16C4.25 7.22 4.04 7.2 3.87 7.11C3.69 7.01 3.56 6.85 3.5 6.66C3.45 6.47 3.47 6.27 3.56 6.1C3.65 5.92 3.81 5.79 4 5.73C6.83 4.88 11.52 5.04 14.49 6.8C14.65 6.91 14.75 7.07 14.79 7.25C14.83 7.44 14.8 7.63 14.7 7.79C14.6 7.95 14.45 8.07 14.27 8.12C14.09 8.18 13.89 8.16 13.73 8.08L13.73 8.09Z" fill="#1ED760" fill-opacity="1.000000" fill-rule="nonzero"/>
	<path id="Vector" d="M5.15 0.86Q4.55 1.14 4 1.51L4 1.51Q3.44 1.88 2.95 2.33Q2.46 2.77 2.04 3.29Q1.61 3.8 1.28 4.37Q0.94 4.93 0.68 5.55Q0.42 6.17 0.26 6.81Q0.1 7.45 0.04 8.11Q-0.03 8.78 0.01 9.44Q0.04 10.1 0.17 10.75Q0.3 11.41 0.52 12.03Q0.74 12.65 1.06 13.24Q1.37 13.83 1.77 14.36Q2.16 14.89 2.63 15.36Q3.1 15.83 3.63 16.22Q4.16 16.62 4.75 16.93Q5.34 17.25 5.96 17.47Q6.59 17.69 7.24 17.82Q7.89 17.95 8.55 17.98Q9.21 18.02 9.88 17.95Q10.54 17.89 11.18 17.73Q11.82 17.57 12.44 17.31Q13.06 17.05 13.62 16.71Q14.19 16.38 14.71 15.95Q15.22 15.53 15.66 15.04Q16.11 14.55 16.48 14Q16.85 13.44 17.13 12.84Q17.41 12.25 17.61 11.61Q17.8 10.97 17.9 10.32Q18 9.66 18 9Q18 8.1 17.82 7.24Q17.65 6.38 17.31 5.55Q16.97 4.72 16.48 3.99Q15.99 3.26 15.36 2.63Q14.73 2 14 1.51Q13.27 1.02 12.44 0.68Q11.61 0.34 10.75 0.17Q9.89 0 9 0Q8.33 0 7.67 0.09Q7.02 0.19 6.38 0.38Q5.74 0.58 5.15 0.86ZM9 1C7.41 1 5.87 1.46 4.55 2.34C3.24 3.22 2.21 4.47 1.6 5.93C1 7.4 0.84 9 1.15 10.56C1.46 12.11 2.22 13.53 3.34 14.65C4.46 15.77 5.88 16.53 7.43 16.84C8.99 17.15 10.6 16.99 12.06 16.39C13.52 15.78 14.77 14.76 15.65 13.44C16.53 12.12 17 10.58 17 9C17 6.87 16.15 4.84 14.65 3.34C13.15 1.84 11.12 1 9 1ZM14.39 8.08C14.52 8.01 14.62 7.91 14.7 7.79C14.8 7.63 14.83 7.44 14.79 7.25C14.75 7.07 14.65 6.91 14.49 6.8C11.52 5.04 6.83 4.88 4 5.73C3.81 5.79 3.65 5.92 3.56 6.1C3.47 6.27 3.45 6.47 3.5 6.66C3.56 6.85 3.69 7.01 3.87 7.11C4.04 7.2 4.25 7.22 4.44 7.16C6.6 6.51 10.16 6.54 12.73 7.59C13.08 7.74 13.41 7.9 13.72 8.09C13.72 8.09 13.72 8.09 13.73 8.09L13.73 8.08C13.73 8.08 13.73 8.08 13.73 8.08C13.9 8.16 14.09 8.18 14.27 8.12C14.31 8.11 14.35 8.09 14.39 8.08ZM4.46 8.43C4.36 8.44 4.27 8.47 4.19 8.52C4.1 8.57 4.03 8.63 3.98 8.71C3.93 8.79 3.89 8.88 3.88 8.97C3.86 9.07 3.87 9.16 3.9 9.26C3.93 9.35 3.97 9.43 4.04 9.5C4.1 9.57 4.18 9.63 4.27 9.66C4.36 9.7 4.45 9.71 4.55 9.71C4.64 9.7 4.74 9.67 4.82 9.63C7.49 8.87 10.36 9.21 12.79 10.56C12.93 10.64 13.1 10.67 13.26 10.63C13.42 10.59 13.55 10.49 13.64 10.35C13.73 10.21 13.75 10.05 13.71 9.89C13.67 9.73 13.58 9.59 13.44 9.5C12.09 8.73 10.6 8.24 9.06 8.06C7.51 7.88 5.95 8 4.46 8.43ZM13.28 9.69Q13.28 9.69 13.29 9.69Q13.28 9.69 13.28 9.69ZM12.46 11.82C10.37 10.56 7.79 10.27 4.8 10.94C4.77 10.95 4.75 10.95 4.73 10.96C4.67 10.97 4.61 11 4.55 11.04C4.5 11.07 4.46 11.12 4.42 11.18C4.39 11.23 4.36 11.3 4.35 11.36C4.34 11.43 4.34 11.49 4.36 11.56C4.37 11.62 4.4 11.68 4.44 11.73C4.48 11.79 4.52 11.83 4.58 11.86C4.63 11.9 4.7 11.92 4.76 11.93C4.82 11.94 4.89 11.94 4.95 11.93C4.97 11.92 5 11.92 5.02 11.91C5.75 11.75 6.45 11.65 7.12 11.61C8.21 11.54 9.22 11.64 10.14 11.9C10.78 12.08 11.38 12.34 11.94 12.67C11.95 12.68 11.96 12.69 11.98 12.7C12.03 12.73 12.1 12.76 12.16 12.77C12.23 12.78 12.29 12.77 12.36 12.76C12.42 12.74 12.48 12.72 12.53 12.68C12.59 12.64 12.63 12.59 12.67 12.53C12.74 12.42 12.76 12.28 12.72 12.16C12.69 12.03 12.61 11.92 12.5 11.85C12.49 11.84 12.47 11.83 12.46 11.82Z" fill="#000000" fill-opacity="1.000000" fill-rule="evenodd"/>
</svg>
