<svg width="16.000000" height="16.000000" viewBox="0 0 16 16" fill="none" xmlns="http://www.w3.org/2000/svg" xmlns:xlink="http://www.w3.org/1999/xlink">
	<desc>
			Created with Pixso.
	</desc>
	<defs/>
	<path id="Vector" d="M7 5.09L7 7.51L7 8.48L7 10.9L9 10.9L9 8.48L9 7.51L9 5.09L7 5.09Z" fill="#FAB908" fill-opacity="1.000000" fill-rule="nonzero"/>
	<path id="Vector" d="M1 8.45C1.55 8.45 2 8 2 7.45C2 6.9 1.55 6.45 1 6.45C0.44 6.45 0 6.9 0 7.45C0 8 0.44 8.45 1 8.45Z" fill="#0066D9" fill-opacity="1.000000" fill-rule="nonzero"/>
	<path id="Vector" d="M1 9.54C1.55 9.54 2 9.09 2 8.54C2 7.99 1.55 7.54 1 7.54C0.44 7.54 0 7.99 0 8.54C0 9.09 0.44 9.54 1 9.54Z" fill="#0066D9" fill-opacity="1.000000" fill-rule="nonzero"/>
	<path id="Vector" d="M2 7.45L0 7.45L0 8.54L2 8.54L2 7.45Z" fill="#0066D9" fill-opacity="1.000000" fill-rule="nonzero"/>
	<path id="Vector" d="M15 9.54C15.55 9.54 16 9.09 16 8.54C16 7.99 15.55 7.54 15 7.54C14.44 7.54 14 7.99 14 8.54C14 9.09 14.44 9.54 15 9.54Z" fill="#4285F4" fill-opacity="1.000000" fill-rule="nonzero"/>
	<path id="Vector" d="M15 8.45C15.55 8.45 16 8 16 7.45C16 6.9 15.55 6.45 15 6.45C14.44 6.45 14 6.9 14 7.45C14 8 14.44 8.45 15 8.45Z" fill="#4285F4" fill-opacity="1.000000" fill-rule="nonzero"/>
	<path id="Vector" d="M14 8.54L16 8.54L16 7.45L14 7.45L14 8.54Z" fill="#4285F4" fill-opacity="1.000000" fill-rule="nonzero"/>
	<path id="Vector" d="M4.45 11.72C5 11.72 5.45 11.27 5.45 10.72C5.45 10.17 5 9.72 4.45 9.72C3.9 9.72 3.45 10.17 3.45 10.72C3.45 11.27 3.9 11.72 4.45 11.72Z" fill="#EA4335" fill-opacity="1.000000" fill-rule="nonzero"/>
	<path id="Vector" d="M4.45 12.81C5 12.81 5.45 12.37 5.45 11.81C5.45 11.26 5 10.81 4.45 10.81C3.9 10.81 3.45 11.26 3.45 11.81C3.45 12.37 3.9 12.81 4.45 12.81Z" fill="#EA4335" fill-opacity="1.000000" fill-rule="nonzero"/>
	<path id="Vector" d="M5.45 10.72L3.45 10.72L3.45 11.81L5.45 11.81L5.45 10.72Z" fill="#EA4335" fill-opacity="1.000000" fill-rule="nonzero"/>
	<path id="Vector" d="M4.45 5.18C5 5.18 5.45 4.73 5.45 4.18C5.45 3.62 5 3.18 4.45 3.18C3.9 3.18 3.45 3.62 3.45 4.18C3.45 4.73 3.9 5.18 4.45 5.18Z" fill="#EA4335" fill-opacity="1.000000" fill-rule="nonzero"/>
	<path id="Vector" d="M4.45 8.72C5 8.72 5.45 8.27 5.45 7.72C5.45 7.17 5 6.72 4.45 6.72C3.9 6.72 3.45 7.17 3.45 7.72C3.45 8.27 3.9 8.72 4.45 8.72Z" fill="#EA4335" fill-opacity="1.000000" fill-rule="nonzero"/>
	<path id="Vector" d="M5.45 4.18L3.45 4.18L3.45 7.74L5.45 7.74L5.45 4.18Z" fill="#EA4335" fill-opacity="1.000000" fill-rule="nonzero"/>
	<path id="Vector" d="M11.54 6.27C12.09 6.27 12.54 5.82 12.54 5.27C12.54 4.72 12.09 4.27 11.54 4.27C10.99 4.27 10.54 4.72 10.54 5.27C10.54 5.82 10.99 6.27 11.54 6.27Z" fill="#34A853" fill-opacity="1.000000" fill-rule="nonzero"/>
	<path id="Vector" d="M11.54 5.18C12.09 5.18 12.54 4.73 12.54 4.18C12.54 3.62 12.09 3.18 11.54 3.18C10.99 3.18 10.54 3.62 10.54 4.18C10.54 4.73 10.99 5.18 11.54 5.18Z" fill="#34A853" fill-opacity="1.000000" fill-rule="nonzero"/>
	<path id="Vector" d="M10.54 5.27L12.54 5.27L12.54 4.18L10.54 4.18L10.54 5.27Z" fill="#34A853" fill-opacity="1.000000" fill-rule="nonzero"/>
	<path id="Vector" d="M8 3.09C8.55 3.09 9 2.64 9 2.09C9 1.53 8.55 1.09 8 1.09C7.44 1.09 7 1.53 7 2.09C7 2.64 7.44 3.09 8 3.09Z" fill="#FAB908" fill-opacity="1.000000" fill-rule="nonzero"/>
	<path id="Vector" d="M7.99 2C8.55 2 9 1.55 9 1C9 0.44 8.55 0 7.99 0C7.44 0 6.99 0.44 6.99 1C6.99 1.55 7.44 2 7.99 2Z" fill="#FAB908" fill-opacity="1.000000" fill-rule="nonzero"/>
	<path id="Vector" d="M7 2.09L9 2.09L9 1L7 1L7 2.09Z" fill="#FAB908" fill-opacity="1.000000" fill-rule="nonzero"/>
	<path id="Vector" d="M8 16C8.55 16 9 15.55 9 15C9 14.44 8.55 14 8 14C7.44 14 7 14.44 7 15C7 15.55 7.44 16 8 16Z" fill="#FAB908" fill-opacity="1.000000" fill-rule="nonzero"/>
	<path id="Vector" d="M8 14.9C8.55 14.9 9 14.46 9 13.9C9 13.35 8.55 12.9 8 12.9C7.44 12.9 7 13.35 7 13.9C7 14.46 7.44 14.9 8 14.9Z" fill="#FAB908" fill-opacity="1.000000" fill-rule="nonzero"/>
	<path id="Vector" d="M7 15L9 15L9 13.9L7 13.9L7 15Z" fill="#FAB908" fill-opacity="1.000000" fill-rule="nonzero"/>
	<path id="Vector" d="M11.54 12.81C12.09 12.81 12.54 12.37 12.54 11.81C12.54 11.26 12.09 10.81 11.54 10.81C10.99 10.81 10.54 11.26 10.54 11.81C10.54 12.37 10.99 12.81 11.54 12.81Z" fill="#34A853" fill-opacity="1.000000" fill-rule="nonzero"/>
	<path id="Vector" d="M11.54 9.27C12.09 9.27 12.54 8.82 12.54 8.27C12.54 7.72 12.09 7.27 11.54 7.27C10.99 7.27 10.54 7.72 10.54 8.27C10.54 8.82 10.99 9.27 11.54 9.27Z" fill="#34A853" fill-opacity="1.000000" fill-rule="nonzero"/>
	<path id="Vector" d="M10.54 11.81L12.54 11.81L12.54 8.27L10.54 8.27L10.54 11.81Z" fill="#34A853" fill-opacity="1.000000" fill-rule="nonzero"/>
	<path id="Vector" d="M8 6.09C8.55 6.09 9 5.64 9 5.09C9 4.53 8.55 4.09 8 4.09C7.44 4.09 7 4.53 7 5.09C7 5.64 7.44 6.09 8 6.09Z" fill="#FAB908" fill-opacity="1.000000" fill-rule="nonzero"/>
	<path id="Vector" d="M8 11.9C8.55 11.9 9 11.46 9 10.9C9 10.35 8.55 9.9 8 9.9C7.44 9.9 7 10.35 7 10.9C7 11.46 7.44 11.9 8 11.9Z" fill="#FAB908" fill-opacity="1.000000" fill-rule="nonzero"/>
</svg>
