<svg width="128.000000" height="34.000000" viewBox="0 0 128 34" fill="none" xmlns="http://www.w3.org/2000/svg" xmlns:xlink="http://www.w3.org/1999/xlink">
	<desc>
			Created with Pixso.
	</desc>
	<defs/>
	<path id="Spotify" d="M17.23 0C13.82 0 10.49 0.99 7.66 2.86C4.82 4.73 2.61 7.38 1.31 10.49C0 13.6 -0.34 17.01 0.33 20.31C0.99 23.61 2.63 26.64 5.04 29.02C7.45 31.39 10.53 33.01 13.87 33.67C17.21 34.32 20.68 33.99 23.83 32.7C26.98 31.41 29.67 29.24 31.57 26.44C33.46 23.64 34.47 20.36 34.47 17C34.47 12.49 32.65 8.16 29.42 4.97C26.19 1.79 21.8 0 17.23 0ZM25.14 24.51C25.07 24.63 24.97 24.74 24.86 24.82C24.74 24.9 24.61 24.96 24.47 24.99C24.34 25.03 24.19 25.03 24.05 25.01C23.91 24.99 23.78 24.94 23.66 24.86C19.61 22.42 14.52 21.88 8.52 23.22C8.39 23.25 8.25 23.26 8.11 23.24C7.97 23.22 7.84 23.17 7.72 23.09C7.6 23.02 7.5 22.92 7.41 22.81C7.33 22.7 7.28 22.57 7.25 22.44C7.21 22.3 7.21 22.16 7.23 22.02C7.25 21.88 7.3 21.75 7.38 21.63C7.45 21.52 7.55 21.41 7.66 21.33C7.78 21.25 7.91 21.19 8.04 21.16C14.61 19.68 20.25 20.32 24.79 23.06C25.03 23.21 25.2 23.44 25.27 23.71C25.34 23.98 25.29 24.27 25.14 24.51ZM27.25 19.88C27.06 20.18 26.76 20.38 26.41 20.46C26.07 20.55 25.71 20.49 25.4 20.32C20.17 17.44 14 16.73 8.24 18.34C8.06 18.44 7.86 18.49 7.65 18.51C7.45 18.52 7.24 18.49 7.05 18.41C6.86 18.34 6.69 18.22 6.55 18.07C6.41 17.92 6.31 17.74 6.25 17.55C6.19 17.36 6.17 17.15 6.21 16.95C6.24 16.75 6.31 16.56 6.43 16.39C6.54 16.22 6.69 16.08 6.87 15.98C7.05 15.88 7.25 15.82 7.45 15.8C10.67 14.89 14.04 14.62 17.36 15.01C20.69 15.4 23.9 16.44 26.81 18.07C27.1 18.26 27.31 18.55 27.4 18.89C27.48 19.23 27.42 19.58 27.25 19.88ZM27.43 15.07C21.92 11.81 12.72 11.51 7.41 13.1C7 13.22 6.56 13.18 6.18 12.98C5.81 12.78 5.53 12.45 5.4 12.04C5.28 11.64 5.32 11.2 5.52 10.83C5.72 10.46 6.07 10.18 6.47 10.06C12.57 8.24 22.68 8.6 29.08 12.33C29.41 12.56 29.63 12.91 29.72 13.3C29.8 13.69 29.73 14.09 29.52 14.44C29.31 14.78 28.98 15.03 28.59 15.14C28.21 15.25 27.79 15.22 27.43 15.04L27.43 15.07Z" fill="#1ED760" fill-opacity="1.000000" fill-rule="nonzero"/>
	<path id="Vector" d="M52.46 14.3C49.15 13.51 48.56 12.94 48.56 11.83C48.56 10.72 49.59 10.01 51.13 10.01C52.79 10.07 54.37 10.67 55.65 11.71C55.67 11.72 55.7 11.73 55.73 11.73C55.76 11.73 55.79 11.72 55.81 11.71C55.87 11.7 55.92 11.67 55.95 11.63L57.57 9.38C57.61 9.34 57.62 9.28 57.62 9.23C57.62 9.18 57.61 9.13 57.57 9.09C55.78 7.65 53.53 6.88 51.22 6.92C47.65 6.92 45.16 9.04 45.16 12.05C45.16 15.29 47.31 16.44 51.02 17.33C54.19 18.05 54.72 18.68 54.72 19.73C54.72 20.77 53.64 21.65 51.97 21.65C50.01 21.64 48.12 20.87 46.72 19.51C46.67 19.49 46.61 19.49 46.55 19.51C46.5 19.52 46.44 19.55 46.4 19.59L44.56 21.69C44.52 21.74 44.5 21.79 44.5 21.84C44.5 21.9 44.52 21.95 44.56 21.99C46.56 23.76 49.16 24.73 51.85 24.71C55.69 24.71 58.18 22.63 58.18 19.43C58.12 16.76 56.47 15.26 52.46 14.3Z" fill="#000000" fill-opacity="1.000000" fill-rule="nonzero"/>
	<path id="Vector" d="M66.82 11.09C66.02 11.08 65.24 11.26 64.52 11.6C63.81 11.94 63.18 12.44 62.69 13.05L62.69 11.56C62.69 11.5 62.66 11.45 62.62 11.42C62.58 11.38 62.53 11.36 62.47 11.36L59.49 11.36C59.43 11.36 59.38 11.38 59.33 11.42C59.29 11.45 59.27 11.5 59.26 11.56L59.26 28.11C59.26 28.17 59.29 28.23 59.33 28.27C59.37 28.31 59.43 28.33 59.49 28.33L62.44 28.33C62.5 28.33 62.56 28.31 62.6 28.27C62.64 28.23 62.66 28.17 62.66 28.11L62.66 22.92C63.17 23.51 63.8 23.98 64.52 24.3C65.23 24.62 66.01 24.78 66.79 24.77C69.89 24.77 73.02 22.43 73.02 17.92C73.02 13.42 69.91 11.09 66.82 11.09ZM69.57 17.87C69.62 18.35 69.57 18.84 69.42 19.31C69.27 19.77 69.02 20.2 68.7 20.57C68.37 20.93 67.97 21.23 67.52 21.44C67.07 21.64 66.58 21.75 66.09 21.76C65.59 21.75 65.11 21.63 64.65 21.43C64.2 21.22 63.8 20.93 63.47 20.56C63.14 20.2 62.88 19.77 62.72 19.31C62.56 18.85 62.5 18.36 62.54 17.87C62.5 17.38 62.57 16.89 62.73 16.43C62.89 15.97 63.14 15.55 63.48 15.18C63.81 14.82 64.21 14.53 64.66 14.32C65.11 14.12 65.59 14 66.09 13.99C66.59 14 67.08 14.11 67.54 14.32C67.99 14.52 68.4 14.82 68.73 15.19C69.06 15.56 69.31 15.99 69.46 16.47C69.61 16.94 69.66 17.43 69.61 17.92L69.57 17.87Z" fill="#000000" fill-opacity="1.000000" fill-rule="nonzero"/>
	<path id="Vector" d="M81.08 11.09C79.71 11.11 78.37 11.53 77.24 12.31C76.11 13.08 75.24 14.16 74.73 15.43C74.23 16.69 74.11 18.07 74.4 19.39C74.69 20.72 75.37 21.93 76.36 22.87C77.35 23.82 78.59 24.45 79.95 24.7C81.3 24.95 82.69 24.79 83.96 24.26C85.22 23.72 86.29 22.83 87.04 21.69C87.79 20.55 88.18 19.22 88.17 17.87C88.16 16.96 87.96 16.07 87.6 15.24C87.24 14.41 86.71 13.66 86.05 13.03C85.39 12.4 84.62 11.9 83.76 11.57C82.91 11.23 82 11.07 81.08 11.09ZM81.08 21.84C80.58 21.84 80.07 21.73 79.61 21.53C79.14 21.32 78.73 21.03 78.38 20.66C78.03 20.3 77.76 19.87 77.59 19.4C77.42 18.92 77.34 18.42 77.37 17.92C77.34 17.43 77.41 16.93 77.58 16.47C77.75 16 78.01 15.58 78.35 15.22C78.7 14.86 79.11 14.57 79.57 14.37C80.03 14.17 80.53 14.07 81.03 14.07C81.54 14.07 82.04 14.18 82.51 14.38C82.98 14.58 83.4 14.87 83.75 15.23C84.1 15.6 84.37 16.03 84.55 16.5C84.73 16.97 84.81 17.47 84.78 17.98C84.82 18.47 84.74 18.97 84.57 19.44C84.4 19.91 84.13 20.34 83.79 20.7C83.44 21.07 83.02 21.35 82.55 21.55C82.09 21.75 81.59 21.85 81.08 21.84Z" fill="#000000" fill-opacity="1.000000" fill-rule="nonzero"/>
	<path id="Vector" d="M96.68 11.36L93.42 11.36L93.42 8.07C93.42 8.02 93.4 7.96 93.36 7.92C93.33 7.88 93.27 7.86 93.22 7.86L90.26 7.86C90.2 7.86 90.15 7.88 90.1 7.92C90.06 7.96 90.04 8.02 90.04 8.07L90.04 11.36L88.58 11.36C88.55 11.36 88.53 11.36 88.5 11.37C88.48 11.38 88.45 11.4 88.44 11.42C88.42 11.44 88.4 11.46 88.39 11.48C88.38 11.51 88.38 11.53 88.38 11.56L88.38 14.07C88.38 14.13 88.4 14.18 88.43 14.22C88.47 14.26 88.53 14.28 88.58 14.29L89.96 14.29L89.96 20.77C89.96 23.39 91.33 24.72 93.89 24.72C94.85 24.75 95.81 24.51 96.64 24.04C96.68 24.03 96.71 24 96.72 23.97C96.74 23.94 96.75 23.9 96.75 23.87L96.75 21.48C96.75 21.44 96.75 21.4 96.73 21.37C96.71 21.34 96.69 21.31 96.66 21.29C96.62 21.27 96.59 21.26 96.55 21.26C96.51 21.26 96.47 21.27 96.44 21.29C95.9 21.56 95.31 21.7 94.7 21.7C93.75 21.7 93.33 21.27 93.33 20.34L93.33 14.29L96.59 14.29C96.65 14.29 96.7 14.26 96.74 14.22C96.78 14.18 96.81 14.13 96.81 14.07L96.81 11.56C96.81 11.52 96.8 11.48 96.78 11.44C96.75 11.4 96.72 11.38 96.68 11.36Z" fill="#000000" fill-opacity="1.000000" fill-rule="nonzero"/>
	<path id="Vector" d="M108.03 11.37L108.03 10.96C108.03 9.77 108.49 9.24 109.52 9.24C110.09 9.25 110.66 9.35 111.2 9.55C111.23 9.57 111.26 9.57 111.29 9.57C111.33 9.57 111.36 9.57 111.39 9.55C111.42 9.53 111.44 9.5 111.45 9.47C111.47 9.44 111.47 9.41 111.47 9.38L111.47 6.89C111.48 6.85 111.46 6.8 111.44 6.76C111.41 6.72 111.37 6.69 111.32 6.68C110.52 6.47 109.69 6.38 108.86 6.41C106.11 6.41 104.73 7.92 104.73 10.79L104.73 11.41L103.36 11.41C103.3 11.41 103.25 11.43 103.21 11.47C103.17 11.51 103.15 11.56 103.15 11.61L103.15 14.14C103.15 14.19 103.17 14.25 103.21 14.29C103.25 14.33 103.3 14.35 103.36 14.36L104.73 14.36L104.73 24.37C104.73 24.42 104.75 24.47 104.79 24.51C104.83 24.55 104.88 24.57 104.94 24.57L107.84 24.57C107.9 24.57 107.95 24.55 107.99 24.51C108.03 24.48 108.06 24.42 108.06 24.37L108.06 14.29L110.81 14.29L115.05 24.29C114.57 25.35 114.09 25.55 113.44 25.55C112.87 25.53 112.31 25.38 111.82 25.1C111.79 25.09 111.76 25.08 111.73 25.08C111.7 25.08 111.67 25.09 111.64 25.1C111.61 25.11 111.59 25.12 111.56 25.14C111.54 25.16 111.53 25.18 111.51 25.21L110.59 27.37C110.57 27.42 110.57 27.47 110.59 27.52C110.61 27.57 110.64 27.61 110.69 27.64C111.65 28.18 112.74 28.46 113.85 28.44C116.03 28.44 117.24 27.43 118.31 24.73L123.44 11.66C123.46 11.62 123.47 11.59 123.47 11.55C123.47 11.52 123.46 11.48 123.44 11.45C123.42 11.43 123.39 11.4 123.36 11.39C123.33 11.38 123.3 11.37 123.26 11.37L120.1 11.37C120.06 11.37 120.01 11.39 119.98 11.41C119.94 11.44 119.91 11.47 119.89 11.51L116.74 20.39L113.34 11.51C113.33 11.47 113.3 11.43 113.26 11.41C113.23 11.38 113.18 11.37 113.14 11.37L108.03 11.37Z" fill="#000000" fill-opacity="1.000000" fill-rule="nonzero"/>
	<path id="Vector" d="M101.46 11.36L98.5 11.36C98.38 11.36 98.28 11.45 98.28 11.57L98.28 24.3C98.28 24.42 98.38 24.52 98.5 24.52L101.46 24.52C101.58 24.52 101.68 24.42 101.68 24.3L101.68 11.57C101.68 11.45 101.58 11.36 101.46 11.36Z" fill="#000000" fill-opacity="1.000000" fill-rule="nonzero"/>
	<path id="Vector" d="M99.99 5.55C99.56 5.55 99.15 5.67 98.8 5.9C98.44 6.13 98.17 6.46 98.01 6.84C97.84 7.22 97.8 7.65 97.88 8.06C97.96 8.46 98.16 8.84 98.46 9.14C98.76 9.43 99.14 9.63 99.55 9.71C99.96 9.8 100.39 9.76 100.79 9.6C101.18 9.44 101.51 9.17 101.74 8.82C101.98 8.48 102.11 8.07 102.11 7.65C102.11 7.38 102.05 7.1 101.95 6.85C101.84 6.59 101.69 6.36 101.49 6.17C101.29 5.97 101.06 5.82 100.8 5.71C100.54 5.6 100.27 5.55 99.99 5.55Z" fill="#000000" fill-opacity="1.000000" fill-rule="nonzero"/>
	<path id="Vector" d="M125.9 15.44C125.63 15.44 125.36 15.39 125.11 15.29C124.85 15.19 124.63 15.04 124.43 14.84C124.24 14.65 124.09 14.43 123.98 14.18C123.88 13.93 123.83 13.66 123.83 13.39C123.83 12.84 124.05 12.32 124.44 11.93C124.83 11.55 125.36 11.33 125.92 11.33C126.19 11.33 126.46 11.38 126.72 11.48C126.97 11.58 127.2 11.74 127.39 11.93C127.58 12.12 127.74 12.34 127.84 12.59C127.95 12.84 128 13.11 128 13.38C128 13.93 127.78 14.45 127.38 14.84C126.99 15.22 126.46 15.44 125.9 15.44ZM125.9 11.53C125.53 11.53 125.16 11.64 124.85 11.84C124.54 12.04 124.3 12.33 124.15 12.67C124.01 13.01 123.97 13.39 124.04 13.75C124.11 14.11 124.29 14.45 124.56 14.71C124.82 14.97 125.16 15.14 125.53 15.22C125.89 15.29 126.27 15.25 126.62 15.11C126.96 14.96 127.26 14.72 127.46 14.42C127.67 14.11 127.78 13.75 127.78 13.38C127.78 13.14 127.73 12.9 127.64 12.67C127.55 12.45 127.41 12.25 127.24 12.07C127.06 11.9 126.86 11.77 126.63 11.67C126.41 11.58 126.16 11.53 125.92 11.53L125.9 11.53ZM126.37 13.6L126.95 14.41L126.46 14.41L125.93 13.66L125.48 13.66L125.48 14.41L125.05 14.41L125.05 12.25L126.03 12.25C126.54 12.25 126.88 12.51 126.88 12.93C126.88 13.08 126.84 13.23 126.75 13.35C126.66 13.47 126.53 13.55 126.39 13.6L126.37 13.6ZM126.01 12.62L125.48 12.62L125.48 13.3L126.01 13.3C126.29 13.3 126.46 13.17 126.46 12.96C126.46 12.74 126.3 12.62 126.03 12.62L126.01 12.62Z" fill="#000000" fill-opacity="1.000000" fill-rule="nonzero"/>
</svg>
