<svg width="78.000000" height="78.000000" viewBox="0 0 78 78" fill="none" xmlns="http://www.w3.org/2000/svg" xmlns:xlink="http://www.w3.org/1999/xlink">
	<desc>
			Created with Pixso.
	</desc>
	<defs>
		<clipPath id="clip301_544">
			<rect id="Shining stars" rx="-0.162500" width="77.675003" height="77.675003" transform="translate(0.162500 0.162500) rotate(0.000000)" fill="white" fill-opacity="0"/>
		</clipPath>
	</defs>
	<rect id="Shining stars" rx="-0.162500" width="77.675003" height="77.675003" transform="translate(0.162500 0.162500) rotate(0.000000)" fill="#FFFFFF" fill-opacity="0"/>
	<g clip-path="url(#clip301_544)">
		<path id="Vector" d="M69.65 24.74C70.07 25.2 70.13 25.87 69.8 26.42C69.5 26.92 69.25 27.35 68.95 27.76C65.86 32.03 64.17 34.27 61.12 38.58C60.35 39.66 58.48 42.98 57.76 44.11C57.75 44.13 57.75 44.14 57.74 44.15C57.09 45.13 55.49 45.06 54.97 43.99C54.97 43.99 54.97 43.98 54.96 43.98C54.2 42.31 53.59 40.59 52.89 38.9C50.95 34.23 48.26 30.18 43.78 27.53C42.15 26.56 42.12 25.86 43.38 24.47C43.86 23.95 44.33 23.42 44.85 22.96C49.81 18.53 53.24 13.06 55.8 6.97C55.96 6.59 56.29 6.29 56.64 5.99C57.1 5.62 57.76 5.67 58.17 6.1C58.51 6.45 58.82 6.83 59.01 7.25C59.43 8.23 59.54 9.33 59.8 10.37C61.18 16.04 64.25 20.56 68.92 24.05C69.18 24.23 69.41 24.48 69.65 24.74ZM57.21 11.14C55.6 13.82 54.24 16.58 52.4 18.99C50.52 21.45 48.16 23.53 46.01 25.79C51.48 29.07 54.65 34.26 56.56 40.62C59.36 34.82 63.23 30.22 67.49 25.91C60.77 20.8 59.17 18.48 57.21 11.14Z" fill="#000000" fill-opacity="1.000000" fill-rule="nonzero"/>
		<path id="Vector" d="M18.59 71.47C17.36 67.97 16.29 64.41 14.93 60.97C13.6 57.64 11.63 54.68 8.78 52.39C7.74 51.55 7.77 50.79 8.62 49.84C13.41 44.63 17.1 38.72 19.74 32.16C20.02 31.45 20.78 30.33 21.31 30.33C22.75 29.99 23.26 32.79 23.31 33.05C24.52 39.66 28.61 44.47 33.2 48.96C34.69 50.42 34.81 50.87 33.35 52.28C27.84 57.56 24.18 64.06 21.04 70.9C20.05 73.28 18.74 71.89 18.59 71.47ZM10.44 50.78C13.36 52.63 15.3 55.11 16.71 57.91C18.07 60.66 19.08 63.57 20.21 66.36C22.84 60.49 26.39 55.06 31.78 50.93C26.56 46.82 22.45 42.14 21.19 35.42C18.93 41.46 15.34 46.48 10.44 50.78Z" fill="#81ADC8" fill-opacity="1.000000" fill-rule="nonzero"/>
		<path id="Vector" d="M55.6 56.9C52.6 60.92 50.78 65.51 49.1 70.18C48.99 70.48 48.64 72.17 47.35 72.16C46.98 72.16 46.38 71.58 46.14 71.12C45.13 69.04 44.49 66.73 43.21 64.86C41.69 62.64 39.6 60.81 37.84 58.77C37.59 58.47 37.49 57.79 37.65 57.43C37.97 56.75 38.52 56.21 38.95 55.58C41.16 52.33 43.33 49.06 45.6 45.86C46.08 45.2 47.01 44.4 47.57 44.4C48.95 44.38 49.22 45.47 49.46 46.24C50.57 49.79 52.48 52.75 55.26 55.2C56.25 56.13 55.72 56.73 55.6 56.9ZM40.39 57.83C43.61 60.12 45.81 63.42 47.13 67.12C49.1 63.52 51.1 59.85 53.16 56.06C50.4 54.15 48.47 50.59 47.59 47.96C45.18 51.26 42.8 54.53 40.39 57.83Z" fill="#CD4631" fill-opacity="1.000000" fill-rule="nonzero"/>
	</g>
</svg>
