<svg width="78.000000" height="78.000000" viewBox="0 0 78 78" fill="none" xmlns="http://www.w3.org/2000/svg" xmlns:xlink="http://www.w3.org/1999/xlink">
	<desc>
			Created with Pixso.
	</desc>
	<defs>
		<clipPath id="clip301_537">
			<rect id="Scribble" rx="-0.162500" width="77.675003" height="77.675003" transform="translate(0.162500 0.162500) rotate(0.000000)" fill="white" fill-opacity="0"/>
		</clipPath>
	</defs>
	<rect id="Scribble" rx="-0.162500" width="77.675003" height="77.675003" transform="translate(0.162500 0.162500) rotate(0.000000)" fill="#FFFFFF" fill-opacity="0"/>
	<g clip-path="url(#clip301_537)">
		<path id="Vector" d="M20.1 35.92C18.36 37.51 16.66 38.89 15.04 40.59C12.66 43.08 10.44 45.73 8.15 48.3C7.55 48.96 7.08 49.94 5.94 49.42C5.2 49.08 5.2 48.23 5.91 46.82C6.33 46.01 6.81 45.22 7.36 44.49C10.5 40.34 14.21 36.75 18.49 33.77C19.22 33.27 20.02 32.81 20.86 32.52C22.46 31.99 23.69 32.91 23.54 34.59C23.45 35.68 23.07 36.76 22.75 37.82C22.12 39.82 21.4 41.78 20.81 43.8C20.65 44.36 20.44 45.32 20.78 45.74C21.36 46.36 23.1 44.57 23.87 43.75C26.24 41.24 28.53 38.66 30.87 36.12C33.21 33.58 35.8 31.29 38.82 29.57C39.7 29.07 40.65 28.64 41.62 28.38C43.19 27.96 44.44 29 44.33 30.64C44.28 31.43 44.05 32.24 43.71 32.96C42.84 34.76 41.85 36.49 40.95 38.26C40 40.12 39.01 41.97 38.66 44.49C39.32 43.9 39.75 43.56 40.12 43.15C42.5 40.58 44.83 37.97 47.24 35.42C49.44 33.1 51.78 30.94 54.61 29.42C55.68 28.85 56.88 28.41 58.08 28.24C59.73 28.03 60.86 29.29 60.54 30.92C60.3 32.13 59.78 33.29 59.27 34.4C58.28 36.5 57.2 38.55 56.18 40.62C55.95 41.08 55.25 42.16 55.88 42.27C56.56 41.55 57.24 40.82 57.93 40.12C59.75 38.21 61.54 36.27 63.42 34.42C65.12 32.74 67 31.29 69.41 30.75C71.44 30.29 72.88 31.55 72.55 33.61C72.39 34.59 72.06 35.61 71.6 36.5C69.6 40.44 67.53 44.34 65.47 48.26C65.24 48.68 64.98 49.12 64.62 49.42C64.28 49.69 63.71 50 63.38 49.88C63.06 49.76 62.46 49.33 62.53 48.47C62.6 47.69 62.83 47.11 63.14 46.4C64.58 43.15 66.09 39.94 67.58 36.72C67.99 35.85 68.42 35 68.84 34.13C68.99 33.88 68.95 33.84 68.87 33.74C68.48 33.54 67.39 34.36 66.94 34.8C64.39 37.26 61.87 39.75 59.36 42.26C58.37 43.25 57.47 44.33 56.48 45.32C55.66 46.13 54.66 46.59 53.54 46.05C52.41 45.51 52.1 44.37 52.29 43.29C52.56 41.7 52.9 40.09 53.55 38.64C54.53 36.44 55.8 34.35 56.94 32.21C57.13 31.85 57.29 31.45 57.6 30.75C56.9 31.05 56.46 31.17 56.07 31.38C53.5 32.82 51.32 34.76 49.35 36.91C47 39.5 44.79 42.22 42.46 44.85C41.54 45.89 40.59 46.96 39.5 47.8C37.37 49.45 35.24 48.57 34.97 45.9C34.85 44.64 35.04 43.31 35.34 42.08C36.08 38.95 37.78 36.23 39.37 33.48C39.71 32.9 40.05 32.32 40.27 31.66C37.65 32.62 35.54 34.27 33.63 36.14C30.67 39.04 27.86 42.11 24.97 45.06C24.22 45.82 23.4 46.55 22.49 47.11C20.94 48.04 19.26 47.32 18.89 45.56C18.6 44.28 18.59 42.85 18.79 41.55C19.08 39.65 20.32 36.14 20.27 35.92C20.27 35.72 20.1 35.92 20.1 35.92Z" fill="#81ADC8" fill-opacity="1.000000" fill-rule="nonzero"/>
	</g>
</svg>
