<svg width="78.000000" height="78.000000" viewBox="0 0 78 78" fill="none" xmlns="http://www.w3.org/2000/svg" xmlns:xlink="http://www.w3.org/1999/xlink">
	<desc>
			Created with Pixso.
	</desc>
	<defs>
		<clipPath id="clip301_553">
			<rect id="Face 1" rx="-0.162500" width="77.675003" height="77.675003" transform="translate(0.162500 0.162500) rotate(0.000000)" fill="white" fill-opacity="0"/>
		</clipPath>
	</defs>
	<rect id="Face 1" rx="-0.162500" width="77.675003" height="77.675003" transform="translate(0.162500 0.162500) rotate(0.000000)" fill="#FFFFFF" fill-opacity="0"/>
	<g clip-path="url(#clip301_553)">
		<path id="Vector" d="M13.54 44.67C13.08 44.1 11.9 45.66 11.04 44.91C10.19 44.18 11.37 43.17 11.86 42.53C12.7 41.42 13.71 40.42 14.8 39.56C15.22 39.23 16.19 38.72 16.68 39.35C16.99 39.74 17.07 40.09 16.57 41.04C16.3 41.54 16.16 41.81 15.45 42.68C15.45 42.95 15.85 43.25 16.16 43.52C22.68 49.19 30.03 53.04 38.82 53.46C47.61 53.89 55.16 51.17 60.91 44.24C61.42 43.63 62.12 43.06 62.22 42.35C62.29 41.83 62.06 41.55 61.34 40.55C61.11 40.24 61 39.48 61.42 39.01C62.11 38.2 62.86 38.62 63.11 38.86C64.86 40.57 66.21 42.57 67.2 44.37C67.39 44.97 67.08 45.45 66.77 45.75C66.51 46 65.83 45.97 65.43 45.82C64.95 45.64 64.56 45.22 63.94 44.76C57.66 53 49.16 56.92 38.87 56.54C28.74 56.21 19.87 51.89 13.54 44.67Z" fill="#000000" fill-opacity="1.000000" fill-rule="nonzero"/>
		<path id="Vector" d="M50.34 29.79C50.3 26.23 52.82 23.35 55.96 23.37C58.7 23.38 61.14 26.17 61.16 29.33C61.18 32.32 58.52 35.1 55.58 35.14C52.62 35.16 50.37 32.87 50.34 29.79ZM52.96 29.41C52.98 31.11 54.15 32.35 55.73 32.32C57.11 32.29 58.44 30.94 58.37 29.58C58.31 27.92 57.43 26.2 55.29 26.44C54.07 26.58 52.93 27.43 52.96 29.41Z" fill="#CD4631" fill-opacity="1.000000" fill-rule="nonzero"/>
		<path id="Vector" d="M26.23 27.05C26.2 30.22 23.61 32.9 20.55 32.91C17.64 32.93 15.32 30.36 15.46 27.04C15.61 22.96 17.87 21.7 21.19 21.4C23.79 21.17 26.24 24.13 26.23 27.05ZM18.01 26.77C17.99 28.77 19.08 30.27 20.52 30.29C22.14 30.3 23.64 28.73 23.64 27.01C23.64 25.43 22.2 23.91 20.74 23.95C18.89 24 18.01 24.91 18.01 26.77Z" fill="#81ADC8" fill-opacity="1.000000" fill-rule="nonzero"/>
	</g>
</svg>
