<svg width="122.000244" height="22.000000" viewBox="0 0 122 22" fill="none" xmlns="http://www.w3.org/2000/svg" xmlns:xlink="http://www.w3.org/1999/xlink">
	<desc>
			Created with Pixso.
	</desc>
	<defs/>
	<path id="Vector" d="M9.91 7L9.91 10.33L9.91 11.66L9.91 15L12.74 15L12.74 11.66L12.74 10.33L12.74 7L9.91 7Z" fill="#FAB908" fill-opacity="1.000000" fill-rule="nonzero"/>
	<path id="Vector" d="M1.41 11.62C2.19 11.62 2.83 11 2.83 10.25C2.83 9.49 2.19 8.87 1.41 8.87C0.63 8.87 0 9.49 0 10.25C0 11 0.63 11.62 1.41 11.62Z" fill="#0066D9" fill-opacity="1.000000" fill-rule="nonzero"/>
	<path id="Vector" d="M1.41 13.12C2.19 13.12 2.83 12.5 2.83 11.75C2.83 10.99 2.19 10.37 1.41 10.37C0.63 10.37 0 10.99 0 11.75C0 12.5 0.63 13.12 1.41 13.12Z" fill="#0066D9" fill-opacity="1.000000" fill-rule="nonzero"/>
	<path id="Vector" d="M2.83 10.25L0 10.25L0 11.75L2.83 11.75L2.83 10.25Z" fill="#0066D9" fill-opacity="1.000000" fill-rule="nonzero"/>
	<path id="Vector" d="M21.24 13.12C22.02 13.12 22.65 12.5 22.65 11.75C22.65 10.99 22.02 10.37 21.24 10.37C20.45 10.37 19.82 10.99 19.82 11.75C19.82 12.5 20.45 13.12 21.24 13.12Z" fill="#4285F4" fill-opacity="1.000000" fill-rule="nonzero"/>
	<path id="Vector" d="M21.24 11.62C22.02 11.62 22.65 11 22.65 10.25C22.65 9.49 22.02 8.87 21.24 8.87C20.45 8.87 19.82 9.49 19.82 10.25C19.82 11 20.45 11.62 21.24 11.62Z" fill="#4285F4" fill-opacity="1.000000" fill-rule="nonzero"/>
	<path id="Vector" d="M19.82 11.75L22.65 11.75L22.65 10.25L19.82 10.25L19.82 11.75Z" fill="#4285F4" fill-opacity="1.000000" fill-rule="nonzero"/>
	<path id="Vector" d="M6.3 16.12C7.08 16.12 7.72 15.5 7.72 14.75C7.72 13.99 7.08 13.37 6.3 13.37C5.52 13.37 4.89 13.99 4.89 14.75C4.89 15.5 5.52 16.12 6.3 16.12Z" fill="#EA4335" fill-opacity="1.000000" fill-rule="nonzero"/>
	<path id="Vector" d="M6.3 17.62C7.08 17.62 7.72 17 7.72 16.25C7.72 15.49 7.08 14.87 6.3 14.87C5.52 14.87 4.89 15.49 4.89 16.25C4.89 17 5.52 17.62 6.3 17.62Z" fill="#EA4335" fill-opacity="1.000000" fill-rule="nonzero"/>
	<path id="Vector" d="M7.72 14.75L4.89 14.75L4.89 16.25L7.72 16.25L7.72 14.75Z" fill="#EA4335" fill-opacity="1.000000" fill-rule="nonzero"/>
	<path id="Vector" d="M6.3 7.12C7.08 7.12 7.72 6.5 7.72 5.75C7.72 4.99 7.08 4.37 6.3 4.37C5.52 4.37 4.89 4.99 4.89 5.75C4.89 6.5 5.52 7.12 6.3 7.12Z" fill="#EA4335" fill-opacity="1.000000" fill-rule="nonzero"/>
	<path id="Vector" d="M6.3 12C7.08 12 7.72 11.38 7.72 10.62C7.72 9.86 7.08 9.25 6.3 9.25C5.52 9.25 4.89 9.86 4.89 10.62C4.89 11.38 5.52 12 6.3 12Z" fill="#EA4335" fill-opacity="1.000000" fill-rule="nonzero"/>
	<path id="Vector" d="M7.72 5.75L4.89 5.75L4.89 10.65L7.72 10.65L7.72 5.75Z" fill="#EA4335" fill-opacity="1.000000" fill-rule="nonzero"/>
	<path id="Vector" d="M16.34 8.62C17.13 8.62 17.76 8 17.76 7.25C17.76 6.49 17.13 5.87 16.34 5.87C15.56 5.87 14.93 6.49 14.93 7.25C14.93 8 15.56 8.62 16.34 8.62Z" fill="#34A853" fill-opacity="1.000000" fill-rule="nonzero"/>
	<path id="Vector" d="M16.34 7.12C17.13 7.12 17.76 6.5 17.76 5.75C17.76 4.99 17.13 4.37 16.34 4.37C15.56 4.37 14.93 4.99 14.93 5.75C14.93 6.5 15.56 7.12 16.34 7.12Z" fill="#34A853" fill-opacity="1.000000" fill-rule="nonzero"/>
	<path id="Vector" d="M14.93 7.25L17.76 7.25L17.76 5.75L14.93 5.75L14.93 7.25Z" fill="#34A853" fill-opacity="1.000000" fill-rule="nonzero"/>
	<path id="Vector" d="M11.32 4.25C12.11 4.25 12.74 3.63 12.74 2.87C12.74 2.11 12.11 1.5 11.32 1.5C10.54 1.5 9.91 2.11 9.91 2.87C9.91 3.63 10.54 4.25 11.32 4.25Z" fill="#FAB908" fill-opacity="1.000000" fill-rule="nonzero"/>
	<path id="Vector" d="M11.32 2.75C12.11 2.75 12.74 2.13 12.74 1.37C12.74 0.61 12.11 0 11.32 0C10.54 0 9.91 0.61 9.91 1.37C9.91 2.13 10.54 2.75 11.32 2.75Z" fill="#FAB908" fill-opacity="1.000000" fill-rule="nonzero"/>
	<path id="Vector" d="M9.91 2.87L12.74 2.87L12.74 1.37L9.91 1.37L9.91 2.87Z" fill="#FAB908" fill-opacity="1.000000" fill-rule="nonzero"/>
	<path id="Vector" d="M11.32 22C12.11 22 12.74 21.38 12.74 20.62C12.74 19.86 12.11 19.25 11.32 19.25C10.54 19.25 9.91 19.86 9.91 20.62C9.91 21.38 10.54 22 11.32 22Z" fill="#FAB908" fill-opacity="1.000000" fill-rule="nonzero"/>
	<path id="Vector" d="M11.32 20.5C12.11 20.5 12.74 19.88 12.74 19.12C12.74 18.36 12.11 17.75 11.32 17.75C10.54 17.75 9.91 18.36 9.91 19.12C9.91 19.88 10.54 20.5 11.32 20.5Z" fill="#FAB908" fill-opacity="1.000000" fill-rule="nonzero"/>
	<path id="Vector" d="M9.91 20.62L12.74 20.62L12.74 19.12L9.91 19.12L9.91 20.62Z" fill="#FAB908" fill-opacity="1.000000" fill-rule="nonzero"/>
	<path id="Vector" d="M16.34 17.62C17.13 17.62 17.76 17 17.76 16.25C17.76 15.49 17.13 14.87 16.34 14.87C15.56 14.87 14.93 15.49 14.93 16.25C14.93 17 15.56 17.62 16.34 17.62Z" fill="#34A853" fill-opacity="1.000000" fill-rule="nonzero"/>
	<path id="Vector" d="M16.34 12.75C17.13 12.75 17.76 12.13 17.76 11.37C17.76 10.61 17.13 10 16.34 10C15.56 10 14.93 10.61 14.93 11.37C14.93 12.13 15.56 12.75 16.34 12.75Z" fill="#34A853" fill-opacity="1.000000" fill-rule="nonzero"/>
	<path id="Vector" d="M14.93 16.25L17.76 16.25L17.76 11.37L14.93 11.37L14.93 16.25Z" fill="#34A853" fill-opacity="1.000000" fill-rule="nonzero"/>
	<path id="Vector" d="M11.32 8.37C12.11 8.37 12.74 7.75 12.74 7C12.74 6.24 12.11 5.62 11.32 5.62C10.54 5.62 9.91 6.24 9.91 7C9.91 7.75 10.54 8.37 11.32 8.37Z" fill="#FAB908" fill-opacity="1.000000" fill-rule="nonzero"/>
	<path id="Vector" d="M11.32 16.37C12.11 16.37 12.74 15.75 12.74 15C12.74 14.24 12.11 13.62 11.32 13.62C10.54 13.62 9.91 14.24 9.91 15C9.91 15.75 10.54 16.37 11.32 16.37Z" fill="#FAB908" fill-opacity="1.000000" fill-rule="nonzero"/>
	<path id="Vector" d="M74.8 14.45L73.62 14.45L73.62 5.54L76.74 5.54C77.52 5.54 78.19 5.79 78.76 6.29C79.33 6.79 79.61 7.42 79.61 8.19C79.61 8.95 79.33 9.58 78.76 10.08C78.19 10.59 77.52 10.84 76.74 10.84L74.8 10.84L74.8 14.45ZM74.8 9.74L76.77 9.74C77.26 9.74 77.66 9.58 77.96 9.26C78.26 8.93 78.41 8.58 78.41 8.19C78.41 7.8 78.26 7.44 77.96 7.12C77.66 6.79 77.26 6.63 76.77 6.63L74.8 6.63L74.8 9.74ZM80.59 9.08C81.2 8.46 81.97 8.15 82.91 8.15C83.85 8.15 84.62 8.46 85.23 9.08C85.84 9.69 86.14 10.47 86.14 11.4C86.14 12.33 85.84 13.1 85.23 13.72C84.62 14.34 83.85 14.64 82.91 14.64C81.97 14.64 81.2 14.34 80.59 13.72C79.99 13.1 79.68 12.33 79.68 11.4C79.68 10.47 79.99 9.7 80.59 9.08ZM81.46 13C81.87 13.4 82.36 13.6 82.91 13.6C83.47 13.6 83.95 13.4 84.35 13C84.76 12.59 84.96 12.06 84.96 11.4C84.96 10.73 84.76 10.2 84.35 9.8C83.95 9.39 83.47 9.19 82.91 9.19C82.36 9.19 81.88 9.39 81.47 9.8C81.06 10.2 80.86 10.73 80.86 11.4C80.86 12.06 81.06 12.6 81.46 13ZM89.69 14.64C88.88 14.64 88.18 14.33 87.59 13.71C87 13.09 86.71 12.32 86.71 11.4C86.71 10.48 87 9.7 87.59 9.08C88.18 8.46 88.88 8.15 89.69 8.15C90.17 8.15 90.6 8.25 90.98 8.45C91.36 8.65 91.65 8.89 91.83 9.19L91.89 9.19L91.83 8.35L91.83 5.54L93.01 5.54L93.01 14.45L91.89 14.45L91.89 13.6L91.83 13.6C91.65 13.9 91.36 14.15 90.98 14.35C90.6 14.54 90.17 14.64 89.69 14.64ZM89.89 13.6C90.44 13.6 90.91 13.4 91.3 13C91.69 12.6 91.89 12.07 91.89 11.4C91.89 10.72 91.69 10.19 91.3 9.79C90.91 9.39 90.44 9.19 89.89 9.19C89.34 9.19 88.87 9.39 88.48 9.8C88.08 10.2 87.89 10.73 87.89 11.4C87.89 12.06 88.08 12.59 88.48 13C88.87 13.4 89.34 13.6 89.89 13.6ZM97.11 14.64C96.17 14.64 95.39 14.34 94.79 13.72C94.18 13.1 93.88 12.33 93.88 11.4C93.88 10.47 94.18 9.69 94.79 9.08C95.39 8.46 96.17 8.15 97.11 8.15C97.81 8.15 98.39 8.31 98.85 8.65C99.31 8.98 99.65 9.4 99.86 9.9L98.78 10.34C98.46 9.58 97.87 9.19 97.03 9.19C96.51 9.19 96.05 9.4 95.65 9.82C95.25 10.23 95.06 10.76 95.06 11.4C95.06 12.04 95.25 12.56 95.65 12.98C96.05 13.39 96.51 13.6 97.03 13.6C97.91 13.6 98.52 13.22 98.85 12.45L99.9 12.89C99.69 13.39 99.34 13.8 98.87 14.14C98.39 14.48 97.81 14.64 97.11 14.64ZM102.7 14.64C102.03 14.64 101.47 14.46 101.02 14.08C100.58 13.71 100.35 13.22 100.35 12.6C100.35 11.94 100.62 11.42 101.15 11.04C101.68 10.66 102.33 10.48 103.11 10.48C103.8 10.48 104.37 10.6 104.81 10.85L104.81 10.67C104.81 10.23 104.65 9.87 104.34 9.6C104.02 9.33 103.63 9.19 103.17 9.19C102.83 9.19 102.52 9.27 102.24 9.43C101.96 9.59 101.77 9.8 101.67 10.08L100.6 9.63C100.74 9.26 101.03 8.93 101.45 8.62C101.88 8.3 102.45 8.15 103.15 8.15C103.95 8.15 104.62 8.38 105.15 8.83C105.68 9.29 105.94 9.93 105.94 10.76L105.94 14.45L104.81 14.45L104.81 13.6L104.76 13.6C104.29 14.3 103.6 14.64 102.7 14.64ZM102.89 13.6C103.38 13.6 103.82 13.42 104.22 13.07C104.61 12.72 104.81 12.3 104.81 11.82C104.48 11.55 103.98 11.42 103.31 11.42C102.74 11.42 102.31 11.54 102.02 11.78C101.73 12.02 101.58 12.31 101.58 12.63C101.58 12.93 101.71 13.16 101.98 13.34C102.24 13.51 102.55 13.6 102.89 13.6ZM109.39 14.64C108.69 14.64 108.11 14.48 107.65 14.15C107.2 13.81 106.86 13.4 106.65 12.9L107.7 12.48C108.03 13.24 108.6 13.62 109.4 13.62C109.77 13.62 110.07 13.55 110.31 13.39C110.54 13.23 110.66 13.02 110.66 12.77C110.66 12.37 110.37 12.1 109.8 11.96L108.53 11.66C108.13 11.56 107.75 11.37 107.39 11.09C107.03 10.81 106.85 10.44 106.85 9.97C106.85 9.43 107.1 8.99 107.59 8.65C108.08 8.32 108.66 8.15 109.34 8.15C109.89 8.15 110.39 8.27 110.83 8.52C111.26 8.76 111.57 9.11 111.76 9.57L110.74 9.98C110.51 9.44 110.03 9.17 109.3 9.17C108.95 9.17 108.66 9.24 108.42 9.38C108.18 9.52 108.06 9.71 108.06 9.95C108.06 10.3 108.34 10.54 108.89 10.66L110.13 10.95C110.72 11.08 111.16 11.31 111.44 11.63C111.72 11.96 111.86 12.32 111.86 12.73C111.86 13.28 111.63 13.73 111.17 14.1C110.71 14.46 110.12 14.64 109.39 14.64ZM115.39 14.54C114.73 14.54 114.23 14.37 113.89 14.03C113.54 13.69 113.37 13.21 113.37 12.59L113.37 9.39L112.27 9.39L112.27 8.35L113.37 8.35L113.37 6.48L114.55 6.48L114.55 8.35L116.08 8.35L116.08 9.39L114.55 9.39L114.55 12.5C114.55 13.17 114.83 13.5 115.39 13.5C115.61 13.5 115.79 13.47 115.93 13.4L116.34 14.38C116.08 14.49 115.77 14.54 115.39 14.54ZM119.52 14.64C118.82 14.64 118.24 14.48 117.79 14.15C117.33 13.81 116.99 13.4 116.78 12.9L117.83 12.48C118.16 13.24 118.73 13.62 119.54 13.62C119.9 13.62 120.2 13.55 120.44 13.39C120.67 13.23 120.79 13.02 120.79 12.77C120.79 12.37 120.5 12.1 119.93 11.96L118.66 11.66C118.26 11.56 117.88 11.37 117.52 11.09C117.16 10.81 116.98 10.44 116.98 9.97C116.98 9.43 117.23 8.99 117.72 8.65C118.21 8.32 118.8 8.15 119.47 8.15C120.03 8.15 120.52 8.27 120.96 8.52C121.39 8.76 121.71 9.11 121.89 9.57L120.87 9.98C120.64 9.44 120.16 9.17 119.43 9.17C119.08 9.17 118.79 9.24 118.55 9.38C118.31 9.52 118.19 9.71 118.19 9.95C118.19 10.3 118.47 10.54 119.02 10.66L120.27 10.95C120.86 11.08 121.29 11.31 121.57 11.63C121.85 11.96 122 12.32 122 12.73C122 13.28 121.76 13.73 121.3 14.1C120.84 14.46 120.25 14.64 119.52 14.64Z" fill="#14142B" fill-opacity="1.000000" fill-rule="evenodd"/>
	<path id="Vector" d="M28.84 9.54C28.84 6.72 31.27 4.43 34.18 4.43C35.78 4.43 36.92 5.04 37.78 5.84L36.76 6.82C36.15 6.26 35.32 5.82 34.18 5.82C32.06 5.82 30.41 7.48 30.41 9.53C30.41 11.58 32.06 13.23 34.18 13.23C35.55 13.23 36.33 12.7 36.83 12.21C37.24 11.81 37.51 11.24 37.61 10.46L34.18 10.46L34.18 9.07L39.01 9.07C39.06 9.32 39.09 9.61 39.09 9.95C39.09 11 38.8 12.29 37.85 13.2C36.92 14.14 35.74 14.63 34.18 14.63C31.27 14.63 28.84 12.35 28.84 9.54ZM42.95 8.13C44.82 8.13 46.34 9.51 46.34 11.41C46.34 13.31 44.82 14.7 42.95 14.7C41.08 14.7 39.55 13.31 39.55 11.41C39.55 9.51 41.08 8.13 42.95 8.13ZM42.95 13.4C43.97 13.4 44.86 12.58 44.86 11.4C44.86 10.22 43.97 9.41 42.95 9.41C41.92 9.41 41.04 10.22 41.04 11.4C41.04 12.58 41.93 13.4 42.95 13.4ZM50.36 8.13C52.23 8.13 53.75 9.51 53.75 11.41C53.75 13.31 52.23 14.7 50.36 14.7C48.48 14.7 46.96 13.31 46.96 11.41C46.96 9.51 48.48 8.13 50.36 8.13ZM50.36 13.4C51.38 13.4 52.27 12.58 52.27 11.4C52.27 10.22 51.39 9.41 50.36 9.41C49.33 9.41 48.44 10.22 48.44 11.4C48.44 12.58 49.34 13.4 50.36 13.4ZM59.45 8.23L60.87 8.23L60.87 14.14C60.87 16.57 59.4 17.56 57.66 17.56C56.01 17.56 55.02 16.49 54.65 15.61L55.94 15.09C56.17 15.62 56.73 16.25 57.65 16.25C58.76 16.25 59.45 15.58 59.45 14.33L59.45 13.85L59.4 13.85C59.07 14.25 58.43 14.6 57.62 14.6C55.92 14.6 54.37 13.16 54.37 11.33C54.37 9.47 55.92 8.03 57.62 8.03C58.43 8.03 59.07 8.38 59.4 8.77L59.45 8.77L59.45 8.23ZM57.75 13.31C58.76 13.31 59.56 12.48 59.55 11.33C59.55 10.17 58.76 9.32 57.75 9.32C56.72 9.32 55.86 10.17 55.86 11.33C55.86 12.47 56.72 13.31 57.75 13.31ZM61.88 14.48L61.88 4.82L63.36 4.82L63.36 14.48L61.88 14.48ZM67.44 13.4C68.2 13.4 68.72 13.04 69.11 12.49L70.26 13.24C69.88 13.78 68.99 14.7 67.44 14.7C65.51 14.7 64.08 13.25 64.08 11.41C64.08 9.46 65.54 8.13 67.28 8.13C69.03 8.13 69.89 9.48 70.17 10.22L70.32 10.59L65.8 12.4C66.15 13.06 66.68 13.4 67.44 13.4ZM67.33 9.39C66.57 9.39 65.51 10.04 65.56 11.31L68.58 10.09C68.42 9.67 67.92 9.39 67.33 9.39Z" fill="#14142B" fill-opacity="1.000000" fill-rule="nonzero"/>
</svg>
