<svg width="36.000000" height="36.000000" viewBox="0 0 36 36" fill="none" xmlns="http://www.w3.org/2000/svg" xmlns:xlink="http://www.w3.org/1999/xlink">
	<desc>
			Created with Pixso.
	</desc>
	<defs>
		<clipPath id="clip301_2751">
			<rect id="app_store" rx="-0.500000" width="35.000000" height="35.000000" transform="translate(0.500000 0.500000)" fill="white" fill-opacity="0"/>
		</clipPath>
		<linearGradient x1="18.000000" y1="2.250000" x2="18.000000" y2="33.750000" id="paint_linear_301_2752_0" gradientUnits="userSpaceOnUse">
			<stop stop-color="#2AC9FA"/>
			<stop offset="1.000000" stop-color="#1F65EB"/>
		</linearGradient>
	</defs>
	<rect id="app_store" rx="-0.500000" width="35.000000" height="35.000000" transform="translate(0.500000 0.500000)" fill="#FFFFFF" fill-opacity="0"/>
	<g clip-path="url(#clip301_2751)">
		<circle id="bg" cx="18.000000" cy="18.000000" r="15.750000" fill="url(#paint_linear_301_2752_0)" fill-opacity="1.000000"/>
		<path id="app_store" d="M20.75 9.73C21.09 9.14 20.88 8.38 20.29 8.04C19.7 7.69 18.95 7.9 18.61 8.49L18.01 9.53L17.42 8.49C17.08 7.9 16.32 7.69 15.73 8.04C15.14 8.38 14.94 9.14 15.28 9.73L16.59 12.02L12.44 19.25L9.11 19.25C8.42 19.25 7.87 19.81 7.87 20.49C7.87 21.18 8.42 21.73 9.11 21.73L20.73 21.73C20.83 21.46 20.94 21 20.83 20.58C20.66 19.94 20.02 19.25 18.96 19.25L15.29 19.25L20.75 9.73ZM26.88 21.73L25 21.73L26.31 24.01C26.65 24.6 26.44 25.36 25.85 25.7C25.26 26.05 24.51 25.84 24.17 25.25C22.61 22.52 21.05 19.8 19.49 17.08C19.02 16.27 18.87 15.44 18.97 14.46C19.05 13.69 19.58 13.02 19.86 12.75L23.58 19.25L26.88 19.25C27.57 19.25 28.12 19.81 28.12 20.49C28.12 21.18 27.57 21.73 26.88 21.73ZM13.09 23.1C12.88 22.87 12.4 22.49 11.99 22.37C11.36 22.18 10.88 22.3 10.64 22.4L9.72 24.01C9.38 24.6 9.58 25.36 10.17 25.7C10.76 26.05 11.52 25.84 11.86 25.25L13.09 23.1Z" fill="#FFFFFF" fill-opacity="1.000000" fill-rule="evenodd"/>
	</g>
</svg>
