<svg width="80.000122" height="22.000000" viewBox="0 0 80.0001 22" fill="none" xmlns="http://www.w3.org/2000/svg" xmlns:xlink="http://www.w3.org/1999/xlink">
	<desc>
			Created with Pixso.
	</desc>
	<defs/>
	<path id="Spotify" d="M10.77 0C8.64 0 6.55 0.64 4.78 1.85C3.01 3.06 1.63 4.78 0.82 6.79C0 8.8 -0.21 11.01 0.2 13.14C0.62 15.27 1.64 17.23 3.15 18.77C4.66 20.31 6.58 21.36 8.67 21.78C10.76 22.21 12.92 21.99 14.89 21.16C16.86 20.33 18.54 18.92 19.73 17.11C20.91 15.3 21.54 13.17 21.54 11C21.54 8.08 20.41 5.28 18.39 3.22C16.37 1.15 13.63 0 10.77 0ZM15.71 15.86C15.67 15.94 15.61 16 15.53 16.06C15.46 16.11 15.38 16.15 15.29 16.17C15.21 16.19 15.12 16.2 15.03 16.18C14.94 16.17 14.86 16.13 14.78 16.09C12.26 14.51 9.07 14.16 5.33 15.02C5.24 15.05 5.15 15.05 5.07 15.03C4.98 15.02 4.9 14.99 4.82 14.94C4.75 14.89 4.68 14.83 4.63 14.76C4.58 14.69 4.55 14.6 4.53 14.52C4.51 14.43 4.5 14.34 4.52 14.25C4.53 14.16 4.56 14.07 4.61 14C4.65 13.92 4.71 13.85 4.79 13.8C4.86 13.75 4.94 13.71 5.02 13.69C9.13 12.73 12.65 13.15 15.49 14.92C15.64 15.01 15.75 15.17 15.79 15.34C15.83 15.52 15.8 15.7 15.71 15.86ZM17.03 12.87C16.91 13.05 16.72 13.19 16.51 13.24C16.29 13.29 16.07 13.26 15.88 13.15C12.61 11.28 8.75 10.82 5.15 11.86C5.03 11.93 4.91 11.97 4.78 11.97C4.65 11.98 4.52 11.96 4.41 11.91C4.29 11.86 4.18 11.79 4.09 11.69C4.01 11.59 3.94 11.48 3.9 11.35C3.87 11.23 3.86 11.1 3.88 10.97C3.9 10.84 3.94 10.71 4.02 10.6C4.09 10.5 4.18 10.41 4.29 10.34C4.4 10.27 4.53 10.23 4.66 10.22C6.67 9.63 8.77 9.46 10.85 9.71C12.93 9.96 14.93 10.63 16.75 11.69C16.94 11.81 17.07 12 17.12 12.22C17.17 12.44 17.14 12.67 17.03 12.87ZM17.14 9.75C13.7 7.64 7.95 7.45 4.63 8.48C4.37 8.55 4.1 8.53 3.86 8.4C3.63 8.27 3.45 8.05 3.37 7.79C3.3 7.53 3.32 7.25 3.45 7.01C3.58 6.77 3.79 6.59 4.04 6.51C7.85 5.33 14.17 5.56 18.17 7.97C18.38 8.13 18.52 8.35 18.57 8.6C18.62 8.85 18.58 9.12 18.45 9.34C18.32 9.56 18.11 9.72 17.87 9.8C17.63 9.87 17.37 9.85 17.14 9.73L17.14 9.75Z" fill="#1ED760" fill-opacity="1.000000" fill-rule="nonzero"/>
	<path id="Vector" d="M32.78 9.25C30.72 8.74 30.35 8.38 30.35 7.66C30.35 6.94 30.99 6.48 31.96 6.48C32.99 6.52 33.98 6.9 34.78 7.58C34.79 7.58 34.81 7.59 34.83 7.59C34.85 7.59 34.87 7.58 34.88 7.58C34.91 7.57 34.95 7.55 34.97 7.52L35.98 6.07C36 6.04 36.01 6.01 36.01 5.97C36.01 5.94 36 5.91 35.98 5.88C34.86 4.95 33.45 4.45 32.01 4.48C29.78 4.48 28.23 5.85 28.23 7.8C28.23 9.89 29.57 10.64 31.89 11.21C33.87 11.68 34.2 12.09 34.2 12.77C34.2 13.44 33.52 14.01 32.48 14.01C31.25 14 30.07 13.51 29.2 12.62C29.16 12.61 29.13 12.61 29.09 12.62C29.06 12.63 29.03 12.65 29 12.68L27.85 14.04C27.82 14.06 27.81 14.1 27.81 14.13C27.81 14.17 27.82 14.21 27.85 14.23C29.1 15.38 30.72 16 32.4 15.99C34.8 15.99 36.36 14.64 36.36 12.57C36.33 10.84 35.29 9.88 32.78 9.25Z" fill="#000000" fill-opacity="1.000000" fill-rule="nonzero"/>
	<path id="Vector" d="M41.76 7.17C41.26 7.17 40.77 7.28 40.33 7.5C39.88 7.72 39.49 8.05 39.18 8.44L39.18 7.48C39.18 7.44 39.16 7.41 39.14 7.39C39.11 7.36 39.08 7.35 39.04 7.35L37.18 7.35C37.14 7.35 37.11 7.36 37.08 7.39C37.06 7.41 37.04 7.44 37.04 7.48L37.04 18.19C37.04 18.23 37.05 18.26 37.08 18.29C37.11 18.32 37.14 18.33 37.18 18.33L39.03 18.33C39.06 18.33 39.1 18.32 39.12 18.29C39.15 18.26 39.16 18.23 39.16 18.19L39.16 14.83C39.48 15.21 39.87 15.52 40.32 15.72C40.77 15.93 41.25 16.04 41.74 16.03C43.68 16.03 45.64 14.51 45.64 11.6C45.64 8.68 43.69 7.17 41.76 7.17ZM43.48 11.56C43.51 11.88 43.48 12.19 43.39 12.49C43.29 12.79 43.14 13.07 42.93 13.31C42.73 13.54 42.48 13.74 42.2 13.87C41.92 14 41.61 14.07 41.3 14.08C40.99 14.07 40.69 14 40.41 13.86C40.13 13.73 39.87 13.54 39.67 13.31C39.46 13.07 39.3 12.79 39.2 12.49C39.1 12.19 39.06 11.88 39.09 11.56C39.06 11.25 39.1 10.93 39.2 10.63C39.3 10.33 39.46 10.06 39.67 9.82C39.88 9.59 40.13 9.4 40.41 9.27C40.69 9.13 40.99 9.06 41.3 9.05C41.62 9.06 41.93 9.13 42.21 9.26C42.49 9.4 42.75 9.59 42.95 9.83C43.16 10.07 43.32 10.35 43.41 10.65C43.51 10.96 43.54 11.28 43.5 11.6L43.48 11.56Z" fill="#000000" fill-opacity="1.000000" fill-rule="nonzero"/>
	<path id="Vector" d="M50.68 7.17C49.82 7.19 48.98 7.46 48.27 7.96C47.57 8.46 47.02 9.16 46.71 9.98C46.39 10.8 46.32 11.69 46.5 12.55C46.68 13.41 47.11 14.19 47.72 14.8C48.34 15.41 49.12 15.82 49.96 15.98C50.81 16.14 51.68 16.04 52.47 15.69C53.26 15.35 53.93 14.77 54.4 14.04C54.87 13.3 55.11 12.44 55.1 11.56C55.1 10.98 54.98 10.4 54.75 9.86C54.52 9.32 54.19 8.84 53.78 8.43C53.37 8.02 52.88 7.7 52.35 7.48C51.82 7.27 51.25 7.16 50.68 7.17ZM50.68 14.13C50.36 14.13 50.04 14.06 49.75 13.93C49.46 13.8 49.2 13.61 48.98 13.37C48.77 13.13 48.6 12.85 48.49 12.55C48.38 12.25 48.34 11.92 48.35 11.6C48.33 11.28 48.38 10.96 48.48 10.66C48.59 10.35 48.76 10.08 48.97 9.85C49.18 9.61 49.44 9.43 49.73 9.3C50.02 9.17 50.33 9.1 50.64 9.1C50.96 9.11 51.27 9.17 51.57 9.3C51.86 9.43 52.12 9.62 52.34 9.86C52.56 10.09 52.73 10.37 52.84 10.68C52.95 10.98 53 11.31 52.99 11.63C53.01 11.95 52.96 12.28 52.86 12.58C52.75 12.88 52.58 13.16 52.36 13.4C52.15 13.63 51.89 13.82 51.6 13.94C51.3 14.07 50.99 14.14 50.68 14.13Z" fill="#000000" fill-opacity="1.000000" fill-rule="nonzero"/>
	<path id="Vector" d="M60.43 7.35L58.39 7.35L58.39 5.22C58.39 5.19 58.38 5.15 58.35 5.13C58.33 5.1 58.29 5.09 58.26 5.08L56.41 5.08C56.37 5.08 56.34 5.1 56.31 5.12C56.29 5.15 56.27 5.19 56.27 5.22L56.27 7.35L55.36 7.35C55.35 7.35 55.33 7.35 55.31 7.36C55.3 7.36 55.28 7.37 55.27 7.39C55.26 7.4 55.25 7.41 55.24 7.43C55.24 7.45 55.23 7.46 55.23 7.48L55.23 9.1C55.23 9.14 55.25 9.17 55.27 9.2C55.29 9.23 55.33 9.24 55.36 9.24L56.22 9.24L56.22 13.44C56.22 15.13 57.08 16 58.68 16C59.28 16.01 59.88 15.86 60.4 15.56C60.42 15.55 60.44 15.53 60.45 15.51C60.46 15.49 60.47 15.47 60.47 15.44L60.47 13.9C60.47 13.87 60.46 13.85 60.45 13.83C60.44 13.81 60.43 13.79 60.41 13.77C60.39 13.76 60.36 13.75 60.34 13.75C60.32 13.75 60.29 13.76 60.27 13.77C59.94 13.95 59.56 14.04 59.19 14.04C58.59 14.04 58.33 13.77 58.33 13.16L58.33 9.24L60.37 9.24C60.4 9.24 60.44 9.23 60.46 9.2C60.49 9.18 60.5 9.14 60.5 9.1L60.5 7.48C60.5 7.45 60.5 7.43 60.48 7.4C60.47 7.38 60.45 7.36 60.43 7.35Z" fill="#000000" fill-opacity="1.000000" fill-rule="nonzero"/>
	<path id="Vector" d="M67.52 7.36L67.52 7.09C67.52 6.32 67.8 5.98 68.45 5.98C68.81 5.98 69.16 6.05 69.5 6.18C69.52 6.19 69.54 6.19 69.56 6.19C69.58 6.19 69.6 6.19 69.62 6.18C69.63 6.17 69.65 6.15 69.66 6.13C69.66 6.11 69.67 6.09 69.67 6.07L69.67 4.46C69.67 4.43 69.66 4.4 69.64 4.37C69.63 4.35 69.6 4.33 69.57 4.32C69.07 4.18 68.55 4.13 68.04 4.14C66.32 4.14 65.46 5.13 65.46 6.98L65.46 7.38L64.6 7.38C64.56 7.38 64.53 7.4 64.5 7.42C64.48 7.45 64.47 7.48 64.47 7.52L64.47 9.15C64.47 9.18 64.48 9.22 64.5 9.24C64.53 9.27 64.56 9.29 64.6 9.29L65.46 9.29L65.46 15.77C65.46 15.8 65.47 15.84 65.49 15.86C65.52 15.89 65.55 15.9 65.58 15.9L67.4 15.9C67.43 15.9 67.47 15.89 67.49 15.86C67.52 15.84 67.53 15.8 67.54 15.77L67.54 9.24L69.26 9.24L71.9 15.71C71.6 16.4 71.3 16.53 70.9 16.53C70.54 16.52 70.19 16.42 69.88 16.24C69.87 16.23 69.85 16.23 69.83 16.23C69.81 16.23 69.79 16.23 69.77 16.24C69.75 16.25 69.74 16.26 69.73 16.27C69.71 16.28 69.7 16.29 69.69 16.31L69.12 17.71C69.11 17.74 69.11 17.77 69.12 17.81C69.13 17.84 69.15 17.87 69.18 17.88C69.78 18.23 70.46 18.41 71.16 18.4C72.51 18.4 73.27 17.75 73.94 16L77.15 7.54C77.16 7.52 77.17 7.5 77.17 7.48C77.17 7.45 77.16 7.43 77.15 7.41C77.14 7.39 77.12 7.38 77.1 7.37C77.08 7.36 77.06 7.36 77.04 7.36L75.06 7.36C75.03 7.36 75.01 7.37 74.98 7.38C74.96 7.4 74.94 7.42 74.93 7.44L72.96 13.19L70.84 7.44C70.83 7.42 70.81 7.4 70.79 7.38C70.76 7.36 70.74 7.36 70.71 7.36L67.52 7.36Z" fill="#000000" fill-opacity="1.000000" fill-rule="nonzero"/>
	<path id="Vector" d="M63.41 7.35L61.56 7.35C61.49 7.35 61.42 7.41 61.42 7.49L61.42 15.72C61.42 15.8 61.49 15.86 61.56 15.86L63.41 15.86C63.49 15.86 63.55 15.8 63.55 15.72L63.55 7.49C63.55 7.41 63.49 7.35 63.41 7.35Z" fill="#000000" fill-opacity="1.000000" fill-rule="nonzero"/>
	<path id="Vector" d="M62.49 3.59C62.23 3.59 61.97 3.67 61.75 3.82C61.53 3.96 61.35 4.18 61.25 4.42C61.15 4.67 61.12 4.95 61.17 5.21C61.22 5.48 61.35 5.72 61.54 5.91C61.72 6.1 61.96 6.23 62.22 6.29C62.48 6.34 62.74 6.31 62.99 6.21C63.23 6.11 63.44 5.93 63.59 5.71C63.74 5.48 63.81 5.22 63.81 4.95C63.81 4.77 63.78 4.6 63.72 4.43C63.65 4.27 63.55 4.12 63.43 3.99C63.31 3.86 63.16 3.76 63 3.69C62.84 3.63 62.66 3.59 62.49 3.59Z" fill="#000000" fill-opacity="1.000000" fill-rule="nonzero"/>
	<path id="Vector" d="M78.69 9.99C78.52 9.99 78.35 9.96 78.19 9.89C78.03 9.83 77.89 9.73 77.77 9.6C77.65 9.48 77.55 9.33 77.49 9.17C77.42 9.01 77.39 8.84 77.39 8.66C77.39 8.31 77.53 7.97 77.77 7.72C78.02 7.47 78.35 7.33 78.7 7.33C78.87 7.33 79.04 7.36 79.2 7.43C79.35 7.49 79.5 7.59 79.62 7.72C79.74 7.84 79.83 7.99 79.9 8.15C79.96 8.31 80 8.48 80 8.66C80 9.01 79.86 9.35 79.61 9.6C79.37 9.85 79.03 9.99 78.69 9.99ZM78.69 7.46C78.45 7.46 78.23 7.53 78.03 7.66C77.84 7.79 77.68 7.98 77.59 8.2C77.5 8.42 77.48 8.66 77.52 8.9C77.57 9.13 77.68 9.35 77.85 9.52C78.01 9.68 78.22 9.8 78.45 9.84C78.68 9.89 78.92 9.87 79.13 9.77C79.35 9.68 79.53 9.53 79.66 9.33C79.79 9.13 79.86 8.89 79.86 8.66C79.86 8.5 79.83 8.34 79.77 8.2C79.71 8.05 79.63 7.92 79.52 7.81C79.41 7.7 79.28 7.61 79.14 7.55C79 7.49 78.85 7.46 78.7 7.46L78.69 7.46ZM78.98 8.8L79.34 9.32L79.03 9.32L78.71 8.84L78.42 8.84L78.42 9.32L78.15 9.32L78.15 7.93L78.77 7.93C79.08 7.93 79.3 8.09 79.3 8.37C79.3 8.46 79.27 8.56 79.22 8.63C79.16 8.71 79.08 8.77 78.99 8.8L78.98 8.8ZM78.76 8.16L78.42 8.16L78.42 8.6L78.76 8.6C78.93 8.6 79.03 8.52 79.03 8.38C79.03 8.24 78.94 8.16 78.77 8.16L78.76 8.16Z" fill="#000000" fill-opacity="1.000000" fill-rule="nonzero"/>
</svg>
