<svg width="74.000000" height="74.000000" viewBox="0 0 74 74" fill="none" xmlns="http://www.w3.org/2000/svg" xmlns:xlink="http://www.w3.org/1999/xlink">
	<desc>
			Created with Pixso.
	</desc>
	<defs>
		<clipPath id="clip301_54">
			<rect id="logo" rx="-0.500000" width="73.000000" height="73.000000" transform="translate(0.500000 0.500000)" fill="white" fill-opacity="0"/>
		</clipPath>
	</defs>
	<g clip-path="url(#clip301_54)">
		<path id="Ellipse" d="M32 68C23.77 68 16.26 64.88 10.59 59.77C4.47 54.27 0.97 46.93 0.18 39.34C-0.69 31.16 1.62 23.37 6.11 17.19C10.94 10.53 17.87 6.29 25.34 4.7C33.39 2.98 41.38 4.47 47.99 8.29C55.12 12.4 60.06 18.85 62.43 26.11L59.39 27.1C57.1 20.05 52.34 14.49 46.39 11.06C39.98 7.35 32.73 6.4 26.01 7.83C18.76 9.36 12.74 13.51 8.7 19.07C4.34 25.06 2.64 32.17 3.36 39.01C4.13 46.37 7.62 52.8 12.73 57.39C18.23 62.35 25.12 64.79 32 64.8L32 68Z" fill="#000000" fill-opacity="1.000000" fill-rule="evenodd"/>
		<path id="POD OF CAST" d="M48.13 41.65Q49.25 42.16 50.59 42.16Q51.95 42.16 53.07 41.64Q53.2 41.58 53.33 41.51Q54.07 41.11 54.61 40.54Q54.97 40.15 55.25 39.69Q55.45 39.37 55.59 39.03Q55.95 38.14 55.95 37.09Q55.95 36.07 55.59 35.18Q55.45 34.83 55.25 34.5Q54.97 34.03 54.6 33.64Q54.06 33.08 53.33 32.69Q53.19 32.61 53.05 32.55Q51.94 32.03 50.59 32.03Q49.26 32.03 48.15 32.53Q47.99 32.6 47.84 32.69Q47.1 33.09 46.55 33.67Q46.19 34.04 45.92 34.5Q45.74 34.81 45.6 35.14Q45.23 36.04 45.23 37.09Q45.23 38.16 45.61 39.07Q45.74 39.39 45.92 39.69Q46.19 40.14 46.54 40.52Q47.09 41.1 47.84 41.51Q47.98 41.58 48.13 41.65ZM42.66 32.63Q41.7 32.2 40.4 32.2L36.16 32.2L36.16 42L38.43 42L38.43 39.29L40.4 39.29Q41.7 39.29 42.66 38.87Q43.41 38.53 43.89 37.96Q44.02 37.81 44.13 37.64Q44.21 37.52 44.27 37.4Q44.65 36.68 44.65 35.75Q44.65 34.77 44.23 34.03Q44.19 33.94 44.13 33.86Q44.04 33.71 43.92 33.57Q43.44 32.98 42.66 32.63ZM61.55 32.2L57.1 32.2L57.1 42L61.55 42Q63.15 42 64.37 41.39Q65.19 40.98 65.77 40.35Q66.05 40.04 66.28 39.67Q66.35 39.56 66.41 39.44Q66.96 38.41 66.96 37.09Q66.96 35.77 66.41 34.74Q66.35 34.63 66.28 34.52Q66.05 34.15 65.77 33.84Q65.19 33.21 64.37 32.8Q63.15 32.2 61.55 32.2ZM51.81 40Q51.25 40.23 50.59 40.23Q49.92 40.23 49.35 39.99Q49.18 39.92 49.02 39.83Q48.7 39.65 48.44 39.4Q48.14 39.1 47.92 38.72Q47.89 38.65 47.85 38.59Q47.52 37.92 47.52 37.09Q47.52 36.28 47.84 35.62Q47.88 35.55 47.92 35.47Q48.15 35.07 48.46 34.77Q48.71 34.53 49.02 34.36Q49.18 34.27 49.35 34.2Q49.92 33.96 50.59 33.96Q51.25 33.96 51.81 34.19Q51.99 34.26 52.16 34.36Q52.47 34.53 52.72 34.77Q53.04 35.07 53.26 35.47Q53.3 35.55 53.34 35.62Q53.66 36.28 53.66 37.09Q53.66 37.92 53.33 38.59Q53.3 38.65 53.26 38.72Q53.04 39.1 52.74 39.4Q52.48 39.65 52.16 39.83Q51.99 39.93 51.81 40ZM41.82 37Q41.29 37.45 40.27 37.45L38.43 37.45L38.43 34.04L40.27 34.04Q41.29 34.04 41.82 34.49Q41.97 34.6 42.07 34.75Q42.36 35.15 42.36 35.75Q42.36 36.33 42.08 36.72Q41.98 36.88 41.82 37ZM63.52 39.53Q62.7 40.13 61.44 40.13L59.37 40.13L59.37 34.06L61.44 34.06Q62.69 34.06 63.51 34.65Q63.66 34.76 63.79 34.88Q64.02 35.09 64.19 35.35Q64.66 36.06 64.66 37.09Q64.66 38.13 64.19 38.85Q64.02 39.1 63.79 39.32Q63.66 39.43 63.52 39.53ZM38.44 54.65Q39.56 55.16 40.9 55.16Q42.27 55.16 43.38 54.64Q43.52 54.58 43.65 54.51Q44.38 54.11 44.92 53.54Q45.28 53.15 45.56 52.69Q45.76 52.37 45.9 52.03Q46.26 51.14 46.26 50.09Q46.26 49.07 45.91 48.18Q45.76 47.83 45.56 47.5Q45.28 47.03 44.91 46.64Q44.37 46.08 43.65 45.69Q43.51 45.61 43.36 45.55Q42.25 45.03 40.9 45.03Q39.57 45.03 38.46 45.53Q38.3 45.6 38.15 45.69Q37.41 46.09 36.86 46.67Q36.51 47.04 36.23 47.5Q36.05 47.81 35.91 48.14Q35.54 49.04 35.54 50.09Q35.54 51.16 35.92 52.07Q36.05 52.39 36.23 52.69Q36.5 53.14 36.85 53.52Q37.4 54.1 38.15 54.51Q38.29 54.58 38.44 54.65ZM50.2 47.47Q50.8 46.96 51.98 46.96Q53.1 46.96 53.92 47.46Q53.96 47.48 53.99 47.51L54.69 45.71Q54.15 45.38 53.4 45.2Q52.66 45.03 51.82 45.03Q49.7 45.03 48.51 46.08Q48.22 46.33 48 46.64Q47.33 47.59 47.33 49.02L47.33 55L49.6 55L49.6 51.43L53.63 51.43L53.63 49.6L49.6 49.6L49.6 49Q49.6 48.15 50.02 47.65Q50.1 47.55 50.2 47.47ZM42.12 53Q41.56 53.23 40.9 53.23Q40.23 53.23 39.66 52.99Q39.49 52.92 39.34 52.83Q39.01 52.65 38.75 52.4Q38.45 52.1 38.24 51.72Q38.2 51.65 38.17 51.59Q37.84 50.92 37.84 50.09Q37.84 49.28 38.16 48.62Q38.19 48.55 38.24 48.47Q38.46 48.07 38.77 47.77Q39.03 47.53 39.34 47.36Q39.49 47.27 39.66 47.2Q40.23 46.96 40.9 46.96Q41.56 46.96 42.12 47.19Q42.3 47.26 42.47 47.36Q42.78 47.53 43.03 47.77Q43.35 48.07 43.57 48.47Q43.61 48.55 43.65 48.62Q43.97 49.28 43.97 50.09Q43.97 50.92 43.64 51.59Q43.61 51.65 43.57 51.72Q43.36 52.1 43.05 52.4Q42.79 52.65 42.47 52.83Q42.3 52.93 42.12 53ZM38.52 67.7Q39.58 68.16 40.85 68.16Q42.12 68.16 43.16 67.71Q43.77 67.45 44.27 67.04Q44.61 66.76 44.89 66.41L43.44 65.07Q42.88 65.72 42.18 66Q41.62 66.23 40.97 66.23Q40.16 66.23 39.5 65.91Q39.42 65.87 39.35 65.83Q38.98 65.63 38.7 65.34Q38.43 65.07 38.24 64.72Q38.2 64.65 38.17 64.59Q37.84 63.92 37.84 63.09Q37.84 62.28 38.16 61.62Q38.19 61.55 38.24 61.47Q38.44 61.11 38.72 60.83Q39 60.55 39.35 60.36Q39.42 60.32 39.5 60.28Q40.16 59.96 40.97 59.96Q41.64 59.96 42.2 60.19Q42.89 60.48 43.44 61.11L44.89 59.76Q44.62 59.44 44.31 59.18Q43.8 58.75 43.16 58.48Q42.14 58.03 40.86 58.03Q39.54 58.03 38.45 58.53Q38.29 58.6 38.14 58.68Q37.45 59.05 36.93 59.58Q36.53 59.99 36.23 60.49Q36.08 60.74 35.96 61.01Q35.54 61.96 35.54 63.09Q35.54 64.22 35.95 65.16Q36.08 65.44 36.23 65.71Q36.53 66.2 36.92 66.6Q37.44 67.14 38.14 67.51Q38.32 67.61 38.52 67.7ZM52.63 58.56Q51.63 58.03 50.27 58.03Q48.91 58.03 47.9 58.56Q47.5 58.77 47.16 59.07Q46.67 59.51 46.33 60.13Q45.77 61.16 45.77 62.63L45.77 68L48.02 68L48.02 65.64L52.49 65.64L52.49 68L54.76 68L54.76 62.63Q54.76 61.16 54.2 60.13Q53.87 59.51 53.37 59.07Q53.04 58.77 52.63 58.56ZM57.77 67.94Q58.69 68.16 59.66 68.16Q61.01 68.16 61.94 67.76Q62.88 67.35 63.35 66.66Q63.58 66.32 63.7 65.94Q63.82 65.55 63.82 65.12Q63.82 64.22 63.38 63.66Q63.35 63.61 63.31 63.57Q63.04 63.27 62.71 63.05Q62.42 62.86 62.09 62.73Q61.37 62.46 60.25 62.2Q59.17 61.96 58.65 61.72Q58.32 61.56 58.2 61.31Q58.12 61.16 58.12 60.97Q58.12 60.76 58.2 60.59Q58.31 60.34 58.58 60.15Q59.03 59.85 59.98 59.85L60.01 59.85Q61.36 59.85 62.7 60.62L63.4 58.9Q62.73 58.48 61.83 58.25Q61.65 58.21 61.46 58.17Q60.74 58.03 60 58.03Q58.65 58.03 57.72 58.43Q56.79 58.84 56.33 59.53Q56.13 59.83 56.02 60.15Q55.87 60.59 55.87 61.08Q55.87 61.99 56.31 62.56Q56.34 62.6 56.38 62.65Q56.68 63 57.06 63.23Q57.32 63.39 57.61 63.5Q58.32 63.77 59.44 64.03Q60.17 64.2 60.59 64.34Q61.02 64.48 61.29 64.71Q61.44 64.84 61.51 64.99Q61.57 65.13 61.57 65.29Q61.57 65.47 61.5 65.62Q61.4 65.88 61.11 66.06Q60.64 66.34 59.68 66.34Q58.81 66.34 57.94 66.06Q57.07 65.78 56.44 65.32L55.67 67.03Q56.33 67.53 57.41 67.85Q57.59 67.9 57.77 67.94ZM70.57 60.35Q71.24 60.58 71.86 60.94L72.63 59.25Q71.63 58.64 70.45 58.34Q70.38 58.32 70.31 58.3Q69.19 58.03 68.01 58.03Q66.89 58.03 65.83 58.28Q65.71 58.3 65.59 58.34Q64.49 58.62 63.54 59.16Q63.47 59.2 63.4 59.25L64.17 60.94Q64.87 60.54 65.63 60.29Q66.24 60.1 66.89 60L66.89 68L69.15 68L69.15 60Q69.89 60.11 70.57 60.35ZM52.49 62.42L52.49 63.82L48.02 63.82L48.02 62.42Q48.02 61.2 48.61 60.58Q48.73 60.46 48.86 60.36Q49.41 59.96 50.25 59.96Q51.06 59.96 51.61 60.34Q51.76 60.45 51.89 60.58Q52.49 61.2 52.49 62.42Z" fill="#CD4631" fill-opacity="1.000000" fill-rule="evenodd"/>
	</g>
</svg>
