<svg width="24.000000" height="24.000000" viewBox="0 0 24 24" fill="none" xmlns="http://www.w3.org/2000/svg" xmlns:xlink="http://www.w3.org/1999/xlink">
	<desc>
			Created with Pixso.
	</desc>
	<defs/>
	<path id="Vector" d="M10.5 7.63L10.5 11.27L10.5 12.72L10.5 16.36L13.5 16.36L13.5 12.72L13.5 11.27L13.5 7.63L10.5 7.63Z" fill="#000000" fill-opacity="1.000000" fill-rule="nonzero"/>
	<path id="Vector" d="M1.5 12.68C2.32 12.68 3 12.01 3 11.18C3 10.35 2.32 9.68 1.5 9.68C0.67 9.68 0 10.35 0 11.18C0 12.01 0.67 12.68 1.5 12.68Z" fill="#000000" fill-opacity="1.000000" fill-rule="nonzero"/>
	<path id="Vector" d="M1.5 14.31C2.32 14.31 3 13.64 3 12.81C3 11.98 2.32 11.31 1.5 11.31C0.67 11.31 0 11.98 0 12.81C0 13.64 0.67 14.31 1.5 14.31Z" fill="#000000" fill-opacity="1.000000" fill-rule="nonzero"/>
	<path id="Vector" d="M3 11.18L0 11.18L0 12.81L3 12.81L3 11.18Z" fill="#000000" fill-opacity="1.000000" fill-rule="nonzero"/>
	<path id="Vector" d="M22.5 14.31C23.32 14.31 24 13.64 24 12.81C24 11.98 23.32 11.31 22.5 11.31C21.67 11.31 21 11.98 21 12.81C21 13.64 21.67 14.31 22.5 14.31Z" fill="#000000" fill-opacity="1.000000" fill-rule="nonzero"/>
	<path id="Vector" d="M22.5 12.68C23.32 12.68 24 12.01 24 11.18C24 10.35 23.32 9.68 22.5 9.68C21.67 9.68 21 10.35 21 11.18C21 12.01 21.67 12.68 22.5 12.68Z" fill="#000000" fill-opacity="1.000000" fill-rule="nonzero"/>
	<path id="Vector" d="M21 12.81L24 12.81L24 11.18L21 11.18L21 12.81Z" fill="#000000" fill-opacity="1.000000" fill-rule="nonzero"/>
	<path id="Vector" d="M6.68 17.59C7.5 17.59 8.18 16.91 8.18 16.09C8.18 15.26 7.5 14.59 6.68 14.59C5.85 14.59 5.18 15.26 5.18 16.09C5.18 16.91 5.85 17.59 6.68 17.59Z" fill="#000000" fill-opacity="1.000000" fill-rule="nonzero"/>
	<path id="Vector" d="M6.68 19.22C7.5 19.22 8.18 18.55 8.18 17.72C8.18 16.89 7.5 16.22 6.68 16.22C5.85 16.22 5.18 16.89 5.18 17.72C5.18 18.55 5.85 19.22 6.68 19.22Z" fill="#000000" fill-opacity="1.000000" fill-rule="nonzero"/>
	<path id="Vector" d="M8.18 16.09L5.18 16.09L5.18 17.72L8.18 17.72L8.18 16.09Z" fill="#000000" fill-opacity="1.000000" fill-rule="nonzero"/>
	<path id="Vector" d="M6.68 7.77C7.5 7.77 8.18 7.1 8.18 6.27C8.18 5.44 7.5 4.77 6.68 4.77C5.85 4.77 5.18 5.44 5.18 6.27C5.18 7.1 5.85 7.77 6.68 7.77Z" fill="#000000" fill-opacity="1.000000" fill-rule="nonzero"/>
	<path id="Vector" d="M6.68 13.08C7.5 13.08 8.18 12.41 8.18 11.58C8.18 10.76 7.5 10.08 6.68 10.08C5.85 10.08 5.18 10.76 5.18 11.58C5.18 12.41 5.85 13.08 6.68 13.08Z" fill="#000000" fill-opacity="1.000000" fill-rule="nonzero"/>
	<path id="Vector" d="M8.18 6.27L5.18 6.27L5.18 11.62L8.18 11.62L8.18 6.27Z" fill="#000000" fill-opacity="1.000000" fill-rule="nonzero"/>
	<path id="Vector" d="M17.31 9.41C18.14 9.41 18.81 8.73 18.81 7.91C18.81 7.08 18.14 6.41 17.31 6.41C16.49 6.41 15.81 7.08 15.81 7.91C15.81 8.73 16.49 9.41 17.31 9.41Z" fill="#000000" fill-opacity="1.000000" fill-rule="nonzero"/>
	<path id="Vector" d="M17.31 7.77C18.14 7.77 18.81 7.1 18.81 6.27C18.81 5.44 18.14 4.77 17.31 4.77C16.49 4.77 15.81 5.44 15.81 6.27C15.81 7.1 16.49 7.77 17.31 7.77Z" fill="#000000" fill-opacity="1.000000" fill-rule="nonzero"/>
	<path id="Vector" d="M15.81 7.9L18.81 7.9L18.81 6.27L15.81 6.27L15.81 7.9Z" fill="#000000" fill-opacity="1.000000" fill-rule="nonzero"/>
	<path id="Vector" d="M12 4.63C12.82 4.63 13.5 3.96 13.5 3.13C13.5 2.3 12.82 1.63 12 1.63C11.17 1.63 10.5 2.3 10.5 3.13C10.5 3.96 11.17 4.63 12 4.63Z" fill="#000000" fill-opacity="1.000000" fill-rule="nonzero"/>
	<path id="Vector" d="M12 3C12.82 3 13.5 2.32 13.5 1.5C13.5 0.67 12.82 0 12 0C11.17 0 10.5 0.67 10.5 1.5C10.5 2.32 11.17 3 12 3Z" fill="#000000" fill-opacity="1.000000" fill-rule="nonzero"/>
	<path id="Vector" d="M10.5 3.13L13.5 3.13L13.5 1.5L10.5 1.5L10.5 3.13Z" fill="#000000" fill-opacity="1.000000" fill-rule="nonzero"/>
	<path id="Vector" d="M12 24C12.82 24 13.5 23.32 13.5 22.5C13.5 21.67 12.82 21 12 21C11.17 21 10.5 21.67 10.5 22.5C10.5 23.32 11.17 24 12 24Z" fill="#000000" fill-opacity="1.000000" fill-rule="nonzero"/>
	<path id="Vector" d="M12 22.36C12.82 22.36 13.5 21.69 13.5 20.86C13.5 20.03 12.82 19.36 12 19.36C11.17 19.36 10.5 20.03 10.5 20.86C10.5 21.69 11.17 22.36 12 22.36Z" fill="#000000" fill-opacity="1.000000" fill-rule="nonzero"/>
	<path id="Vector" d="M10.5 22.5L13.5 22.5L13.5 20.86L10.5 20.86L10.5 22.5Z" fill="#000000" fill-opacity="1.000000" fill-rule="nonzero"/>
	<path id="Vector" d="M17.31 19.22C18.14 19.22 18.81 18.55 18.81 17.72C18.81 16.89 18.14 16.22 17.31 16.22C16.49 16.22 15.81 16.89 15.81 17.72C15.81 18.55 16.49 19.22 17.31 19.22Z" fill="#000000" fill-opacity="1.000000" fill-rule="nonzero"/>
	<path id="Vector" d="M17.31 13.91C18.14 13.91 18.81 13.23 18.81 12.41C18.81 11.58 18.14 10.91 17.31 10.91C16.49 10.91 15.81 11.58 15.81 12.41C15.81 13.23 16.49 13.91 17.31 13.91Z" fill="#000000" fill-opacity="1.000000" fill-rule="nonzero"/>
	<path id="Vector" d="M15.81 17.72L18.81 17.72L18.81 12.4L15.81 12.4L15.81 17.72Z" fill="#000000" fill-opacity="1.000000" fill-rule="nonzero"/>
	<path id="Vector" d="M12 9.13C12.82 9.13 13.5 8.46 13.5 7.63C13.5 6.8 12.82 6.13 12 6.13C11.17 6.13 10.5 6.8 10.5 7.63C10.5 8.46 11.17 9.13 12 9.13Z" fill="#000000" fill-opacity="1.000000" fill-rule="nonzero"/>
	<path id="Vector" d="M12 17.86C12.82 17.86 13.5 17.19 13.5 16.36C13.5 15.53 12.82 14.86 12 14.86C11.17 14.86 10.5 15.53 10.5 16.36C10.5 17.19 11.17 17.86 12 17.86Z" fill="#000000" fill-opacity="1.000000" fill-rule="nonzero"/>
</svg>
