<svg width="16.000000" height="16.000000" viewBox="0 0 16 16" fill="none" xmlns="http://www.w3.org/2000/svg" xmlns:xlink="http://www.w3.org/1999/xlink">
	<desc>
			Created with Pixso.
	</desc>
	<defs/>
	<path id="Vector" d="M9.57 9.59C9.35 9.4 9.09 9.26 8.8 9.17C8.52 9.07 8.22 9.03 7.92 9.05C7.62 9.04 7.32 9.08 7.04 9.17C6.76 9.26 6.5 9.41 6.28 9.59C6.1 9.75 6 9.96 5.98 10.18C5.92 10.71 5.92 11.23 5.98 11.75C6.03 12.39 6.15 13.23 6.3 14.09C6.36 14.49 6.44 14.88 6.56 15.27C6.67 15.5 6.85 15.7 7.09 15.83C7.32 15.96 7.6 16.01 7.88 15.99C8.15 16.02 8.43 15.96 8.67 15.83C8.91 15.7 9.1 15.5 9.2 15.27C9.32 14.88 9.41 14.49 9.47 14.09C9.61 13.23 9.72 12.37 9.78 11.75C9.84 11.23 9.84 10.71 9.78 10.18C9.78 9.97 9.71 9.76 9.57 9.59ZM6.09 6.68C6.09 7.02 6.2 7.35 6.41 7.63C6.61 7.91 6.91 8.14 7.25 8.27C7.6 8.4 7.97 8.43 8.34 8.36C8.7 8.3 9.04 8.13 9.3 7.89C9.56 7.65 9.74 7.35 9.82 7.01C9.89 6.68 9.85 6.33 9.71 6.02C9.57 5.7 9.33 5.44 9.02 5.25C8.71 5.06 8.34 4.96 7.97 4.96C7.47 4.96 6.99 5.14 6.64 5.46C6.29 5.78 6.09 6.22 6.09 6.68ZM7.92 0C6.04 0 4.23 0.62 2.8 1.73C1.37 2.84 0.42 4.37 0.11 6.06C-0.21 7.75 0.15 9.49 1.1 10.96C2.05 12.44 3.54 13.56 5.31 14.13C5.33 14.14 5.35 14.14 5.36 14.13C5.38 14.13 5.4 14.12 5.41 14.11C5.43 14.1 5.44 14.08 5.44 14.07C5.45 14.05 5.45 14.04 5.45 14.02C5.4 13.77 5.37 13.52 5.33 13.28C5.33 13.24 5.31 13.2 5.28 13.16C5.25 13.13 5.21 13.1 5.17 13.08C3.71 12.49 2.52 11.46 1.8 10.16C1.08 8.86 0.86 7.38 1.2 5.95C1.53 4.53 2.39 3.25 3.64 2.34C4.88 1.42 6.43 0.93 8.02 0.94C9.61 0.94 11.16 1.45 12.39 2.38C13.62 3.3 14.47 4.59 14.79 6.01C15.1 7.44 14.88 8.93 14.14 10.22C13.4 11.51 12.2 12.53 10.74 13.11C10.69 13.12 10.65 13.15 10.63 13.19C10.6 13.22 10.58 13.26 10.58 13.31C10.58 13.55 10.5 13.8 10.45 14.05C10.45 14.06 10.46 14.08 10.46 14.09C10.47 14.11 10.48 14.12 10.49 14.14C10.51 14.15 10.52 14.15 10.54 14.16C10.56 14.16 10.58 14.16 10.6 14.16C12.39 13.6 13.91 12.47 14.88 10.98C15.85 9.49 16.2 7.74 15.88 6.03C15.56 4.32 14.58 2.77 13.12 1.67C11.66 0.56 9.81 -0.03 7.92 0ZM7.77 3.33C8.65 3.3 9.52 3.51 10.26 3.95C11 4.38 11.58 5.01 11.92 5.75C12.26 6.49 12.34 7.31 12.16 8.09C11.97 8.88 11.53 9.59 10.89 10.14C10.85 10.17 10.83 10.21 10.81 10.25C10.79 10.29 10.78 10.34 10.78 10.38C10.8 10.67 10.8 10.96 10.78 11.24C10.78 11.26 10.79 11.28 10.8 11.29C10.81 11.31 10.82 11.32 10.84 11.33C10.86 11.34 10.88 11.34 10.9 11.34C10.92 11.34 10.94 11.34 10.95 11.33C11.9 10.74 12.61 9.89 12.99 8.91C13.36 7.93 13.39 6.86 13.05 5.86C12.71 4.87 12.04 4 11.12 3.38C10.2 2.76 9.09 2.42 7.95 2.42C6.81 2.42 5.7 2.76 4.79 3.38C3.87 4 3.19 4.87 2.86 5.86C2.52 6.86 2.54 7.93 2.92 8.91C3.3 9.89 4.01 10.74 4.95 11.33C4.97 11.34 4.99 11.34 5.01 11.34C5.03 11.34 5.05 11.34 5.06 11.33C5.08 11.32 5.09 11.31 5.1 11.29C5.11 11.28 5.11 11.26 5.11 11.24C5.11 10.95 5.11 10.68 5.11 10.38C5.12 10.34 5.11 10.29 5.09 10.25C5.07 10.21 5.05 10.17 5.01 10.14C4.39 9.61 3.96 8.92 3.77 8.16C3.58 7.4 3.64 6.61 3.94 5.88C4.24 5.15 4.77 4.52 5.46 4.07C6.16 3.61 6.98 3.36 7.83 3.33L7.77 3.33Z" fill="#000000" fill-opacity="1.000000" fill-rule="nonzero"/>
</svg>
