<svg width="18.666672" height="18.666504" viewBox="0 0 18.6667 18.6665" fill="none" xmlns="http://www.w3.org/2000/svg" xmlns:xlink="http://www.w3.org/1999/xlink">
	<defs/>
	<path id="instagram" d="M0.61 3.05C0 4.25 0 5.82 0 8.95L0 9.7C0 12.84 0 14.41 0.61 15.6C1.14 16.66 2 17.51 3.05 18.05C4.25 18.66 5.82 18.66 8.96 18.66L9.7 18.66C12.84 18.66 14.41 18.66 15.6 18.05C16.66 17.51 17.51 16.66 18.05 15.6C18.66 14.41 18.66 12.84 18.66 9.7L18.66 8.95C18.66 5.82 18.66 4.25 18.05 3.05C17.51 2 16.66 1.14 15.6 0.61C14.41 0 12.84 0 9.7 0L8.96 0C5.82 0 4.25 0 3.05 0.61C2 1.14 1.14 2 0.61 3.05ZM9.7 1.86L8.96 1.86C7.36 1.86 6.27 1.86 5.43 1.93C4.61 2 4.19 2.12 3.9 2.27C3.2 2.63 2.63 3.2 2.27 3.9C2.12 4.19 2 4.61 1.93 5.43C1.86 6.27 1.86 7.36 1.86 8.95L1.86 9.7C1.86 11.3 1.86 12.39 1.93 13.23C2 14.05 2.12 14.46 2.27 14.76C2.63 15.46 3.2 16.03 3.9 16.39C4.19 16.54 4.61 16.66 5.43 16.73C6.27 16.79 7.36 16.79 8.96 16.79L9.7 16.79C11.3 16.79 12.39 16.79 13.23 16.73C14.05 16.66 14.46 16.54 14.76 16.39C15.46 16.03 16.03 15.46 16.39 14.76C16.54 14.46 16.66 14.05 16.72 13.23C16.79 12.39 16.79 11.3 16.79 9.7L16.79 8.95C16.79 7.36 16.79 6.27 16.72 5.43C16.66 4.61 16.54 4.19 16.39 3.9C16.03 3.2 15.46 2.63 14.76 2.27C14.46 2.12 14.05 2 13.23 1.93C12.39 1.86 11.3 1.86 9.7 1.86ZM15.86 4.2C15.86 4.97 15.23 5.6 14.46 5.6C13.69 5.6 13.06 4.97 13.06 4.2C13.06 3.42 13.69 2.79 14.46 2.79C15.23 2.79 15.86 3.42 15.86 4.2ZM9.33 14C11.91 14 14 11.91 14 9.33C14 6.75 11.91 4.66 9.33 4.66C6.75 4.66 4.66 6.75 4.66 9.33C4.66 11.91 6.75 14 9.33 14ZM9.33 12.13C10.87 12.13 12.13 10.87 12.13 9.33C12.13 7.78 10.87 6.53 9.33 6.53C7.78 6.53 6.53 7.78 6.53 9.33C6.53 10.87 7.78 12.13 9.33 12.13Z" fill="#000000" fill-opacity="1.000000" fill-rule="evenodd"/>
</svg>
