<svg width="62.021973" height="66.515625" viewBox="0 0 62.022 66.5156" fill="none" xmlns="http://www.w3.org/2000/svg" xmlns:xlink="http://www.w3.org/1999/xlink">
	<desc>
			Created with Pixso.
	</desc>
	<defs/>
	<path id="Vector" d="M61.66 18.99C62.08 19.45 62.13 20.13 61.81 20.67C61.51 21.17 61.25 21.6 60.95 22.01C57.87 26.29 56.17 28.52 53.13 32.83C52.35 33.91 50.49 37.23 49.77 38.37C49.76 38.38 49.76 38.4 49.74 38.41C49.09 39.38 47.49 39.32 46.98 38.25C46.98 38.25 46.98 38.23 46.97 38.23C46.21 36.57 45.6 34.85 44.89 33.15C42.96 28.48 40.26 24.43 35.78 21.78C34.15 20.82 34.13 20.11 35.39 18.72C35.86 18.2 36.34 17.68 36.85 17.22C41.82 12.79 45.25 7.32 47.81 1.22C47.97 0.84 48.29 0.55 48.64 0.25C49.1 -0.13 49.77 -0.08 50.17 0.36C50.51 0.71 50.82 1.09 51.01 1.51C51.43 2.48 51.54 3.58 51.8 4.62C53.18 10.3 56.26 14.82 60.93 18.3C61.18 18.49 61.41 18.73 61.66 18.99ZM49.21 5.39C47.6 8.08 46.25 10.84 44.41 13.25C42.52 15.7 40.17 17.79 38.01 20.05C43.49 23.32 46.65 28.51 48.56 34.87C51.37 29.08 55.24 24.47 59.49 20.17C52.77 15.05 51.18 12.73 49.21 5.39Z" fill="#000000" fill-opacity="1.000000" fill-rule="nonzero"/>
	<path id="Vector" d="M10.59 65.72C9.36 62.23 8.29 58.67 6.94 55.23C5.61 51.9 3.63 48.93 0.79 46.64C-0.25 45.8 -0.23 45.04 0.63 44.1C5.42 38.88 9.1 32.98 11.74 26.41C12.03 25.71 12.79 24.58 13.31 24.58C14.75 24.24 15.26 27.05 15.32 27.3C16.52 33.91 20.61 38.72 25.2 43.22C26.69 44.68 26.82 45.13 25.35 46.53C19.84 51.82 16.19 58.32 13.04 65.15C12.06 67.54 10.74 66.14 10.59 65.72ZM2.44 45.03C5.37 46.89 7.3 49.36 8.71 52.17C10.08 54.92 11.08 57.83 12.22 60.62C14.84 54.74 18.39 49.31 23.78 45.18C18.57 41.08 14.45 36.39 13.19 29.67C10.93 35.71 7.34 40.74 2.44 45.03Z" fill="#81ADC8" fill-opacity="1.000000" fill-rule="nonzero"/>
	<path id="Vector" d="M47.6 51.15C44.61 55.17 42.78 59.76 41.1 64.44C40.99 64.73 40.64 66.43 39.35 66.41C38.99 66.41 38.38 65.83 38.15 65.37C37.13 63.3 36.5 60.98 35.21 59.11C33.69 56.89 31.61 55.07 29.85 53.02C29.59 52.72 29.5 52.05 29.66 51.68C29.97 51 30.53 50.46 30.96 49.84C33.17 46.59 35.33 43.31 37.61 40.12C38.08 39.45 39.02 38.65 39.57 38.65C40.95 38.64 41.22 39.72 41.47 40.49C42.58 44.04 44.49 47.01 47.26 49.46C48.25 50.38 47.72 50.99 47.6 51.15ZM32.39 52.09C35.62 54.37 37.81 57.68 39.14 61.38C41.1 57.77 43.11 54.1 45.16 50.31C42.4 48.4 40.48 44.84 39.6 42.21C37.19 45.52 34.8 48.78 32.39 52.09Z" fill="#CD4631" fill-opacity="1.000000" fill-rule="nonzero"/>
</svg>
