<svg width="69.079834" height="30.624634" viewBox="0 0 69.0798 30.6246" fill="none" xmlns="http://www.w3.org/2000/svg" xmlns:xlink="http://www.w3.org/1999/xlink">
	<desc>
			Created with Pixso.
	</desc>
	<defs/>
	<path id="Vector" d="M17.52 3.39C15.43 4.58 13.43 5.56 11.42 6.91C8.47 8.88 5.65 11.05 2.77 13.13C2.02 13.66 1.31 14.56 0.35 13.69C-0.28 13.12 -0.06 12.22 0.99 10.93C1.61 10.18 2.27 9.48 3 8.87C7.11 5.35 11.62 2.59 16.52 0.65C17.36 0.33 18.25 0.06 19.14 0C20.82 -0.11 21.77 1.22 21.19 2.96C20.82 4.08 20.17 5.13 19.58 6.16C18.46 8.1 17.26 9.98 16.16 11.96C15.86 12.5 15.42 13.46 15.64 14C16.04 14.83 18.17 13.43 19.13 12.77C22.07 10.78 24.95 8.69 27.87 6.67C30.79 4.63 33.88 2.94 37.24 1.97C38.22 1.69 39.25 1.5 40.26 1.51C41.89 1.51 42.82 2.97 42.29 4.68C42.04 5.49 41.6 6.29 41.09 6.96C39.79 8.62 38.38 10.18 37.05 11.8C35.65 13.5 34.22 15.19 33.22 17.76C34.02 17.32 34.53 17.08 34.98 16.76C37.95 14.7 40.88 12.59 43.87 10.58C46.58 8.74 49.41 7.11 52.53 6.31C53.71 6.01 54.99 5.87 56.19 6.04C57.84 6.28 58.61 7.94 57.87 9.59C57.33 10.8 56.53 11.89 55.74 12.92C54.25 14.86 52.67 16.73 51.15 18.64C50.81 19.06 49.85 20.01 50.44 20.31C51.28 19.74 52.12 19.15 52.97 18.6C55.23 17.1 57.46 15.55 59.76 14.12C61.83 12.81 64.02 11.81 66.49 11.92C68.57 12.01 69.63 13.76 68.78 15.85C68.37 16.85 67.79 17.84 67.12 18.65C64.16 22.27 61.15 25.82 58.15 29.38C57.82 29.76 57.45 30.16 57.02 30.38C56.63 30.57 56 30.74 55.71 30.51C55.43 30.29 54.97 29.66 55.25 28.78C55.52 27.96 55.9 27.41 56.38 26.75C58.61 23.71 60.9 20.74 63.18 17.74C63.79 16.94 64.43 16.15 65.06 15.35C65.27 15.12 65.24 15.07 65.19 14.94C64.86 14.62 63.6 15.19 63.06 15.52C59.95 17.41 56.87 19.33 53.8 21.28C52.59 22.05 51.43 22.94 50.22 23.71C49.23 24.34 48.14 24.54 47.2 23.65C46.25 22.75 46.24 21.46 46.71 20.36C47.38 18.76 48.12 17.14 49.13 15.79C50.64 13.73 52.41 11.88 54.06 9.93C54.34 9.59 54.6 9.22 55.08 8.56C54.32 8.68 53.87 8.69 53.44 8.81C50.58 9.6 47.97 11.03 45.52 12.76C42.58 14.83 39.74 17.09 36.81 19.22C35.65 20.06 34.46 20.93 33.18 21.51C30.7 22.66 28.87 21.12 29.3 18.21C29.51 16.84 30.04 15.49 30.64 14.26C32.17 11.15 34.51 8.75 36.77 6.28C37.25 5.76 37.72 5.24 38.1 4.6C35.33 4.88 32.86 6.03 30.53 7.47C26.92 9.7 23.42 12.17 19.85 14.47C18.94 15.07 17.95 15.61 16.93 15.94C15.2 16.49 13.76 15.25 13.85 13.28C13.91 11.83 14.26 10.32 14.8 9C15.57 7.05 17.68 3.68 17.68 3.44C17.73 3.22 17.52 3.39 17.52 3.39Z" fill="#81ADC8" fill-opacity="1.000000" fill-rule="nonzero"/>
</svg>
