<svg width="20.000000" height="20.000000" viewBox="0 0 20 20" fill="none" xmlns="http://www.w3.org/2000/svg" xmlns:xlink="http://www.w3.org/1999/xlink">
	<desc>
			Created with Pixso.
	</desc>
	<defs>
		<clipPath id="clip301_7799">
			<rect id="tiktok" rx="-0.500000" width="19.000000" height="19.000000" transform="translate(0.500000 0.500000)" fill="white" fill-opacity="0"/>
		</clipPath>
	</defs>
	<rect id="tiktok" rx="-0.500000" width="19.000000" height="19.000000" transform="translate(0.500000 0.500000)" fill="#FFFFFF" fill-opacity="0"/>
	<g clip-path="url(#clip301_7799)">
		<path id="vector" d="M5.28 12.37C5.37 11.56 5.71 11.1 6.33 10.64C7.23 10.01 8.34 10.37 8.34 10.37L8.34 8.26C8.61 8.25 8.89 8.27 9.15 8.31L9.15 11.02C9.15 11.02 8.04 10.66 7.14 11.29C6.52 11.76 6.19 12.21 6.09 13.02C6.09 13.46 6.17 14.03 6.55 14.53C6.45 14.48 6.36 14.43 6.26 14.36C5.42 13.8 5.27 12.96 5.28 12.37ZM13.77 4.36C13.15 3.68 12.92 3 12.83 2.52L13.61 2.52C13.61 2.52 13.45 3.78 14.58 5.01L14.59 5.03C14.29 4.84 14.01 4.61 13.77 4.36ZM17.49 6.27L17.49 8.93C17.49 8.93 16.51 8.89 15.78 8.7C14.76 8.44 14.1 8.04 14.1 8.04C14.1 8.04 13.65 7.76 13.61 7.74L13.61 13.23C13.61 13.54 13.53 14.3 13.27 14.94C12.94 15.77 12.42 16.32 12.33 16.43C12.33 16.43 11.7 17.17 10.6 17.67C9.6 18.12 8.73 18.11 8.47 18.12C8.47 18.12 6.96 18.18 5.6 17.3C5.31 17.1 5.03 16.88 4.78 16.64L4.79 16.64C6.15 17.53 7.66 17.47 7.66 17.47C7.92 17.45 8.79 17.47 9.79 17.02C10.89 16.52 11.52 15.78 11.52 15.78C11.61 15.67 12.13 15.12 12.46 14.29C12.71 13.65 12.8 12.89 12.8 12.58L12.8 7.09C12.83 7.11 13.29 7.39 13.29 7.39C13.29 7.39 13.94 7.79 14.96 8.05C15.7 8.24 16.68 8.28 16.68 8.28L16.68 6.19C17.02 6.27 17.31 6.29 17.49 6.27Z" fill="#EE1D52" fill-opacity="1.000000" fill-rule="nonzero"/>
		<path id="vector" d="M16.68 6.19L16.68 8.27C16.68 8.27 15.7 8.24 14.96 8.05C13.94 7.79 13.29 7.39 13.29 7.39C13.29 7.39 12.84 7.11 12.8 7.09L12.8 12.58C12.8 12.89 12.71 13.65 12.46 14.29C12.13 15.12 11.61 15.67 11.52 15.78C11.52 15.78 10.89 16.52 9.79 17.02C8.79 17.47 7.92 17.45 7.66 17.47C7.66 17.47 6.15 17.53 4.79 16.64L4.78 16.64C4.64 16.5 4.5 16.35 4.38 16.2C3.94 15.67 3.68 15.04 3.61 14.87C3.61 14.87 3.61 14.86 3.61 14.86C3.5 14.55 3.28 13.81 3.31 13.09C3.36 11.82 3.81 11.03 3.93 10.84C4.24 10.3 4.65 9.83 5.13 9.43C5.56 9.08 6.04 8.81 6.57 8.61C7.13 8.39 7.73 8.27 8.34 8.26L8.34 10.37C8.34 10.37 7.23 10.01 6.33 10.64C5.71 11.1 5.37 11.56 5.28 12.37C5.27 12.96 5.43 13.8 6.26 14.36C6.36 14.43 6.45 14.48 6.55 14.53C6.69 14.72 6.87 14.88 7.07 15.02C7.89 15.53 8.57 15.57 9.45 15.24C10.03 15.01 10.47 14.51 10.67 13.95C10.8 13.6 10.8 13.24 10.8 12.88L10.8 2.52L12.83 2.52C12.92 3 13.15 3.68 13.77 4.36C14.01 4.61 14.29 4.84 14.59 5.03C14.68 5.12 15.14 5.58 15.73 5.86C16.03 6 16.35 6.12 16.68 6.19Z" fill="#000000" fill-opacity="1.000000" fill-rule="nonzero"/>
		<path id="vector" d="M2.8 14.22L2.8 14.22L2.85 14.36C2.85 14.34 2.83 14.29 2.8 14.22Z" fill="#69C9D0" fill-opacity="1.000000" fill-rule="nonzero"/>
		<path id="vector" d="M6.57 8.61C6.04 8.81 5.56 9.08 5.13 9.43C4.65 9.83 4.24 10.31 3.93 10.84C3.81 11.04 3.36 11.82 3.31 13.09C3.28 13.81 3.5 14.56 3.61 14.87C3.61 14.87 3.61 14.87 3.61 14.87C3.68 15.05 3.94 15.67 4.38 16.2C4.5 16.36 4.64 16.5 4.78 16.64C4.32 16.34 3.91 15.97 3.57 15.55C3.14 15.02 2.87 14.4 2.8 14.22C2.8 14.22 2.8 14.22 2.8 14.22L2.8 14.22C2.69 13.91 2.47 13.16 2.5 12.44C2.55 11.17 3 10.39 3.12 10.19C3.43 9.65 3.84 9.18 4.32 8.78C4.75 8.43 5.23 8.16 5.76 7.96C6.08 7.83 6.42 7.74 6.77 7.68C7.29 7.59 7.82 7.58 8.34 7.66L8.34 8.26C7.73 8.27 7.13 8.39 6.57 8.61Z" fill="#69C9D0" fill-opacity="1.000000" fill-rule="nonzero"/>
		<path id="vector" d="M12.83 2.52L10.8 2.52L10.8 12.88C10.8 13.24 10.8 13.6 10.67 13.95C10.47 14.51 10.03 15.01 9.45 15.24C8.57 15.57 7.89 15.53 7.07 15.02C6.87 14.88 6.69 14.72 6.55 14.53C7.24 14.89 7.86 14.88 8.64 14.58C9.22 14.36 9.66 13.85 9.86 13.29C9.99 12.94 9.99 12.59 9.99 12.23L9.99 1.87L12.8 1.87C12.8 1.87 12.76 2.13 12.83 2.52ZM16.68 5.61L16.68 6.19C16.35 6.12 16.03 6 15.73 5.86C15.14 5.58 14.68 5.12 14.59 5.03C14.7 5.09 14.81 5.15 14.92 5.21C15.63 5.55 16.34 5.65 16.68 5.61Z" fill="#69C9D0" fill-opacity="1.000000" fill-rule="nonzero"/>
	</g>
</svg>
