<svg width="20.000000" height="20.000000" viewBox="0 0 20 20" fill="none" xmlns="http://www.w3.org/2000/svg" xmlns:xlink="http://www.w3.org/1999/xlink">
	<desc>
			Created with Pixso.
	</desc>
	<defs>
		<radialGradient gradientTransform="translate(7.5 14.375) rotate(-55.3758) scale(15.9497 15.9498)" cx="0.000000" cy="0.000000" r="1.000000" id="paint_radial_301_7808_0" gradientUnits="userSpaceOnUse">
			<stop stop-color="#B13589"/>
			<stop offset="0.793090" stop-color="#C62F94"/>
			<stop offset="1.000000" stop-color="#8A3AC8"/>
		</radialGradient>
		<radialGradient gradientTransform="translate(6.87499 19.375) rotate(-65.1363) scale(14.1214 14.1214)" cx="0.000000" cy="0.000000" r="1.000000" id="paint_radial_301_7809_0" gradientUnits="userSpaceOnUse">
			<stop stop-color="#E0E8B7"/>
			<stop offset="0.444662" stop-color="#FB8A2E"/>
			<stop offset="0.714740" stop-color="#E2425C"/>
			<stop offset="1.000000" stop-color="#E2425C" stop-opacity="0.000000"/>
		</radialGradient>
		<radialGradient gradientTransform="translate(0.312503 1.875) rotate(-8.1301) scale(24.3068 5.19897)" cx="0.000000" cy="0.000000" r="1.000000" id="paint_radial_301_7810_0" gradientUnits="userSpaceOnUse">
			<stop offset="0.156701" stop-color="#406ADC"/>
			<stop offset="0.467799" stop-color="#6A45BE"/>
			<stop offset="1.000000" stop-color="#6A45BE" stop-opacity="0.000000"/>
		</radialGradient>
	</defs>
	<rect id="instagram" rx="-0.500000" width="19.000000" height="19.000000" transform="translate(0.500000 0.500000)" fill="#FFFFFF" fill-opacity="0"/>
	<rect id="bg" x="1.250000" y="1.250000" rx="8.750000" width="17.500000" height="17.500000" fill="url(#paint_radial_301_7808_0)" fill-opacity="1.000000"/>
	<rect id="bg" x="1.250000" y="1.250000" rx="8.750000" width="17.500000" height="17.500000" fill="url(#paint_radial_301_7809_0)" fill-opacity="1.000000"/>
	<rect id="bg" x="1.250000" y="1.250000" rx="8.750000" width="17.500000" height="17.500000" fill="url(#paint_radial_301_7810_0)" fill-opacity="1.000000"/>
	<path id="instagram" d="M5.32 6.63C5 7.27 5 8.11 5 9.79L5 10.2C5 11.88 5 12.72 5.32 13.36C5.61 13.92 6.07 14.38 6.63 14.67C7.27 15 8.11 15 9.8 15L10.2 15C11.88 15 12.72 15 13.36 14.67C13.92 14.38 14.38 13.92 14.67 13.36C15 12.72 15 11.88 15 10.2L15 9.79C15 8.11 15 7.27 14.67 6.63C14.38 6.07 13.92 5.61 13.36 5.32C12.72 5 11.88 5 10.2 5L9.8 5C8.11 5 7.27 5 6.63 5.32C6.07 5.61 5.61 6.07 5.32 6.63ZM10.2 6L9.8 6C8.94 6 8.36 6 7.91 6.03C7.47 6.07 7.24 6.13 7.09 6.21C6.71 6.4 6.4 6.71 6.21 7.09C6.13 7.24 6.07 7.47 6.03 7.91C6 8.36 6 8.94 6 9.79L6 10.2C6 11.05 6 11.63 6.03 12.08C6.07 12.52 6.13 12.75 6.21 12.9C6.4 13.28 6.71 13.59 7.09 13.78C7.24 13.86 7.47 13.92 7.91 13.96C8.36 13.99 8.94 14 9.8 14L10.2 14C11.05 14 11.63 13.99 12.08 13.96C12.52 13.92 12.75 13.86 12.9 13.78C13.28 13.59 13.59 13.28 13.78 12.9C13.86 12.75 13.92 12.52 13.96 12.08C13.99 11.63 14 11.05 14 10.2L14 9.79C14 8.94 13.99 8.36 13.96 7.91C13.92 7.47 13.86 7.24 13.78 7.09C13.59 6.71 13.28 6.4 12.9 6.21C12.75 6.13 12.52 6.07 12.08 6.03C11.63 6 11.05 6 10.2 6ZM13.5 7.25C13.5 7.66 13.16 8 12.75 8C12.33 8 12 7.66 12 7.25C12 6.83 12.33 6.5 12.75 6.5C13.16 6.5 13.5 6.83 13.5 7.25ZM10 12.5C11.38 12.5 12.5 11.38 12.5 10C12.5 8.61 11.38 7.5 10 7.5C8.61 7.5 7.5 8.61 7.5 10C7.5 11.38 8.61 12.5 10 12.5ZM10 11.5C10.82 11.5 11.5 10.82 11.5 10C11.5 9.17 10.82 8.5 10 8.5C9.17 8.5 8.5 9.17 8.5 10C8.5 10.82 9.17 11.5 10 11.5Z" fill="#FFFFFF" fill-opacity="1.000000" fill-rule="evenodd"/>
</svg>
