<svg width="193.728760" height="53.813599" viewBox="0 0 193.729 53.8136" fill="none" xmlns="http://www.w3.org/2000/svg" xmlns:xlink="http://www.w3.org/1999/xlink">
	<desc>
			Created with Pixso.
	</desc>
	<defs/>
	<path id="Spotify" d="M26.08 0C20.92 0 15.88 1.57 11.59 4.53C7.3 7.49 3.96 11.69 1.98 16.61C0.01 21.52 -0.51 26.93 0.5 32.15C1.5 37.37 3.99 42.16 7.64 45.93C11.29 49.69 15.93 52.25 20.99 53.29C26.06 54.33 31.3 53.8 36.07 51.76C40.84 49.72 44.91 46.28 47.78 41.85C50.64 37.43 52.17 32.22 52.17 26.9C52.17 19.77 49.42 12.92 44.53 7.88C39.64 2.83 33 0 26.08 0ZM38.06 38.8C37.95 38.99 37.8 39.15 37.63 39.29C37.45 39.42 37.25 39.51 37.05 39.56C36.84 39.61 36.62 39.62 36.41 39.59C36.19 39.55 35.99 39.47 35.81 39.36C29.69 35.49 21.98 34.63 12.9 36.76C12.7 36.81 12.48 36.82 12.27 36.78C12.06 36.75 11.86 36.67 11.68 36.55C11.5 36.44 11.35 36.29 11.22 36.11C11.1 35.93 11.01 35.73 10.97 35.51C10.92 35.3 10.91 35.08 10.94 34.86C10.98 34.64 11.05 34.43 11.17 34.25C11.28 34.06 11.42 33.89 11.6 33.77C11.77 33.64 11.97 33.54 12.18 33.49C22.11 31.15 30.64 32.16 37.52 36.5C37.88 36.73 38.14 37.1 38.25 37.53C38.35 37.96 38.28 38.42 38.06 38.8ZM41.24 31.48C40.95 31.94 40.5 32.27 39.98 32.39C39.46 32.52 38.91 32.44 38.45 32.16C30.54 27.61 21.19 26.48 12.47 29.03C12.2 29.18 11.89 29.28 11.58 29.3C11.27 29.32 10.96 29.26 10.67 29.14C10.39 29.02 10.13 28.84 9.92 28.6C9.71 28.37 9.55 28.08 9.46 27.78C9.37 27.47 9.35 27.15 9.39 26.83C9.44 26.51 9.56 26.21 9.73 25.95C9.9 25.68 10.13 25.46 10.4 25.3C10.67 25.14 10.97 25.04 11.28 25.01C16.15 23.57 21.25 23.14 26.28 23.76C31.31 24.37 36.17 26.02 40.58 28.6C41.02 28.9 41.34 29.36 41.47 29.9C41.59 30.44 41.51 31 41.24 31.48ZM41.51 23.85C33.18 18.7 19.26 18.23 11.22 20.74C10.6 20.93 9.93 20.86 9.36 20.55C8.79 20.24 8.37 19.7 8.18 19.06C7.99 18.43 8.06 17.74 8.36 17.15C8.66 16.56 9.18 16.12 9.8 15.93C19.03 13.05 34.33 13.61 44.01 19.51C44.51 19.88 44.85 20.43 44.98 21.05C45.1 21.67 45 22.31 44.68 22.85C44.37 23.39 43.87 23.79 43.28 23.97C42.69 24.15 42.06 24.09 41.51 23.81L41.51 23.85Z" fill="#1ED760" fill-opacity="1.000000" fill-rule="nonzero"/>
	<path id="Vector" d="M79.39 22.64C74.4 21.4 73.5 20.49 73.5 18.73C73.5 16.97 75.06 15.86 77.4 15.86C79.89 15.95 82.3 16.9 84.22 18.54C84.26 18.56 84.31 18.57 84.35 18.57C84.39 18.57 84.44 18.56 84.47 18.54C84.56 18.52 84.63 18.48 84.68 18.41L87.14 14.85C87.19 14.78 87.22 14.7 87.22 14.62C87.22 14.54 87.19 14.46 87.14 14.4C84.43 12.11 81.02 10.89 77.52 10.96C72.13 10.96 68.36 14.31 68.36 19.08C68.36 24.21 71.61 26.03 77.23 27.43C82.02 28.57 82.83 29.58 82.83 31.23C82.83 32.88 81.18 34.28 78.66 34.28C75.69 34.26 72.83 33.04 70.71 30.89C70.63 30.86 70.54 30.86 70.46 30.89C70.38 30.91 70.3 30.95 70.23 31.02L67.44 34.34C67.38 34.41 67.35 34.49 67.35 34.58C67.35 34.67 67.38 34.75 67.44 34.82C70.47 37.62 74.41 39.15 78.48 39.11C84.29 39.11 88.06 35.83 88.06 30.76C87.97 26.53 85.47 24.17 79.39 22.64Z" fill="#000000" fill-opacity="1.000000" fill-rule="nonzero"/>
	<path id="Vector" d="M101.13 17.55C99.93 17.54 98.74 17.82 97.66 18.36C96.57 18.9 95.62 19.69 94.88 20.66L94.88 18.3C94.88 18.21 94.84 18.13 94.78 18.07C94.72 18.01 94.64 17.98 94.55 17.98L90.03 17.98C89.95 17.98 89.87 18.01 89.8 18.07C89.74 18.13 89.71 18.21 89.7 18.3L89.7 44.5C89.7 44.59 89.73 44.68 89.8 44.74C89.86 44.81 89.94 44.84 90.03 44.84L94.51 44.84C94.6 44.84 94.68 44.81 94.74 44.74C94.81 44.68 94.84 44.59 94.84 44.5L94.84 36.27C95.61 37.21 96.57 37.96 97.65 38.47C98.73 38.98 99.9 39.23 101.09 39.22C105.77 39.22 110.52 35.5 110.52 28.37C110.52 21.24 105.82 17.55 101.13 17.55ZM105.3 28.29C105.37 29.05 105.3 29.83 105.07 30.57C104.84 31.3 104.47 31.98 103.97 32.56C103.48 33.14 102.87 33.61 102.19 33.93C101.51 34.26 100.78 34.43 100.03 34.45C99.28 34.43 98.54 34.24 97.86 33.92C97.18 33.59 96.57 33.13 96.07 32.55C95.56 31.98 95.18 31.3 94.94 30.57C94.69 29.83 94.6 29.06 94.66 28.29C94.6 27.52 94.7 26.74 94.94 26.01C95.19 25.28 95.57 24.61 96.07 24.03C96.57 23.46 97.18 23 97.86 22.67C98.54 22.35 99.28 22.17 100.03 22.14C100.79 22.16 101.53 22.33 102.22 22.66C102.91 22.99 103.52 23.46 104.02 24.05C104.53 24.63 104.9 25.32 105.13 26.06C105.36 26.81 105.44 27.6 105.36 28.37L105.3 28.29Z" fill="#000000" fill-opacity="1.000000" fill-rule="nonzero"/>
	<path id="Vector" d="M122.72 17.55C120.64 17.59 118.62 18.26 116.91 19.48C115.2 20.71 113.88 22.42 113.11 24.42C112.35 26.42 112.17 28.6 112.61 30.7C113.05 32.8 114.08 34.72 115.57 36.21C117.07 37.71 118.95 38.71 121 39.1C123.05 39.49 125.16 39.24 127.07 38.4C128.98 37.55 130.61 36.14 131.74 34.34C132.88 32.54 133.47 30.43 133.45 28.29C133.43 26.86 133.14 25.44 132.59 24.13C132.03 22.81 131.24 21.62 130.24 20.62C129.25 19.63 128.07 18.84 126.78 18.32C125.49 17.79 124.11 17.53 122.72 17.55ZM122.72 34.58C121.95 34.57 121.19 34.4 120.49 34.08C119.79 33.76 119.15 33.29 118.63 32.71C118.1 32.13 117.7 31.45 117.44 30.7C117.17 29.96 117.06 29.17 117.1 28.37C117.05 27.59 117.16 26.81 117.42 26.07C117.67 25.34 118.07 24.66 118.59 24.09C119.11 23.52 119.74 23.06 120.43 22.75C121.13 22.44 121.88 22.28 122.64 22.27C123.41 22.28 124.17 22.45 124.88 22.76C125.59 23.08 126.23 23.54 126.76 24.12C127.29 24.7 127.7 25.38 127.97 26.12C128.24 26.87 128.36 27.66 128.32 28.46C128.37 29.25 128.26 30.04 128 30.78C127.74 31.52 127.34 32.2 126.81 32.77C126.29 33.35 125.65 33.8 124.95 34.12C124.25 34.43 123.49 34.58 122.72 34.58Z" fill="#000000" fill-opacity="1.000000" fill-rule="nonzero"/>
	<path id="Vector" d="M146.34 17.98L141.4 17.98L141.4 12.78C141.4 12.7 141.37 12.61 141.31 12.55C141.25 12.48 141.17 12.45 141.09 12.44L136.61 12.44C136.52 12.44 136.44 12.48 136.38 12.54C136.31 12.61 136.28 12.69 136.28 12.78L136.28 17.98L134.07 17.98C134.03 17.98 133.99 17.99 133.95 18C133.91 18.02 133.88 18.04 133.85 18.07C133.82 18.1 133.8 18.14 133.78 18.18C133.77 18.22 133.76 18.26 133.76 18.3L133.76 22.28C133.76 22.36 133.79 22.45 133.85 22.51C133.91 22.57 133.99 22.61 134.07 22.62L136.15 22.62L136.15 32.88C136.15 37.03 138.23 39.13 142.11 39.13C143.57 39.17 145 38.8 146.27 38.06C146.32 38.03 146.37 37.99 146.39 37.94C146.43 37.89 146.44 37.84 146.44 37.78L146.44 34C146.44 33.94 146.43 33.88 146.4 33.83C146.38 33.78 146.34 33.73 146.29 33.7C146.24 33.67 146.19 33.65 146.13 33.65C146.07 33.65 146.01 33.67 145.96 33.7C145.15 34.12 144.25 34.34 143.34 34.34C141.9 34.34 141.25 33.68 141.25 32.2L141.25 22.62L146.19 22.62C146.28 22.62 146.36 22.58 146.42 22.52C146.49 22.45 146.52 22.37 146.52 22.28L146.52 18.3C146.52 18.24 146.51 18.17 146.47 18.11C146.44 18.06 146.39 18.01 146.34 17.98Z" fill="#000000" fill-opacity="1.000000" fill-rule="nonzero"/>
	<path id="Vector" d="M163.51 18L163.51 17.36C163.51 15.47 164.2 14.63 165.76 14.63C166.63 14.64 167.49 14.81 168.3 15.12C168.35 15.15 168.4 15.16 168.45 15.16C168.5 15.16 168.55 15.15 168.59 15.12C168.63 15.09 168.66 15.05 168.69 15C168.71 14.95 168.72 14.9 168.72 14.85L168.72 10.92C168.72 10.84 168.7 10.77 168.66 10.7C168.62 10.64 168.56 10.6 168.49 10.57C167.27 10.24 166.02 10.1 164.76 10.14C160.6 10.14 158.51 12.55 158.51 17.08L158.51 18.07L156.43 18.07C156.35 18.07 156.27 18.1 156.21 18.16C156.15 18.22 156.12 18.3 156.12 18.39L156.12 22.38C156.12 22.47 156.15 22.55 156.21 22.62C156.27 22.68 156.35 22.72 156.43 22.73L158.51 22.73L158.51 38.57C158.51 38.66 158.55 38.74 158.61 38.8C158.66 38.86 158.74 38.9 158.83 38.9L163.22 38.9C163.3 38.9 163.39 38.86 163.45 38.8C163.51 38.74 163.55 38.66 163.55 38.57L163.55 22.62L167.72 22.62L174.13 38.45C173.4 40.12 172.67 40.44 171.69 40.44C170.83 40.42 169.99 40.18 169.24 39.73C169.19 39.71 169.15 39.7 169.1 39.7C169.06 39.7 169.01 39.71 168.97 39.73C168.92 39.75 168.89 39.77 168.85 39.8C168.82 39.83 168.8 39.86 168.78 39.91L167.38 43.32C167.35 43.4 167.35 43.48 167.38 43.56C167.41 43.64 167.46 43.71 167.53 43.75C168.99 44.61 170.64 45.05 172.32 45.02C175.61 45.02 177.44 43.43 179.06 39.15L186.83 18.45C186.86 18.4 186.87 18.35 186.87 18.29C186.87 18.24 186.86 18.18 186.83 18.13C186.8 18.09 186.76 18.06 186.71 18.03C186.66 18.01 186.61 18 186.56 18L181.77 18C181.71 18.01 181.64 18.03 181.59 18.07C181.53 18.1 181.49 18.16 181.46 18.22L176.69 32.28L171.55 18.22C171.52 18.15 171.48 18.1 171.42 18.06C171.37 18.02 171.3 18 171.24 18L163.51 18Z" fill="#000000" fill-opacity="1.000000" fill-rule="nonzero"/>
	<path id="Vector" d="M153.56 17.98L149.08 17.98C148.9 17.98 148.75 18.14 148.75 18.33L148.75 38.47C148.75 38.66 148.9 38.81 149.08 38.81L153.56 38.81C153.74 38.81 153.89 38.66 153.89 38.47L153.89 18.33C153.89 18.14 153.74 17.98 153.56 17.98Z" fill="#000000" fill-opacity="1.000000" fill-rule="nonzero"/>
	<path id="Vector" d="M151.33 8.79C150.69 8.79 150.07 8.98 149.53 9.34C149 9.7 148.58 10.22 148.34 10.83C148.09 11.44 148.02 12.11 148.14 12.76C148.27 13.4 148.57 14 149.02 14.47C149.47 14.93 150.05 15.25 150.67 15.38C151.3 15.51 151.95 15.45 152.54 15.2C153.13 14.95 153.64 14.52 153.99 13.97C154.35 13.42 154.54 12.78 154.54 12.12C154.54 11.68 154.46 11.25 154.3 10.85C154.14 10.44 153.9 10.08 153.61 9.77C153.31 9.46 152.95 9.21 152.56 9.04C152.17 8.88 151.75 8.79 151.33 8.79Z" fill="#000000" fill-opacity="1.000000" fill-rule="nonzero"/>
	<path id="Vector" d="M190.56 24.44C190.14 24.45 189.74 24.37 189.35 24.2C188.97 24.04 188.62 23.8 188.33 23.5C188.04 23.2 187.81 22.84 187.65 22.45C187.49 22.05 187.41 21.63 187.42 21.2C187.42 20.34 187.75 19.51 188.34 18.89C188.94 18.28 189.74 17.94 190.58 17.94C190.99 17.93 191.4 18.02 191.79 18.18C192.17 18.34 192.52 18.58 192.81 18.88C193.1 19.18 193.33 19.54 193.49 19.94C193.65 20.33 193.73 20.75 193.72 21.18C193.72 22.05 193.39 22.88 192.8 23.49C192.2 24.1 191.4 24.44 190.56 24.44ZM190.56 18.26C189.99 18.26 189.44 18.42 188.97 18.75C188.5 19.07 188.13 19.53 187.91 20.07C187.69 20.6 187.63 21.2 187.74 21.77C187.85 22.34 188.12 22.87 188.52 23.28C188.92 23.69 189.43 23.98 189.99 24.09C190.54 24.2 191.12 24.14 191.64 23.92C192.16 23.69 192.61 23.31 192.92 22.82C193.23 22.34 193.39 21.76 193.39 21.18C193.39 20.8 193.32 20.42 193.18 20.06C193.04 19.71 192.84 19.39 192.57 19.12C192.31 18.85 192 18.63 191.66 18.48C191.32 18.34 190.95 18.26 190.58 18.26L190.56 18.26ZM191.27 21.52L192.14 22.81L191.39 22.81L190.6 21.63L189.91 21.63L189.91 22.81L189.27 22.81L189.27 19.4L190.75 19.4C191.52 19.4 192.04 19.81 192.04 20.47C192.04 20.71 191.97 20.94 191.84 21.13C191.7 21.32 191.51 21.46 191.29 21.52L191.27 21.52ZM190.73 19.98L189.91 19.98L189.91 21.05L190.73 21.05C191.14 21.05 191.39 20.86 191.39 20.51C191.39 20.17 191.16 19.98 190.75 19.98L190.73 19.98Z" fill="#000000" fill-opacity="1.000000" fill-rule="nonzero"/>
</svg>
