<svg width="300.000244" height="54.000000" viewBox="0 0 300 54" fill="none" xmlns="http://www.w3.org/2000/svg" xmlns:xlink="http://www.w3.org/1999/xlink">
	<desc>
			Created with Pixso.
	</desc>
	<defs/>
	<path id="Vector" d="M24.37 17.18L24.37 25.36L24.37 28.63L24.37 36.81L31.33 36.81L31.33 28.63L31.33 25.36L31.33 17.18L24.37 17.18Z" fill="#FAB908" fill-opacity="1.000000" fill-rule="nonzero"/>
	<path id="Vector" d="M3.48 28.53C5.4 28.53 6.96 27.02 6.96 25.15C6.96 23.29 5.4 21.78 3.48 21.78C1.55 21.78 0 23.29 0 25.15C0 27.02 1.55 28.53 3.48 28.53Z" fill="#0066D9" fill-opacity="1.000000" fill-rule="nonzero"/>
	<path id="Vector" d="M3.48 32.21C5.4 32.21 6.96 30.7 6.96 28.84C6.96 26.97 5.4 25.46 3.48 25.46C1.55 25.46 0 26.97 0 28.84C0 30.7 1.55 32.21 3.48 32.21Z" fill="#0066D9" fill-opacity="1.000000" fill-rule="nonzero"/>
	<path id="Vector" d="M6.96 25.16L0 25.16L0 28.84L6.96 28.84L6.96 25.16Z" fill="#0066D9" fill-opacity="1.000000" fill-rule="nonzero"/>
	<path id="Vector" d="M52.23 32.21C54.15 32.21 55.71 30.7 55.71 28.84C55.71 26.97 54.15 25.46 52.23 25.46C50.3 25.46 48.74 26.97 48.74 28.84C48.74 30.7 50.3 32.21 52.23 32.21Z" fill="#4285F4" fill-opacity="1.000000" fill-rule="nonzero"/>
	<path id="Vector" d="M52.23 28.53C54.15 28.53 55.71 27.02 55.71 25.15C55.71 23.29 54.15 21.78 52.23 21.78C50.3 21.78 48.74 23.29 48.74 25.15C48.74 27.02 50.3 28.53 52.23 28.53Z" fill="#4285F4" fill-opacity="1.000000" fill-rule="nonzero"/>
	<path id="Vector" d="M48.74 28.84L55.71 28.84L55.71 25.16L48.74 25.16L48.74 28.84Z" fill="#4285F4" fill-opacity="1.000000" fill-rule="nonzero"/>
	<path id="Vector" d="M15.51 39.58C17.43 39.58 18.99 38.06 18.99 36.2C18.99 34.34 17.43 32.83 15.51 32.83C13.58 32.83 12.02 34.34 12.02 36.2C12.02 38.06 13.58 39.58 15.51 39.58Z" fill="#EA4335" fill-opacity="1.000000" fill-rule="nonzero"/>
	<path id="Vector" d="M15.51 43.26C17.43 43.26 18.99 41.75 18.99 39.88C18.99 38.02 17.43 36.51 15.51 36.51C13.58 36.51 12.02 38.02 12.02 39.88C12.02 41.75 13.58 43.26 15.51 43.26Z" fill="#EA4335" fill-opacity="1.000000" fill-rule="nonzero"/>
	<path id="Vector" d="M18.99 36.2L12.02 36.2L12.02 39.88L18.99 39.88L18.99 36.2Z" fill="#EA4335" fill-opacity="1.000000" fill-rule="nonzero"/>
	<path id="Vector" d="M15.51 17.48C17.43 17.48 18.99 15.97 18.99 14.11C18.99 12.24 17.43 10.73 15.51 10.73C13.58 10.73 12.02 12.24 12.02 14.11C12.02 15.97 13.58 17.48 15.51 17.48Z" fill="#EA4335" fill-opacity="1.000000" fill-rule="nonzero"/>
	<path id="Vector" d="M15.51 29.45C17.43 29.45 18.99 27.94 18.99 26.07C18.99 24.21 17.43 22.7 15.51 22.7C13.58 22.7 12.02 24.21 12.02 26.07C12.02 27.94 13.58 29.45 15.51 29.45Z" fill="#EA4335" fill-opacity="1.000000" fill-rule="nonzero"/>
	<path id="Vector" d="M18.99 14.11L12.02 14.11L12.02 26.15L18.99 26.15L18.99 14.11Z" fill="#EA4335" fill-opacity="1.000000" fill-rule="nonzero"/>
	<path id="Vector" d="M40.2 21.17C42.12 21.17 43.68 19.66 43.68 17.79C43.68 15.93 42.12 14.42 40.2 14.42C38.27 14.42 36.72 15.93 36.72 17.79C36.72 19.66 38.27 21.17 40.2 21.17Z" fill="#34A853" fill-opacity="1.000000" fill-rule="nonzero"/>
	<path id="Vector" d="M40.2 17.48C42.12 17.48 43.68 15.97 43.68 14.11C43.68 12.24 42.12 10.73 40.2 10.73C38.27 10.73 36.72 12.24 36.72 14.11C36.72 15.97 38.27 17.48 40.2 17.48Z" fill="#34A853" fill-opacity="1.000000" fill-rule="nonzero"/>
	<path id="Vector" d="M36.71 17.79L43.68 17.79L43.68 14.11L36.71 14.11L36.71 17.79Z" fill="#34A853" fill-opacity="1.000000" fill-rule="nonzero"/>
	<path id="Vector" d="M27.85 10.43C29.77 10.43 31.33 8.92 31.33 7.05C31.33 5.19 29.77 3.68 27.85 3.68C25.93 3.68 24.37 5.19 24.37 7.05C24.37 8.92 25.93 10.43 27.85 10.43Z" fill="#FAB908" fill-opacity="1.000000" fill-rule="nonzero"/>
	<path id="Vector" d="M27.85 6.75C29.77 6.75 31.33 5.23 31.33 3.37C31.33 1.51 29.77 0 27.85 0C25.93 0 24.37 1.51 24.37 3.37C24.37 5.23 25.93 6.75 27.85 6.75Z" fill="#FAB908" fill-opacity="1.000000" fill-rule="nonzero"/>
	<path id="Vector" d="M24.37 7.05L31.33 7.05L31.33 3.37L24.37 3.37L24.37 7.05Z" fill="#FAB908" fill-opacity="1.000000" fill-rule="nonzero"/>
	<path id="Vector" d="M27.85 54C29.77 54 31.33 52.48 31.33 50.62C31.33 48.76 29.77 47.25 27.85 47.25C25.93 47.25 24.37 48.76 24.37 50.62C24.37 52.48 25.93 54 27.85 54Z" fill="#FAB908" fill-opacity="1.000000" fill-rule="nonzero"/>
	<path id="Vector" d="M27.85 50.31C29.77 50.31 31.33 48.8 31.33 46.94C31.33 45.07 29.77 43.56 27.85 43.56C25.93 43.56 24.37 45.07 24.37 46.94C24.37 48.8 25.93 50.31 27.85 50.31Z" fill="#FAB908" fill-opacity="1.000000" fill-rule="nonzero"/>
	<path id="Vector" d="M24.37 50.62L31.33 50.62L31.33 46.94L24.37 46.94L24.37 50.62Z" fill="#FAB908" fill-opacity="1.000000" fill-rule="nonzero"/>
	<path id="Vector" d="M40.2 43.26C42.12 43.26 43.68 41.75 43.68 39.88C43.68 38.02 42.12 36.51 40.2 36.51C38.27 36.51 36.72 38.02 36.72 39.88C36.72 41.75 38.27 43.26 40.2 43.26Z" fill="#34A853" fill-opacity="1.000000" fill-rule="nonzero"/>
	<path id="Vector" d="M40.2 31.29C42.12 31.29 43.68 29.78 43.68 27.92C43.68 26.05 42.12 24.54 40.2 24.54C38.27 24.54 36.72 26.05 36.72 27.92C36.72 29.78 38.27 31.29 40.2 31.29Z" fill="#34A853" fill-opacity="1.000000" fill-rule="nonzero"/>
	<path id="Vector" d="M36.71 39.88L43.68 39.88L43.68 27.92L36.71 27.92L36.71 39.88Z" fill="#34A853" fill-opacity="1.000000" fill-rule="nonzero"/>
	<path id="Vector" d="M27.85 20.55C29.77 20.55 31.33 19.04 31.33 17.18C31.33 15.31 29.77 13.8 27.85 13.8C25.93 13.8 24.37 15.31 24.37 17.18C24.37 19.04 25.93 20.55 27.85 20.55Z" fill="#FAB908" fill-opacity="1.000000" fill-rule="nonzero"/>
	<path id="Vector" d="M27.85 40.19C29.77 40.19 31.33 38.68 31.33 36.81C31.33 34.95 29.77 33.44 27.85 33.44C25.93 33.44 24.37 34.95 24.37 36.81C24.37 38.68 25.93 40.19 27.85 40.19Z" fill="#FAB908" fill-opacity="1.000000" fill-rule="nonzero"/>
	<path id="Vector" d="M183.93 35.46L181.03 35.46L181.03 13.59L188.72 13.59C190.63 13.59 192.29 14.21 193.68 15.44C195.08 16.67 195.78 18.23 195.78 20.1C195.78 21.97 195.08 23.53 193.68 24.76C192.29 25.99 190.63 26.61 188.72 26.61L183.93 26.61L183.93 35.46ZM183.93 23.92L188.78 23.92C190 23.92 190.98 23.52 191.71 22.73C192.45 21.93 192.82 21.06 192.82 20.1C192.82 19.14 192.45 18.27 191.71 17.47C190.98 16.68 190 16.28 188.78 16.28L183.93 16.28L183.93 23.92ZM198.18 22.3C199.68 20.77 201.58 20.01 203.89 20.01C206.2 20.01 208.1 20.77 209.59 22.28C211.08 23.8 211.83 25.7 211.83 27.98C211.83 30.26 211.08 32.16 209.59 33.68C208.1 35.19 206.2 35.95 203.89 35.95C201.58 35.95 199.68 35.19 198.18 33.68C196.69 32.16 195.95 30.26 195.95 27.98C195.95 25.7 196.69 23.81 198.18 22.3ZM200.33 31.92C201.34 32.9 202.52 33.39 203.89 33.39C205.25 33.39 206.44 32.89 207.43 31.91C208.43 30.92 208.93 29.61 208.93 27.98C208.93 26.35 208.43 25.04 207.43 24.06C206.44 23.07 205.25 22.57 203.89 22.57C202.52 22.57 201.34 23.07 200.34 24.06C199.34 25.04 198.85 26.35 198.85 27.98C198.85 29.61 199.34 30.92 200.33 31.92ZM220.57 35.95C218.57 35.95 216.85 35.19 215.4 33.66C213.95 32.14 213.22 30.24 213.22 27.98C213.22 25.72 213.95 23.83 215.4 22.3C216.85 20.77 218.57 20.01 220.57 20.01C221.74 20.01 222.8 20.25 223.73 20.74C224.67 21.23 225.37 21.84 225.83 22.57L225.96 22.57L225.83 20.5L225.83 13.59L228.73 13.59L228.73 35.46L225.96 35.46L225.96 33.39L225.83 33.39C225.37 34.12 224.67 34.73 223.73 35.22C222.8 35.71 221.74 35.95 220.57 35.95ZM221.04 33.39C222.41 33.39 223.57 32.9 224.52 31.92C225.48 30.94 225.96 29.63 225.96 27.98C225.96 26.33 225.48 25.02 224.52 24.04C223.57 23.06 222.41 22.57 221.04 22.57C219.7 22.57 218.54 23.07 217.57 24.06C216.61 25.04 216.12 26.35 216.12 27.98C216.12 29.61 216.61 30.92 217.57 31.91C218.54 32.89 219.7 33.39 221.04 33.39ZM238.79 35.95C236.48 35.95 234.58 35.19 233.09 33.68C231.6 32.16 230.85 30.26 230.85 27.98C230.85 25.7 231.6 23.8 233.09 22.28C234.58 20.77 236.48 20.01 238.79 20.01C240.51 20.01 241.94 20.42 243.08 21.23C244.21 22.04 245.04 23.07 245.57 24.32L242.92 25.38C242.12 23.51 240.68 22.57 238.6 22.57C237.32 22.57 236.19 23.08 235.21 24.1C234.24 25.12 233.75 26.41 233.75 27.98C233.75 29.55 234.24 30.84 235.21 31.86C236.19 32.88 237.32 33.39 238.6 33.39C240.77 33.39 242.26 32.45 243.08 30.58L245.66 31.65C245.14 32.87 244.29 33.89 243.12 34.72C241.96 35.54 240.51 35.95 238.79 35.95ZM252.54 35.95C250.9 35.95 249.53 35.5 248.43 34.58C247.32 33.66 246.77 32.45 246.77 30.94C246.77 29.31 247.42 28.04 248.73 27.11C250.03 26.18 251.64 25.72 253.55 25.72C255.25 25.72 256.65 26.03 257.74 26.64L257.74 26.21C257.74 25.11 257.35 24.23 256.57 23.57C255.8 22.91 254.84 22.57 253.71 22.57C252.87 22.57 252.1 22.77 251.42 23.15C250.74 23.54 250.27 24.07 250.02 24.74L247.37 23.64C247.73 22.75 248.43 21.92 249.48 21.15C250.53 20.39 251.92 20.01 253.64 20.01C255.62 20.01 257.26 20.57 258.56 21.69C259.86 22.81 260.51 24.39 260.51 26.42L260.51 35.46L257.74 35.46L257.74 33.39L257.61 33.39C256.46 35.1 254.77 35.95 252.54 35.95ZM253.01 33.39C254.21 33.39 255.3 32.95 256.27 32.09C257.25 31.22 257.74 30.2 257.74 29.02C256.92 28.37 255.69 28.04 254.05 28.04C252.64 28.04 251.58 28.34 250.87 28.93C250.16 29.52 249.8 30.21 249.8 31C249.8 31.74 250.12 32.32 250.78 32.75C251.43 33.17 252.17 33.39 253.01 33.39ZM269 35.95C267.28 35.95 265.85 35.55 264.73 34.73C263.6 33.92 262.78 32.9 262.26 31.68L264.84 30.64C265.66 32.51 267.06 33.45 269.03 33.45C269.93 33.45 270.68 33.25 271.25 32.87C271.83 32.48 272.12 31.97 272.12 31.34C272.12 30.36 271.42 29.7 270.01 29.36L266.89 28.62C265.9 28.38 264.97 27.91 264.08 27.23C263.2 26.55 262.76 25.63 262.76 24.47C262.76 23.14 263.36 22.07 264.57 21.25C265.78 20.42 267.21 20.01 268.87 20.01C270.24 20.01 271.46 20.31 272.53 20.91C273.6 21.51 274.37 22.37 274.83 23.49L272.31 24.5C271.74 23.17 270.56 22.51 268.78 22.51C267.92 22.51 267.19 22.69 266.6 23.03C266.01 23.38 265.72 23.85 265.72 24.44C265.72 25.29 266.41 25.87 267.77 26.18L270.83 26.88C272.28 27.21 273.35 27.77 274.04 28.56C274.74 29.36 275.08 30.25 275.08 31.25C275.08 32.59 274.51 33.71 273.38 34.61C272.25 35.51 270.79 35.95 269 35.95ZM283.76 35.71C282.14 35.71 280.91 35.29 280.05 34.46C279.2 33.62 278.78 32.44 278.78 30.91L278.78 23.06L276.07 23.06L276.07 20.5L278.78 20.5L278.78 15.92L281.68 15.92L281.68 20.5L285.46 20.5L285.46 23.06L281.68 23.06L281.68 30.7C281.68 32.33 282.37 33.14 283.76 33.14C284.28 33.14 284.72 33.06 285.08 32.9L286.09 35.31C285.46 35.58 284.68 35.71 283.76 35.71ZM293.91 35.95C292.19 35.95 290.77 35.55 289.64 34.73C288.52 33.92 287.69 32.9 287.17 31.68L289.75 30.64C290.57 32.51 291.97 33.45 293.94 33.45C294.85 33.45 295.59 33.25 296.17 32.87C296.75 32.48 297.03 31.97 297.03 31.34C297.03 30.36 296.33 29.7 294.92 29.36L291.8 28.62C290.81 28.38 289.88 27.91 289 27.23C288.11 26.55 287.67 25.63 287.67 24.47C287.67 23.14 288.28 22.07 289.49 21.25C290.69 20.42 292.13 20.01 293.79 20.01C295.15 20.01 296.37 20.31 297.44 20.91C298.51 21.51 299.28 22.37 299.74 23.49L297.22 24.5C296.66 23.17 295.48 22.51 293.69 22.51C292.83 22.51 292.11 22.69 291.52 23.03C290.93 23.38 290.64 23.85 290.64 24.44C290.64 25.29 291.32 25.87 292.68 26.18L295.74 26.88C297.19 27.21 298.26 27.77 298.96 28.56C299.65 29.36 300 30.25 300 31.25C300 32.59 299.43 33.71 298.29 34.61C297.16 35.51 295.7 35.95 293.91 35.95Z" fill="#14142B" fill-opacity="1.000000" fill-rule="evenodd"/>
	<path id="Vector" d="M70.93 23.42C70.93 16.5 76.91 10.89 84.05 10.89C87.99 10.89 90.79 12.39 92.91 14.35L90.4 16.76C88.9 15.37 86.86 14.3 84.05 14.3C78.85 14.3 74.79 18.36 74.79 23.39C74.79 28.43 78.85 32.48 84.05 32.48C87.42 32.48 89.34 31.17 90.57 29.98C91.58 29 92.25 27.59 92.49 25.68L84.05 25.68L84.05 22.27L95.94 22.27C96.06 22.89 96.14 23.61 96.14 24.42C96.14 27 95.42 30.17 93.08 32.41C90.79 34.7 87.89 35.92 84.05 35.92C76.91 35.92 70.93 30.31 70.93 23.42ZM105.62 19.96C110.22 19.96 113.96 23.34 113.96 28.02C113.96 32.68 110.22 36.09 105.62 36.09C101.01 36.09 97.27 32.68 97.27 28.02C97.27 23.34 101.01 19.96 105.62 19.96ZM105.62 32.89C108.13 32.89 110.32 30.89 110.32 28C110.32 25.09 108.13 23.11 105.62 23.11C103.08 23.11 100.91 25.09 100.91 28C100.91 30.89 103.11 32.89 105.62 32.89ZM123.84 19.96C128.44 19.96 132.18 23.34 132.18 28.02C132.18 32.68 128.44 36.09 123.84 36.09C119.23 36.09 115.49 32.68 115.49 28.02C115.49 23.34 119.23 19.96 123.84 19.96ZM123.84 32.89C126.35 32.89 128.54 30.89 128.54 28C128.54 25.09 126.37 23.11 123.84 23.11C121.3 23.11 119.13 25.09 119.13 28C119.13 30.89 121.32 32.89 123.84 32.89ZM146.19 20.22L149.69 20.22L149.69 34.7C149.69 40.67 146.07 43.1 141.78 43.1C137.75 43.1 135.31 40.48 134.4 38.33L137.57 37.04C138.14 38.35 139.52 39.91 141.76 39.91C144.49 39.91 146.19 38.26 146.19 35.18L146.19 34.01L146.07 34.01C145.25 34.99 143.68 35.85 141.69 35.85C137.52 35.85 133.71 32.32 133.71 27.81C133.71 23.25 137.52 19.72 141.69 19.72C143.68 19.72 145.25 20.58 146.07 21.53L146.19 21.53L146.19 20.22ZM142 32.68C144.49 32.68 146.46 30.65 146.44 27.81C146.44 24.97 144.49 22.89 142 22.89C139.49 22.89 137.38 24.97 137.38 27.81C137.38 30.62 139.49 32.68 142 32.68ZM152.17 35.54L152.17 11.84L155.82 11.84L155.82 35.54L152.17 35.54ZM165.84 32.89C167.71 32.89 168.99 32.01 169.95 30.67L172.78 32.51C171.85 33.82 169.65 36.09 165.84 36.09C161.11 36.09 157.59 32.53 157.59 28.02C157.59 23.23 161.16 19.96 165.44 19.96C169.75 19.96 171.87 23.27 172.56 25.09L172.93 25.99L161.8 30.46C162.66 32.05 163.97 32.89 165.84 32.89ZM165.57 23.06C163.7 23.06 161.11 24.66 161.21 27.76L168.64 24.78C168.25 23.75 167.02 23.06 165.57 23.06Z" fill="#14142B" fill-opacity="1.000000" fill-rule="nonzero"/>
</svg>
