<svg width="211.081299" height="137.197998" viewBox="0 0 211.081 137.198" fill="none" xmlns="http://www.w3.org/2000/svg" xmlns:xlink="http://www.w3.org/1999/xlink">
	<desc>
			Created with Pixso.
	</desc>
	<defs/>
	<path id="Vector" d="M175.71 70.75C170.11 72.29 165.41 73.71 160.64 74.86C152.57 76.85 144.5 78.44 136.08 76.9C127.54 75.32 121.78 70.46 119.66 62.22C118.37 57.16 118.46 51.76 118.12 46.52C118 44.47 118.45 42.35 118.72 39.28C115.35 42.37 112.74 44.85 110.03 47.21C103.43 53.01 97.07 59.08 90.12 64.41C80.64 71.75 71.44 70.22 64.39 60.42C61.63 56.58 59.78 52.03 57.56 47.76C56.9 46.47 56.43 45.11 55.76 43.52C51.93 50.93 48.4 58.03 44.62 64.93C35.79 81.04 22.13 76.91 14.25 66.86C12.14 64.17 10.65 60.91 9.16 57.78C8.25 55.65 8.55 53.28 10.91 52.29C13.04 51.37 14.65 52.81 15.81 54.66C16.98 56.46 18.04 58.37 19.39 60C20.97 61.91 22.59 63.83 24.51 65.39C29.93 69.78 34.42 69.38 38.52 63.72C41.43 59.73 43.77 55.3 46.12 50.95C48.31 46.91 50.33 42.73 52.34 38.56C53.4 36.42 54.54 34.31 57.2 34.17C60.25 34 61.44 36.41 62.55 38.63C63.98 41.44 64.98 44.45 66.56 47.18C68.52 50.64 70.56 54.09 73.01 57.16C76.33 61.32 79.36 61.92 83.93 59.17C88.3 56.54 92.62 53.6 96.51 50.3C104.82 43.17 112.85 35.8 120.89 28.39C122.8 26.64 124.66 25.57 127.08 26.7C129.39 27.76 129.66 29.94 129.41 32.24C128.97 36.34 128.34 40.48 128.11 44.59C127.92 48.2 127.79 51.91 128.26 55.47C129.49 64.98 134.12 69.09 143.65 69.84C150.81 70.42 157.86 69.59 164.79 67.88C169.79 66.66 174.69 65.12 179.61 63.7C182.21 62.95 184.9 62.17 186.9 64.79C188.76 67.28 187.68 69.85 186.49 72.3C185.97 73.32 185.3 74.27 184.67 75.23C183.37 77.13 182.17 79.15 180.68 80.92C169.74 94.17 171.54 107.83 179.44 121.54C180.91 124.06 183.17 126.14 185.14 128.37C186.1 129.47 187.43 130.33 188.25 131.52C188.85 132.37 189.37 133.87 188.97 134.59C188.55 135.39 187.05 135.86 186.1 136.05C184.03 136.42 181.59 135.54 180 134.37C176.86 132.02 173.75 129.37 171.45 126.25C166.32 119.35 163.59 111.35 162.28 102.84C161.16 95.59 163.22 89.02 167.04 82.99C169.59 79.08 172.41 75.41 175.71 70.75Z" fill="#000000" fill-opacity="1.000000" fill-rule="nonzero"/>
</svg>
