<svg width="80.493835" height="80.805176" viewBox="0 0 80.4938 80.8052" fill="none" xmlns="http://www.w3.org/2000/svg" xmlns:xlink="http://www.w3.org/1999/xlink">
	<desc>
			Created with Pixso.
	</desc>
	<defs/>
	<path id="Vector" d="M77.66 50.25C73.61 49.21 66.79 48.1 64.28 46.38C63.24 45.67 63.36 44.89 63.55 44.34C63.73 43.83 64.77 43.3 65.41 43.34C66.85 43.39 68.29 43.7 69.67 44.09C72.75 44.93 75.82 45.8 78.84 46.8C80.45 47.33 80.96 48.55 80.03 49.34C79.48 49.79 78.97 50.25 77.66 50.25Z" fill="#CD4631" fill-opacity="1.000000" fill-rule="nonzero"/>
	<path id="Vector" d="M13.85 78.41C14.04 77.45 14.4 76.94 14.93 76.19C16.99 73.31 19.14 70.48 21.26 67.66C21.38 67.49 21.53 67.31 21.69 67.18C22.42 66.56 23.24 65.83 24.19 66.51C25.14 67.2 24.81 68.22 24.3 69.04C22.19 72.49 20.03 75.91 17.85 79.32C17.52 79.85 16.95 80.31 16.39 80.58C14.98 81.26 13.75 80.33 13.85 78.41Z" fill="#CD4631" fill-opacity="1.000000" fill-rule="nonzero"/>
	<path id="Vector" d="M59.41 77.77C59.41 78.6 58.77 79.18 58.3 79.27C57.66 79.4 57.11 79.29 56.2 78.67C55.89 78.47 55.71 77.98 55.53 77.59C54.2 74.71 52.85 71.85 51.55 68.95C51.22 68.24 50.9 67.42 50.95 66.67C51.01 66 51.42 65.03 51.97 64.8C52.5 64.56 53.21 64.49 54.05 65.31C54.36 65.6 54.65 66.09 54.85 66.55C56.16 69.59 57.48 72.63 58.75 75.7C58.99 76.28 59.14 76.92 59.41 77.77Z" fill="#CD4631" fill-opacity="1.000000" fill-rule="nonzero"/>
	<path id="Vector" d="M1.55 52.65C0.71 52.42 0.16 52.02 0.04 51.47C-0.13 50.78 0.22 49.85 0.62 49.19C0.93 48.7 1.64 48.39 2.24 48.19C5.25 47.19 8.28 46.2 11.32 45.27C11.83 45.11 12.49 45.05 12.98 45.22C13.78 45.49 14.13 46.13 13.47 46.89C13.11 47.33 12.69 47.79 12.2 48.02C9.35 49.45 6.49 50.81 3.61 52.16C3.08 52.4 2.37 52.91 1.55 52.65Z" fill="#CD4631" fill-opacity="1.000000" fill-rule="nonzero"/>
	<path id="Vector" d="M63.31 21.37C62.91 21.21 62.56 20.55 62.54 20.12C62.53 19.51 62.71 18.79 63.07 18.29C64.77 15.96 66.55 13.66 68.32 11.38C68.58 11.04 68.92 10.76 69.27 10.49C70.05 9.89 71.08 9.36 71.77 10.27C72.17 10.8 72.3 12.15 71.91 12.61C69.58 15.45 67.07 18.17 64.57 20.88C64.37 21.12 63.97 21.5 63.31 21.37Z" fill="#CD4631" fill-opacity="1.000000" fill-rule="nonzero"/>
	<path id="Vector" d="M4.87 17.42C5.89 17.73 6.67 17.91 7.42 18.18C9.59 18.97 11.76 19.77 13.91 20.59C14.51 20.83 15.15 21.06 15.64 21.45C15.99 21.72 16.37 22.41 16.24 22.67C16.02 23.09 15.7 23.62 14.95 23.56C14.64 23.54 14.24 23.52 13.89 23.43C11.45 22.78 9.01 22.16 6.58 21.43C5.76 21.19 4.9 20.84 4.25 20.32C3.77 19.93 3.34 19.08 3.46 18.57C3.57 18.09 3.97 17.42 4.87 17.42Z" fill="#CD4631" fill-opacity="1.000000" fill-rule="nonzero"/>
	<path id="Vector" d="M38.23 9.87C38.21 10.09 38.19 10.31 38.12 10.51C37.81 11.4 37.61 12.4 36.35 12.31C35.02 12.22 34.96 11.13 34.98 10.24C35.04 8.08 35.24 5.93 35.4 3.76C35.47 2.98 35.57 2.18 35.78 1.43C36 0.66 36.31 -0.12 37.37 0.01C38.35 0.14 38.68 0.79 38.7 1.67C38.7 2.62 38.41 8.08 38.23 9.87Z" fill="#CD4631" fill-opacity="1.000000" fill-rule="nonzero"/>
</svg>
