<svg width="125.141113" height="120.632568" viewBox="0 0 125.141 120.633" fill="none" xmlns="http://www.w3.org/2000/svg" xmlns:xlink="http://www.w3.org/1999/xlink">
	<desc>
			Created with Pixso.
	</desc>
	<defs/>
	<path id="Vector" d="M59.08 58.58C59.58 56.58 59.87 54.96 60.41 53.38C65.83 37.38 74.54 23.13 84.45 9.58C85.62 8 87.08 6.5 88.7 5.5C89.58 4.96 91.33 5.04 92.33 5.58C93.08 6 93.62 7.63 93.45 8.54C93.16 10.29 92.54 12.08 91.66 13.67C85.91 24.13 80.12 34.54 74.24 44.92C72.04 48.79 69.7 52.63 67.41 56.46C66.66 57.75 65.83 59 64.95 60.17C63.99 61.5 62.54 62.29 61.08 61.42C60.12 60.83 59.08 60.42 59.08 58.58Z" fill="#CD4631" fill-opacity="1.000000" fill-rule="nonzero"/>
	<path id="Vector" d="M118.08 120.63C116.08 120.29 113.74 120.04 111.49 119.54C102.62 117.54 93.74 115.54 84.91 113.46C82.99 113 81.12 112.21 79.41 111.29C77.12 110.09 76.33 108.38 76.7 106.5C77.08 104.63 78.58 103.46 81.2 103.42C82.99 103.38 84.91 103.42 86.62 103.84C97.83 106.67 109.04 109.59 120.2 112.54C121.45 112.88 122.74 113.46 123.7 114.29C126.12 116.34 125.37 119.54 122.29 120.34C121.08 120.63 119.7 120.5 118.08 120.63Z" fill="#CD4631" fill-opacity="1.000000" fill-rule="nonzero"/>
	<path id="Vector" d="M0.99 8.92C1.16 6.96 1.58 5 2.08 3.09C2.54 1.38 3.7 0.17 5.58 0C7.16 -0.12 8.87 1.46 9.12 3.54C9.45 6.34 9.74 9.17 9.62 11.96C9.24 20.38 8.7 28.84 8.12 37.25C7.91 40.04 7.54 42.84 7.08 45.63C6.91 46.59 6.58 47.59 6.04 48.34C4.58 50.46 1.91 50.29 0.87 48C0.29 46.71 0.04 45.13 0.04 43.71C-0.17 39.04 0.45 15.84 0.99 8.92Z" fill="#CD4631" fill-opacity="1.000000" fill-rule="nonzero"/>
</svg>
