<svg width="198.678574" height="173.271973" viewBox="0 0 198.679 173.272" fill="none" xmlns="http://www.w3.org/2000/svg" xmlns:xlink="http://www.w3.org/1999/xlink">
	<desc>
			Created with Pixso.
	</desc>
	<defs/>
	<path id="Vector" d="M85.36 60.66C82.83 56.66 80.98 53.72 79.12 50.82C71.66 39.07 64.11 27.33 56.76 15.51C54.99 12.68 53.54 9.49 52.8 6.29C52.4 4.39 53.16 1.59 54.47 0.3C55.23 -0.47 58.65 0.33 59.97 1.48C63.21 4.24 66.16 7.42 68.8 10.76C76.99 21.22 84.99 31.86 93.37 42.86C97.02 36.71 100.5 30.54 104.32 24.59C107.25 19.98 110.55 15.51 113.91 11.19C116.08 8.38 119.08 6.41 122.68 8.48C126.43 10.61 126.45 14.26 124.96 17.76C120.58 28.21 116 38.53 111.55 48.95C110.47 51.41 109.54 53.93 108.53 56.43C108.78 56.94 113.34 55.3 115.53 54.41C134.24 46.72 152.92 39.1 171.71 31.61C174.34 30.56 177.35 29.99 180.18 29.97C181.68 29.96 183.95 31.33 184.43 32.6C184.91 33.87 184.11 36.36 183 37.37C180.9 39.29 178.31 40.77 175.7 42C158.46 50.27 141.17 58.45 123.9 66.68C122.01 67.58 120.08 68.54 117.24 69.92C126.5 72.91 134.89 75.46 143.17 78.3C159.81 84.07 176.43 89.98 193.03 95.85C194.05 96.22 195.12 96.65 195.9 97.18C201.03 100.61 198.28 106 193.78 105.01C188.28 103.83 182.66 102.85 177.23 101.28C157.81 95.6 138.48 89.71 119.11 83.92C118.7 83.8 118.29 83.79 116.98 83.64C120.5 89.74 123.75 95.35 127.02 100.94C133.17 111.53 139.46 122.06 145.41 132.74C146.99 135.61 148.04 138.98 148.47 142.22C148.96 145.64 146.32 147.35 143.55 145.36C140.19 142.89 136.95 139.8 134.65 136.35C123.41 119.56 112.51 102.54 101.5 85.59C100.27 83.69 99.05 81.79 97.28 78.96C93.49 86.83 90.13 93.92 86.63 100.96C76.2 121.88 65.76 142.8 55.26 163.69C54.08 165.99 52.64 168.23 51.01 170.22C48.78 172.96 45.81 174.16 42.45 172.52C39.3 170.96 38.28 168.02 38.95 164.73C39.59 161.6 40.51 158.49 41.74 155.55C49.74 136.34 57.83 117.2 65.9 98.02C66.51 96.61 67.03 95.21 68.02 92.75C65.75 93.65 64.19 94.22 62.64 94.88C45.32 102.22 27.98 109.59 10.62 116.92C8.67 117.74 6.54 118.5 4.44 118.56C3.01 118.61 0.88 117.71 0.26 116.58C-0.37 115.46 0.26 113.28 0.77 112.03C2.38 108.13 5.19 107.23 7.95 105.74C24.2 96.93 40.59 88.31 57.02 79.78C62.95 76.71 69.11 74.1 76.5 70.71C66.38 67.91 57.56 65.59 48.85 62.99C40.48 60.48 32.23 57.69 23.9 54.99C23.01 54.72 22.18 54.22 21.43 53.79C17.53 51.64 21.6 48.23 22.89 48.42C31.8 49.7 40.75 51.07 49.57 52.89C59.99 55.14 82.85 60.52 85.36 60.66Z" fill="#000000" fill-opacity="1.000000" fill-rule="nonzero"/>
</svg>
