<svg width="629.565430" height="592.011719" viewBox="0 0 629.565 592.012" fill="none" xmlns="http://www.w3.org/2000/svg" xmlns:xlink="http://www.w3.org/1999/xlink">
	<desc>
			Created with Pixso.
	</desc>
	<defs/>
	<path d="M198.61 83.95C198.61 130.45 216.59 208.87 148.68 293.64C82.34 376.45 173.6 114.25 265.26 98.02C372.39 79.05 187.75 518.3 178.23 428.9C172.91 378.89 327.88 116.39 371.47 159.99C426.92 215.44 281.51 532.19 247.56 526.98C187.66 517.79 401.89 153.44 462.68 184.82C535.16 222.24 415.69 471.94 360.25 485.34C315.9 496.05 481.32 254.06 592.01 309.44" stroke="#000000" stroke-opacity="1.000000" stroke-width="8.000000" stroke-linecap="round"/>
	<path d="M603.23 291.24L602.65 295.28C602.46 296.6 603.59 297.73 604.91 297.55L620.62 295.37C622.74 295.07 623.78 297.87 621.98 299.03L610.3 306.58C608.95 307.45 609.14 309.49 610.63 310.11L618.58 313.39C620.4 314.14 620.15 316.81 618.21 317.2L613.01 318.24C611.83 318.48 611.12 319.69 611.5 320.83L612.98 325.32C613.54 327.04 611.72 328.56 610.13 327.71L603.78 324.29C602.15 323.41 600.31 325.02 600.96 326.75L604.45 336.02C605.21 338.03 602.7 339.66 601.17 338.14L591.31 328.36C590.67 327.73 589.69 327.6 588.91 328.04L577.79 334.33C575.94 335.38 573.95 333.19 575.17 331.44L581.72 322.06C582.32 321.2 582.15 320.02 581.34 319.36L569.92 310.07C568.46 308.88 569.3 306.52 571.19 306.52L579.98 306.52C580.98 306.52 581.82 305.79 581.96 304.8L583.34 295.24C583.64 293.17 586.51 292.89 587.21 294.86L589.44 301.18C590.01 302.81 592.23 303 593.07 301.49L599.5 289.98C600.58 288.05 603.54 289.05 603.23 291.24Z" fill="#CD4631" fill-opacity="1.000000" fill-rule="nonzero">
	<animate attributeName="fill" values="#CD4631; #81adc8; #CD4631;" dur="3s" repeatCount="indefinite"/>
	</path>
</svg>
