<svg width="146.324951" height="151.263123" viewBox="0 0 146.325 151.263" fill="none" xmlns="http://www.w3.org/2000/svg" xmlns:xlink="http://www.w3.org/1999/xlink">
	<desc>
			Created with Pixso.
	</desc>
	<defs/>
	<path id="Star 4" d="M61.78 4.59L65.37 39.5C65.77 43.37 70.17 45.4 73.37 43.18L109.61 18.07C114.15 14.92 119.76 20.21 116.89 24.93L99.33 53.74C97.53 56.7 99.13 60.55 102.49 61.37L142.41 71.06C147.32 72.26 147.71 79.08 142.97 80.83L101.74 96.02C98.57 97.18 97.38 101.05 99.35 103.8L114.79 125.31C118.03 129.83 112.73 135.55 107.97 132.65L80.02 115.62C77.06 113.82 73.21 115.42 72.39 118.78L65.45 147.35C64.11 152.89 56.07 152.41 55.41 146.74L50.45 104.63C49.98 100.62 45.25 98.71 42.13 101.28L15.09 123.49C10.54 127.24 4.31 121.57 7.61 116.68L32.82 79.29C35.18 75.79 32.52 71.1 28.3 71.32L5.39 72.54C-0.72 72.87 -2.14 64.15 3.74 62.51L23.28 57.08C26.87 56.08 28.22 51.69 25.81 48.85L8.52 28.48C4.77 24.05 10.12 17.78 15.08 20.8L37.45 34.43C40.41 36.23 44.26 34.63 45.08 31.27L51.72 3.9C53.08 -1.68 61.19 -1.13 61.78 4.59Z" fill="#000000" fill-opacity="1.000000" fill-rule="nonzero"/>
</svg>
