<svg width="21.000000" height="17.250000" viewBox="0 0 21 17.25" fill="none" xmlns="http://www.w3.org/2000/svg" xmlns:xlink="http://www.w3.org/1999/xlink">
	<defs/>
	<path id="twitter" d="M6.59 17.25C4.16 17.25 1.9 16.54 0 15.32C1.61 15.43 4.46 15.18 6.24 13.48C3.57 13.36 2.37 11.31 2.21 10.44C2.43 10.53 3.52 10.63 4.13 10.39C1.06 9.62 0.59 6.92 0.69 6.1C1.27 6.5 2.24 6.64 2.63 6.61C-0.23 4.56 0.8 1.48 1.3 0.82C3.35 3.66 6.43 5.26 10.24 5.35C10.17 5.03 10.13 4.71 10.13 4.37C10.13 1.95 12.08 0 14.49 0C15.75 0 16.88 0.53 17.68 1.38C18.52 1.19 19.78 0.73 20.4 0.33C20.09 1.45 19.12 2.38 18.53 2.73C19.05 2.65 20.44 2.38 21 2.01C20.72 2.64 19.69 3.68 18.85 4.27C19.01 11.2 13.7 17.25 6.59 17.25Z" fill="#000000" fill-opacity="1.000000" fill-rule="nonzero"/>
</svg>
