<svg width="24.000000" height="24.000000" viewBox="0 0 24 24" fill="none" xmlns="http://www.w3.org/2000/svg" xmlns:xlink="http://www.w3.org/1999/xlink">
	<defs>
		<clipPath id="clip301_2769">
			<rect id="tiktok" rx="0.500000" width="23.000000" height="23.000000" transform="translate(0.500000 0.500000)" fill="white" fill-opacity="0"/>
		</clipPath>
	</defs>
	<rect id="tiktok" rx="0.500000" width="23.000000" height="23.000000" transform="translate(0.500000 0.500000)" fill="#FFFFFF" fill-opacity="0"/>
	<g clip-path="url(#clip301_2769)">
		<path id="vector" d="M6.33 14.84C6.45 13.87 6.85 13.33 7.6 12.77C8.67 12.01 10.01 12.44 10.01 12.44L10.01 9.91C10.34 9.9 10.66 9.92 10.99 9.97L10.99 13.23C10.99 13.23 9.65 12.8 8.57 13.55C7.82 14.11 7.42 14.65 7.31 15.62C7.3 16.15 7.4 16.84 7.86 17.44C7.75 17.38 7.63 17.31 7.51 17.24C6.51 16.56 6.33 15.55 6.33 14.84ZM16.52 5.23C15.78 4.42 15.5 3.6 15.4 3.03L16.33 3.03C16.33 3.03 16.15 4.53 17.5 6.01L17.51 6.03C17.15 5.81 16.82 5.54 16.52 5.23ZM20.99 7.52L20.99 10.72C20.99 10.72 19.81 10.67 18.93 10.45C17.71 10.13 16.92 9.66 16.92 9.66C16.92 9.66 16.38 9.31 16.33 9.29L16.33 15.88C16.33 16.25 16.23 17.17 15.93 17.93C15.53 18.93 14.91 19.59 14.8 19.72C14.8 19.72 14.04 20.61 12.72 21.21C11.53 21.74 10.48 21.73 10.16 21.74C10.16 21.74 8.35 21.82 6.72 20.76C6.37 20.52 6.04 20.26 5.74 19.97L5.75 19.97C7.38 21.03 9.19 20.96 9.19 20.96C9.5 20.95 10.55 20.96 11.75 20.42C13.07 19.82 13.82 18.94 13.82 18.94C13.93 18.8 14.55 18.15 14.95 17.14C15.26 16.38 15.36 15.46 15.36 15.1L15.36 8.51C15.4 8.53 15.95 8.87 15.95 8.87C15.95 8.87 16.73 9.35 17.96 9.66C18.84 9.89 20.02 9.93 20.02 9.93L20.02 7.43C20.43 7.52 20.77 7.55 20.99 7.52Z" fill="#000000" fill-opacity="1.000000" fill-rule="nonzero"/>
		<path id="vector" d="M20.02 7.43L20.02 9.93C20.02 9.93 18.84 9.88 17.96 9.66C16.73 9.35 15.95 8.87 15.95 8.87C15.95 8.87 15.4 8.53 15.36 8.51L15.36 15.1C15.36 15.46 15.26 16.38 14.95 17.15C14.55 18.15 13.93 18.8 13.82 18.94C13.82 18.94 13.07 19.82 11.75 20.42C10.55 20.96 9.5 20.95 9.19 20.96C9.19 20.96 7.38 21.03 5.75 19.97L5.74 19.97C5.57 19.8 5.4 19.62 5.25 19.44C4.73 18.81 4.41 18.05 4.33 17.84C4.33 17.84 4.33 17.84 4.33 17.84C4.2 17.47 3.93 16.57 3.97 15.71C4.04 14.18 4.57 13.24 4.72 13.01C5.09 12.37 5.58 11.79 6.16 11.31C6.67 10.9 7.25 10.57 7.88 10.34C8.56 10.07 9.28 9.92 10.01 9.91L10.01 12.44C10.01 12.44 8.67 12.02 7.6 12.77C6.85 13.33 6.45 13.87 6.33 14.84C6.33 15.55 6.51 16.56 7.51 17.24C7.63 17.31 7.75 17.38 7.86 17.44C8.03 17.66 8.25 17.86 8.49 18.02C9.47 18.64 10.29 18.69 11.34 18.28C12.04 18.01 12.56 17.41 12.81 16.74C12.96 16.32 12.96 15.89 12.96 15.46L12.96 3.03L15.4 3.03C15.5 3.6 15.78 4.42 16.52 5.23C16.82 5.54 17.15 5.81 17.51 6.03C17.62 6.14 18.17 6.69 18.87 7.03C19.24 7.21 19.62 7.34 20.02 7.43Z" fill="#000000" fill-opacity="1.000000" fill-rule="nonzero"/>
		<path id="vector" d="M3.36 17.06L3.36 17.06L3.42 17.23C3.42 17.21 3.39 17.15 3.36 17.06Z" fill="#000000" fill-opacity="1.000000" fill-rule="nonzero"/>
		<path id="vector" d="M7.88 10.34C7.25 10.57 6.67 10.9 6.16 11.31C5.58 11.79 5.09 12.37 4.72 13.01C4.57 13.24 4.04 14.18 3.97 15.71C3.93 16.58 4.21 17.47 4.33 17.84C4.33 17.84 4.33 17.84 4.33 17.84C4.42 18.06 4.73 18.81 5.25 19.44C5.41 19.63 5.57 19.8 5.74 19.97C5.19 19.6 4.7 19.16 4.28 18.66C3.76 18.03 3.45 17.29 3.36 17.07C3.36 17.07 3.36 17.06 3.36 17.06L3.36 17.06C3.23 16.69 2.96 15.79 3 14.93C3.06 13.4 3.6 12.46 3.74 12.23C4.12 11.59 4.61 11.01 5.19 10.53C5.7 10.12 6.28 9.79 6.91 9.56C7.3 9.4 7.7 9.29 8.12 9.21C8.75 9.11 9.38 9.1 10.01 9.19L10.01 9.91C9.28 9.92 8.56 10.07 7.88 10.34Z" fill="#000000" fill-opacity="1.000000" fill-rule="nonzero"/>
		<path id="vector" d="M15.4 3.03L12.96 3.03L12.96 15.46C12.96 15.89 12.96 16.31 12.81 16.74C12.56 17.41 12.04 18.01 11.34 18.28C10.29 18.69 9.47 18.64 8.49 18.02C8.25 17.86 8.03 17.66 7.86 17.44C8.69 17.86 9.44 17.86 10.36 17.5C11.06 17.23 11.59 16.62 11.83 15.95C11.99 15.53 11.98 15.11 11.98 14.67L11.98 2.25L15.36 2.25C15.36 2.25 15.32 2.55 15.4 3.03ZM20.02 6.74L20.02 7.43C19.62 7.34 19.24 7.21 18.88 7.03C18.17 6.69 17.62 6.14 17.51 6.03C17.64 6.11 17.77 6.18 17.9 6.25C18.76 6.66 19.6 6.78 20.02 6.74Z" fill="#000000" fill-opacity="1.000000" fill-rule="nonzero"/>
	</g>
</svg>
