<svg width="20.000000" height="20.000000" viewBox="0 0 20 20" fill="none" xmlns="http://www.w3.org/2000/svg" xmlns:xlink="http://www.w3.org/1999/xlink">
	<desc>
			Created with Pixso.
	</desc>
	<defs/>
	<rect id="twitter" rx="-0.500000" width="19.000000" height="19.000000" transform="translate(0.500000 0.500000)" fill="#FFFFFF" fill-opacity="0"/>
	<path id="twitter" d="M7.36 17.5C5.34 17.5 3.46 16.91 1.87 15.89C3.22 15.98 5.59 15.77 7.07 14.36C4.85 14.26 3.85 12.55 3.71 11.82C3.9 11.9 4.8 11.98 5.31 11.78C2.76 11.14 2.36 8.89 2.45 8.21C2.93 8.54 3.74 8.66 4.06 8.63C1.68 6.93 2.54 4.36 2.96 3.81C4.67 6.18 7.23 7.51 10.41 7.58C10.35 7.32 10.31 7.05 10.31 6.76C10.31 4.75 11.94 3.12 13.95 3.12C15 3.12 15.94 3.57 16.6 4.28C17.31 4.11 18.36 3.73 18.88 3.4C18.62 4.33 17.81 5.11 17.32 5.4C17.75 5.33 18.91 5.11 19.37 4.8C19.14 5.32 18.29 6.19 17.58 6.68C17.71 12.46 13.29 17.5 7.36 17.5Z" fill="#47ACDF" fill-opacity="1.000000" fill-rule="nonzero"/>
</svg>
