<svg width="108.469482" height="108.160767" viewBox="0 0 108.469 108.161" fill="none" xmlns="http://www.w3.org/2000/svg" xmlns:xlink="http://www.w3.org/1999/xlink">
	<desc>
			Created with Pixso.
	</desc>
	<defs/>
	<path id="Vector" d="M37.74 37.73C35.48 36.1 33.83 34.91 32.19 33.73C25.55 28.97 18.87 24.23 12.28 19.4C10.7 18.25 9.21 16.83 8.11 15.25C7.47 14.3 7.27 12.61 7.7 11.61C7.95 11.03 9.98 10.71 10.95 11.05C13.32 11.84 15.62 12.92 17.79 14.16C24.54 18.07 31.22 22.11 38.19 26.26C38.82 22.11 39.36 17.98 40.13 13.89C40.72 10.73 41.53 7.57 42.41 4.48C42.98 2.47 44.17 0.73 46.59 1.07C49.09 1.41 49.9 3.4 49.86 5.63C49.77 12.29 49.54 18.93 49.41 25.58C49.36 27.16 49.41 28.74 49.41 30.32C49.66 30.55 51.78 28.65 52.77 27.68C61.26 19.38 69.74 11.12 78.32 2.9C79.52 1.75 81.03 0.78 82.56 0.15C83.37 -0.19 84.91 0.06 85.45 0.64C85.99 1.23 86.11 2.77 85.72 3.56C85 5.07 83.92 6.44 82.77 7.69C75.2 15.99 67.6 24.25 60.02 32.54C59.18 33.44 58.35 34.39 57.1 35.76C62.79 35.36 67.91 34.91 73.04 34.63C83.35 34.12 93.69 33.69 104 33.23C104.64 33.21 105.31 33.21 105.85 33.33C109.4 34.07 109.08 37.61 106.42 38.06C103.17 38.63 99.9 39.33 96.6 39.67C84.8 40.84 72.99 41.88 61.19 42.98C60.94 43.01 60.72 43.1 59.97 43.3C63.22 45.85 66.22 48.2 69.22 50.52C74.89 54.95 80.62 59.3 86.2 63.82C87.69 65.04 88.99 66.64 89.94 68.31C90.96 70.07 89.9 71.58 87.96 71.11C85.59 70.5 83.15 69.53 81.14 68.15C71.35 61.47 61.69 54.59 51.98 47.77C50.9 47 49.81 46.23 48.23 45.08C47.9 50.21 47.62 54.81 47.26 59.42C46.18 73.12 45.1 86.81 43.97 100.51C43.83 102.03 43.54 103.56 43.09 105.01C42.48 106.99 41.12 108.3 38.94 108.14C36.88 107.99 35.69 106.61 35.32 104.67C34.99 102.82 34.81 100.92 34.83 99.05C34.96 86.81 35.17 74.6 35.35 62.37C35.37 61.47 35.35 60.59 35.35 59.03C34.31 60.02 33.59 60.68 32.89 61.38C25.08 69.19 17.27 77.02 9.44 84.83C8.56 85.71 7.56 86.59 6.44 87.09C5.67 87.42 4.31 87.4 3.73 86.93C3.14 86.45 3.01 85.12 3.01 84.33C3.03 81.85 4.36 80.74 5.53 79.32C12.44 70.95 19.46 62.64 26.52 54.38C29.07 51.4 31.85 48.63 35.12 45.15C29.01 45.85 23.7 46.53 18.4 47.02C13.3 47.5 8.2 47.79 3.07 48.15C2.53 48.2 1.97 48.11 1.47 48.04C-1.13 47.72 0.34 44.97 1.09 44.79C6.21 43.53 11.38 42.31 16.57 41.36C22.73 40.3 36.34 38.2 37.74 37.73Z" fill="#000000" fill-opacity="1.000000" fill-rule="nonzero"/>
</svg>
