<svg width="110.889893" height="97.872803" viewBox="0 0 110.89 97.8728" fill="none" xmlns="http://www.w3.org/2000/svg" xmlns:xlink="http://www.w3.org/1999/xlink">
	<desc>
			Created with Pixso.
	</desc>
	<defs/>
	<path id="Vector" d="M13.94 35.92C13.75 34.72 10.76 35.98 10.14 34.2C9.52 32.43 12.07 31.95 13.3 31.43C15.44 30.53 17.74 29.93 20.02 29.6C20.9 29.46 22.73 29.55 22.91 30.86C23.04 31.68 22.86 32.26 21.35 33.21C20.54 33.71 20.12 33.99 18.36 34.64C18.13 35.03 18.47 35.8 18.7 36.45C23.37 50.07 30.78 61.74 43.11 69.67C55.44 77.62 68.61 79.99 82.68 74.77C83.93 74.32 85.42 74.08 86.14 73.15C86.68 72.44 86.57 71.86 86.37 69.81C86.3 69.17 86.77 67.99 87.78 67.65C89.45 67.06 90.17 68.28 90.34 68.85C91.44 72.77 91.73 76.79 91.65 80.21C91.43 81.23 90.57 81.67 89.88 81.84C89.3 81.98 88.35 81.38 87.88 80.83C87.35 80.18 87.13 79.24 86.61 78.06C70.68 84.71 55.16 83.3 40.62 74.18C26.28 65.25 17.08 51.62 13.94 35.92Z" fill="#000000" fill-opacity="1.000000" fill-rule="nonzero"/>
	<path id="Vector" d="M79.47 45.11C82.38 39.94 88.41 37.89 92.93 40.53C96.87 42.83 98.06 48.89 95.47 53.46C93 57.79 86.85 59.59 82.58 57.2C78.27 54.77 76.94 49.59 79.47 45.11ZM83.56 46.74C82.18 49.23 82.83 51.98 85.14 53.26C87.16 54.37 90.2 53.52 91.23 51.51C92.52 49.05 92.68 45.83 89.39 44.4C87.52 43.58 85.17 43.87 83.56 46.74Z" fill="#CD4631" fill-opacity="1.000000" fill-rule="nonzero"/>
	<path id="Vector" d="M46.94 21.07C44.26 25.62 38.29 27.33 33.86 24.8C29.65 22.39 28.45 16.75 31.41 12.07C35.02 6.32 39.34 6.38 44.37 8.72C48.32 10.55 49.4 16.85 46.94 21.07ZM35.31 13.81C33.62 16.69 33.93 19.76 36.01 20.99C38.33 22.35 41.81 21.33 43.24 18.85C44.56 16.56 43.75 13.18 41.61 12.02C38.89 10.55 36.86 11.13 35.31 13.81Z" fill="#81ADC8" fill-opacity="1.000000" fill-rule="nonzero"/>
</svg>
