<svg width="69.894043" height="54.844315" viewBox="0 0 69.894 54.8443" fill="none" xmlns="http://www.w3.org/2000/svg" xmlns:xlink="http://www.w3.org/1999/xlink">
	<desc>
			Created with Pixso.
	</desc>
	<defs/>
	<path id="Vector" d="M64.64 27.77C62.25 27.75 60.22 27.79 58.2 27.72C54.78 27.6 51.4 27.34 48.24 25.79C45.02 24.21 43.28 21.64 43.36 18.13C43.41 15.98 44.04 13.85 44.49 11.73C44.67 10.91 45.09 10.12 45.54 8.93C43.86 9.78 42.55 10.47 41.21 11.11C37.95 12.67 34.74 14.37 31.39 15.71C26.81 17.56 23.34 15.93 21.63 11.26C20.96 9.43 20.74 7.42 20.33 5.48C20.21 4.89 20.18 4.3 20.09 3.59C17.75 6.11 15.56 8.53 13.29 10.84C7.99 16.25 3.03 13.09 1.02 8.22C0.49 6.92 0.26 5.46 0.02 4.06C-0.11 3.11 0.28 2.2 1.32 2.07C2.27 1.95 2.75 2.7 3 3.56C3.27 4.41 3.48 5.28 3.83 6.08C4.24 7.01 4.67 7.95 5.26 8.79C6.92 11.13 8.74 11.47 11 9.68C12.6 8.43 14.02 6.93 15.44 5.47C16.76 4.11 18.02 2.68 19.29 1.24C19.95 0.51 20.63 -0.2 21.71 0.04C22.93 0.32 23.14 1.41 23.33 2.41C23.59 3.69 23.65 4.99 23.97 6.25C24.36 7.84 24.79 9.44 25.41 10.93C26.27 12.95 27.4 13.52 29.52 12.94C31.55 12.39 33.59 11.7 35.5 10.82C39.59 8.92 43.6 6.9 47.62 4.85C48.57 4.37 49.43 4.15 50.26 4.87C51.06 5.55 50.92 6.44 50.57 7.33C49.93 8.91 49.22 10.48 48.67 12.08C48.2 13.49 47.73 14.95 47.52 16.41C46.95 20.33 48.33 22.47 52.02 23.83C54.8 24.86 57.69 25.32 60.63 25.41C62.75 25.48 64.86 25.42 66.97 25.41C68.09 25.4 69.24 25.39 69.74 26.65C70.2 27.85 69.49 28.74 68.75 29.58C68.42 29.93 68.05 30.23 67.7 30.54C66.97 31.15 66.26 31.82 65.48 32.35C59.66 36.39 58.85 42.01 60.46 48.33C60.76 49.49 61.42 50.57 61.96 51.67C62.22 52.22 62.65 52.71 62.84 53.27C62.98 53.67 63.02 54.33 62.78 54.57C62.53 54.84 61.88 54.86 61.48 54.83C60.62 54.75 59.75 54.12 59.25 53.48C58.27 52.2 57.33 50.8 56.76 49.31C55.5 46 55.31 42.52 55.73 39C56.1 36 57.65 33.62 59.84 31.65C61.28 30.39 62.81 29.25 64.64 27.77Z" fill="#81ADC8" fill-opacity="1.000000" fill-rule="nonzero"/>
</svg>
