<svg width="41.181641" height="32.608002" viewBox="0 0 41.1816 32.608" fill="none" xmlns="http://www.w3.org/2000/svg" xmlns:xlink="http://www.w3.org/1999/xlink">
	<desc>
			Created with Pixso.
	</desc>
	<defs/>
	<path id="“" d="M16.04 17Q14.95 15.91 13.44 15.24L17.66 -7.63e-6L8.15 -7.63e-6L2.6 13.82Q0.96 17.63 0.46 19.56Q2.62e-6 21.48 2.62e-6 23.4Q2.62e-6 25.96 1.07 27.95Q1.68 29.08 2.64 30.03Q3.57 30.92 4.66 31.51Q6.69 32.6 9.32 32.6Q12.09 32.6 14.17 31.41Q15.12 30.86 15.92 30.07Q16.7 29.31 17.24 28.41Q18.52 26.29 18.52 23.4Q18.52 20.77 17.4 18.79Q17.29 18.59 17.17 18.41Q16.68 17.63 16.04 17ZM38.7 17Q37.61 15.91 36.09 15.24L40.31 -7.63e-6L30.8 -7.63e-6L25.25 13.82Q23.61 17.63 23.12 19.56Q22.65 21.48 22.65 23.4Q22.65 25.96 23.72 27.95Q24.33 29.08 25.29 30.03Q26.22 30.92 27.31 31.51Q29.35 32.6 31.97 32.6Q34.74 32.6 36.83 31.41Q37.77 30.86 38.58 30.07Q39.35 29.31 39.9 28.41Q41.18 26.29 41.18 23.4Q41.18 20.77 40.05 18.79Q39.94 18.59 39.82 18.41Q39.33 17.63 38.7 17Z" fill="#CD4631" fill-opacity="1.000000" fill-rule="evenodd"/>
</svg>
